{
.appVersion = "3149";
.storedFileType = org.unifiedfontobject.ufo;
.formatVersion = 3;
customParameters = (
{
name = glyphOrder;
value = (
.notdef,
.null,
nonmarkingreturn,
space,
exclam,
quotedbl,
numbersign,
dollar,
percent,
ampersand,
quotesingle,
parenleft,
parenright,
asterisk,
plus,
comma,
hyphen,
period,
slash,
zero,
one,
two,
three,
four,
five,
six,
seven,
eight,
nine,
colon,
semicolon,
less,
equal,
greater,
question,
at,
A,
B,
C,
D,
E,
F,
G,
H,
I,
J,
K,
L,
M,
N,
O,
P,
Q,
R,
S,
T,
U,
V,
W,
X,
Y,
Z,
bracketleft,
backslash,
bracketright,
asciicircum,
underscore,
grave,
a,
b,
c,
d,
e,
f,
g,
h,
i,
j,
k,
l,
m,
n,
o,
p,
q,
r,
s,
t,
u,
v,
w,
x,
y,
z,
braceleft,
bar,
braceright,
asciitilde,
Euro,
quotesinglbase,
florin,
quotedblbase,
ellipsis,
dagger,
daggerdbl,
quoteleft,
quoteright,
quotedblleft,
quotedblright,
endash,
emdash,
trademark,
exclamdown,
f_f,
f_f_i,
f_f_l,
zero.alt,
one.alt,
two.alt,
three.alt,
four.alt,
five.alt,
six.alt,
seven.alt,
eight.alt,
nine.alt,
kratka,
ubuntu,
uniF0FF,
commaaccent,
circumflex,
ogonek,
caron,
ring,
dotaccent,
macron,
acute,
tilde,
caron.alt,
breve,
revcommaaccent,
hungarumlaut,
dieresis,
double_grave,
cedilla
);
},
{
name = codePageRanges;
value = (
"1252",
"1250",
"1251",
"1253",
"1254",
"1257",
"869",
"855",
"852",
"737",
"850"
);
},
{
name = panose;
value = (
2,
11,
3,
9,
3,
6,
2,
3,
2,
4
);
},
{
name = openTypeOS2Selection;
value = (
7
);
},
{
name = fsType;
value = (
);
},
{
name = unicodeRanges;
value = (
0,
1,
2,
3,
4,
5,
6,
7,
9,
29,
30,
31,
32,
33,
35,
36,
38,
45,
60,
62
);
},
{
name = vendorID;
value = DAMA;
},
{
name = blueScale;
value = 0.04;
},
{
name = blueShift;
value = 7;
},
{
name = postscriptIsFixedPitch;
value = 1;
},
{
name = trademarks;
value = "Ubuntu and Canonical are registered trademarks of Canonical Ltd.";
}
);
date = "2022-06-07 18:37:36 +0000";
familyName = "Ubuntu Mono";
fontMaster = (
{
customParameters = (
{
name = typoAscender;
value = 932;
},
{
name = typoDescender;
value = -189;
},
{

glyphs = (
{
color = 5;
glyphname = .notdef;
layers = (
{
layerId = "48496069-D3C9-4C2F-94CE-920A20E77C3C";
shapes = (
{
closed = 1;
nodes = (
(504,0,l),
(504,840,l),
(56,840,l),
(56,0,l)
);
},
{
closed = 1;
nodes = (
(112,784,l),
(448,784,l),
(448,56,l),
(112,56,l)
);
}
);
width = 560;
}
);
},
{
color = 5;
glyphname = exclam;
layers = (
{
background = {
shapes = (
{
closed = 1;
nodes = (
(275,215,l),
(281,300,o),
(286,390,o),
(286,500,cs),
(286,693,l),
(262,693,l),
(262,500,ls),
(262,384,o),
(268,300,o),
(274,215,c)
);
},
{
closed = 1;
nodes = (
(306,-13,o),
(326,13,o),
(326,42,cs),
(326,74,o),
(306,98,o),
(274,98,cs),
(245,98,o),
(224,74,o),
(224,42,cs),
(224,12,o),
(245,-13,o),
(274,-13,cs)
);
}
);
};
layerId = "48496069-D3C9-4C2F-94CE-920A20E77C3C";
shapes = (
{
closed = 1;
nodes = (
(290,189,l),
(297,335,o),
(298,348,o),
(298,494,cs),
(298,693,l),
(262,693,l),
(262,494,ls),
(262,348,o),
(264,335,o),
(270,189,c)
);
},
{
closed = 1;
nodes = (
(309,-13,o),
(328,9,o),
(328,36,cs),
(328,65,o),
(309,86,o),
(280,86,cs),
(251,86,o),
(232,65,o),
(232,36,cs),
(232,9,o),
(251,-13,o),
(280,-13,cs)
);
}
);
width = 560;
}
);
unicode = 33;
},
{
color = 5;
glyphname = quotedbl;
layers = (
{
background = {
shapes = (
{
closed = 1;
nodes = (
(348,528,l),
(355,586,o),
(352,712,o),
(352,715,c),
(352,760,l),
(341,760,l),
(341,716,l),
(341,662,o),
(337,586,o),
(343,528,c)
);
},
{
closed = 1;
nodes = (
(212,528,l),
(220,586,o),
(215,614,o),
(215,715,c),
(215,760,l),
(204,760,l),
(204,716,l),
(204,662,o),
(200,586,o),
(207,528,c)
);
}
);
};
layerId = "48496069-D3C9-4C2F-94CE-920A20E77C3C";
shapes = (
{
closed = 1;
nodes = (
(204,491,l),
(213,580,o),
(214,627,o),
(214,725,cs),
(214,760,l),
(178,760,l),
(178,726,ls),
(178,645,o),
(178,587,o),
(188,491,c)
);
},
{
closed = 1;
nodes = (
(372,491,l),
(381,580,o),
(382,627,o),
(382,725,cs),
(382,760,l),
(346,760,l),
(346,726,ls),
(346,645,o),
(346,587,o),
(356,491,c)
);
}
);
width = 560;
}
);
unicode = 34;
},
{
color = 5;
glyphname = numbersign;
layers = (
{
background = {
shapes = (
{
closed = 1;
nodes = (
(91,0,l),
(126,0,l),
(222,497,l),
(259,693,l),
(224,693,l)
);
},
{
closed = 1;
nodes = (
(46,497,l),
(46,466,l),
(175,466,l),
(511,466,l),
(511,497,l)
);
},
{
closed = 1;
nodes = (
(466,693,l),
(431,693,l),
(392,497,l),
(298,0,l),
(333,0,l)
);
},
{
closed = 1;
nodes = (
(511,195,l),
(511,226,l),
(381,226,l),
(46,226,l),
(46,195,l)
);
}
);
};
layerId = "48496069-D3C9-4C2F-94CE-920A20E77C3C";
shapes = (
{
closed = 1;
nodes = (
(126,0,l),
(164,195,l),
(335,195,l),
(298,0,l),
(333,0,l),
(370,195,l),
(511,195,l),
(511,226,l),
(376,226,l),
(422,466,l),
(511,466,l),
(511,497,l),
(428,497,l),
(466,693,l),
(431,693,l),
(392,497,l),
(222,497,l),
(259,693,l),
(224,693,l),
(186,497,l),
(46,497,l),
(46,466,l),
(180,466,l),
(134,226,l),
(46,226,l),
(46,195,l),
(128,195,l),
(91,0,l)
);
},
{
closed = 1;
nodes = (
(216,466,l),
(386,466,l),
(341,226,l),
(170,226,l)
);
}
);
width = 560;
}
);
unicode = 35;
},
{
color = 5;
glyphname = dollar;
layers = (
{
background = {
shapes = (
{
closed = 1;
nodes = (
(296,-109,l),
(296,32,l),
(396,39,o),
(469,85,o),
(469,180,cs),
(469,299,o),
(368,330,o),
(284,363,cs),
(201,395,o),
(131,428,o),
(131,505,cs),
(131,588,o),
(203,624,o),
(291,624,cs),
(374,624,o),
(399,608,o),
(415,604,c),
(419,635,l),
(391,643,o),
(339,652,o),
(293,652,c),
(293,776,l),
(268,776,l),
(268,652,l),
(172,650,o),
(95,602,o),
(95,494,cs),
(95,400,o),
(175,363,o),
(244,338,cs),
(340,304,o),
(426,256,o),
(426,170,cs),
(426,110,o),
(393,57,o),
(253,57,cs),
(162,57,o),
(126,73,o),
(93,93,c),
(92,55,l),
(123,38,o),
(185,21,o),
(270,26,c),
(270,-109,l)
);
}
);
};
layerId = "48496069-D3C9-4C2F-94CE-920A20E77C3C";
shapes = (
{
closed = 1;
nodes = (
(300,-109,l),
(300,26,l),
(405,31,o),
(469,89,o),
(469,181,cs),
(469,266,o),
(422,311,o),
(296,357,cs),
(167,405,o),
(138,429,o),
(138,502,cs),
(138,582,o),
(195,624,o),
(300,624,cs),
(348,624,o),
(398,615,o),
(435,599,c),
(445,630,l),
(402,647,o),
(354,656,o),
(300,656,c),
(300,776,l),
(266,776,l),
(266,653,l),
(150,640,o),
(102,593,o),
(102,493,cs),
(102,424,o),
(145,378,o),
(248,341,cs),
(406,284,o),
(433,257,o),
(433,175,cs),
(433,101,o),
(377,55,o),
(281,55,cs),
(204,55,o),
(147,66,o),
(94,91,c),
(83,61,l),
(134,36,o),
(203,23,o),
(266,23,c),
(266,-109,l)
);
}
);
width = 560;
},
{
associatedMasterId = "48496069-D3C9-4C2F-94CE-920A20E77C3C";
layerId = "898B213F-3683-4BD1-9EB9-12F47BC16710";
name = "8 Jan 23 19:19";
shapes = (
{
closed = 1;
nodes = (
(296,-109,l),
(296,32,l),
(396,39,o),
(469,85,o),
(469,180,cs),
(469,299,o),
(368,330,o),
(284,363,cs),
(201,395,o),
(131,428,o),
(131,505,cs),
(131,588,o),
(203,624,o),
(291,624,cs),
(374,624,o),
(399,608,o),
(415,604,c),
(419,635,l),
(391,643,o),
(339,652,o),
(293,652,c),
(293,776,l),
(268,776,l),
(268,652,l),
(172,650,o),
(95,602,o),
(95,494,cs),
(95,400,o),
(175,363,o),
(244,338,cs),
(340,304,o),
(426,256,o),
(426,170,cs),
(426,110,o),
(393,57,o),
(253,57,cs),
(162,57,o),
(126,73,o),
(93,93,c),
(92,55,l),
(123,38,o),
(185,21,o),
(270,26,c),
(270,-109,l)
);
}
);
width = 560;
},
{
associatedMasterId = "48496069-D3C9-4C2F-94CE-920A20E77C3C";
layerId = "26BFF4A8-F289-483D-A9BB-2FCE9C7DD1F9";
name = "8 Jan 23 19:19.background";
shapes = (
{
closed = 1;
nodes = (
(296,-109,l),
(296,32,l),
(396,39,o),
(469,85,o),
(469,180,cs),
(469,299,o),
(368,330,o),
(284,363,cs),
(201,395,o),
(131,428,o),
(131,505,cs),
(131,588,o),
(203,624,o),
(291,624,cs),
(374,624,o),
(399,608,o),
(415,604,c),
(419,635,l),
(391,643,o),
(339,652,o),
(293,652,c),
(293,776,l),
(268,776,l),
(268,652,l),
(172,650,o),
(95,602,o),
(95,494,cs),
(95,400,o),
(175,363,o),
(244,338,cs),
(340,304,o),
(426,256,o),
(426,170,cs),
(426,110,o),
(393,57,o),
(253,57,cs),
(162,57,o),
(126,73,o),
(93,93,c),
(92,55,l),
(123,38,o),
(185,21,o),
(270,26,c),
(270,-109,l)
);
}
);
width = 0;
}
);
unicode = 36;
},
{
color = 5;
glyphname = percent;
layers = (
{
background = {
shapes = (
{
closed = 1;
nodes = (
(113,0,l),
(492,693,l),
(440,693,l),
(65,0,l)
);
},
{
closed = 1;
nodes = (
(480,-15,o),
(522,46,o),
(522,159,cs),
(522,272,o),
(480,333,o),
(410,333,cs),
(338,333,o),
(296,272,o),
(296,159,cs),
(296,46,o),
(338,-15,o),
(410,-15,cs)
);
},
{
closed = 1;
nodes = (
(360,6,o),
(337,89,o),
(337,159,cs),
(337,228,o),
(360,309,o),
(411,309,cs),
(461,309,o),
(484,228,o),
(484,159,cs),
(484,89,o),
(461,6,o),
(411,6,cs)
);
},
{
closed = 1;
nodes = (
(222,359,o),
(264,420,o),
(264,533,cs),
(264,646,o),
(222,707,o),
(152,707,cs),
(78,707,o),
(36,646,o),
(36,533,cs),
(36,421,o),
(78,359,o),
(152,359,cs)
);
},
{
closed = 1;
nodes = (
(102,380,o),
(76,463,o),
(76,533,cs),
(76,603,o),
(102,685,o),
(152,685,cs),
(203,685,o),
(224,602,o),
(224,533,cs),
(224,464,o),
(203,380,o),
(152,380,cs)
);
}
);
};
layerId = "48496069-D3C9-4C2F-94CE-920A20E77C3C";
shapes = (
{
closed = 1;
nodes = (
(103,0,l),
(484,693,l),
(447,693,l),
(66,0,l)
);
},
{
closed = 1;
nodes = (
(480,-15,o),
(522,49,o),
(522,158,cs),
(522,267,o),
(480,332,o),
(408,332,cs),
(341,332,o),
(302,267,o),
(302,158,cs),
(302,49,o),
(341,-15,o),
(408,-15,cs)
);
},
{
closed = 1;
nodes = (
(363,15,o),
(336,68,o),
(336,158,cs),
(336,249,o),
(363,302,o),
(408,302,cs),
(458,302,o),
(488,249,o),
(488,158,cs),
(488,68,o),
(458,15,o),
(408,15,cs)
);
},
{
closed = 1;
nodes = (
(97,391,o),
(70,444,o),
(70,534,cs),
(70,625,o),
(97,678,o),
(142,678,cs),
(192,678,o),
(222,625,o),
(222,534,cs),
(222,444,o),
(192,391,o),
(142,391,cs)
);
},
{
closed = 1;
nodes = (
(214,361,o),
(256,425,o),
(256,534,cs),
(256,643,o),
(214,708,o),
(142,708,cs),
(75,708,o),
(36,643,o),
(36,534,cs),
(36,425,o),
(75,361,o),
(142,361,cs)
);
}
);
width = 560;
},
{
associatedMasterId = "48496069-D3C9-4C2F-94CE-920A20E77C3C";
layerId = "AF2EB1F5-17EE-4099-8945-7445AF1905F9";
name = "8 Jan 23 19:21";
shapes = (
{
closed = 1;
nodes = (
(113,0,l),
(492,693,l),
(440,693,l),
(65,0,l)
);
},
{
closed = 1;
nodes = (
(480,-15,o),
(522,46,o),
(522,159,cs),
(522,272,o),
(480,333,o),
(410,333,cs),
(338,333,o),
(296,272,o),
(296,159,cs),
(296,46,o),
(338,-15,o),
(410,-15,cs)
);
},
{
closed = 1;
nodes = (
(360,6,o),
(337,89,o),
(337,159,cs),
(337,228,o),
(360,309,o),
(411,309,cs),
(461,309,o),
(484,228,o),
(484,159,cs),
(484,89,o),
(461,6,o),
(411,6,cs)
);
},
{
closed = 1;
nodes = (
(222,359,o),
(264,420,o),
(264,533,cs),
(264,646,o),
(222,707,o),
(152,707,cs),
(78,707,o),
(36,646,o),
(36,533,cs),
(36,421,o),
(78,359,o),
(152,359,cs)
);
},
{
closed = 1;
nodes = (
(102,380,o),
(76,463,o),
(76,533,cs),
(76,603,o),
(102,685,o),
(152,685,cs),
(203,685,o),
(224,602,o),
(224,533,cs),
(224,464,o),
(203,380,o),
(152,380,cs)
);
}
);
width = 560;
},
{
associatedMasterId = "48496069-D3C9-4C2F-94CE-920A20E77C3C";
layerId = "F3321F79-D21F-47BD-9D75-3C9F1F771953";
name = "8 Jan 23 19:21.background";
shapes = (
{
closed = 1;
nodes = (
(113,0,l),
(492,693,l),
(440,693,l),
(65,0,l)
);
},
{
closed = 1;
nodes = (
(480,-15,o),
(522,46,o),
(522,159,cs),
(522,272,o),
(480,333,o),
(410,333,cs),
(338,333,o),
(296,272,o),
(296,159,cs),
(296,46,o),
(338,-15,o),
(410,-15,cs)
);
},
{
closed = 1;
nodes = (
(360,6,o),
(337,89,o),
(337,159,cs),
(337,228,o),
(360,309,o),
(411,309,cs),
(461,309,o),
(484,228,o),
(484,159,cs),
(484,89,o),
(461,6,o),
(411,6,cs)
);
},
{
closed = 1;
nodes = (
(222,359,o),
(264,420,o),
(264,533,cs),
(264,646,o),
(222,707,o),
(152,707,cs),
(78,707,o),
(36,646,o),
(36,533,cs),
(36,421,o),
(78,359,o),
(152,359,cs)
);
},
{
closed = 1;
nodes = (
(102,380,o),
(76,463,o),
(76,533,cs),
(76,603,o),
(102,685,o),
(152,685,cs),
(203,685,o),
(224,602,o),
(224,533,cs),
(224,464,o),
(203,380,o),
(152,380,cs)
);
}
);
width = 0;
}
);
unicode = 37;
},
{
color = 5;
glyphname = ampersand;
layers = (
{
background = {
shapes = (
{
closed = 1;
nodes = (
(369,-9,o),
(459,160,o),
(479,355,c),
(447,359,l),
(430,183,o),
(352,25,o),
(223,25,cs),
(141,25,o),
(89,77,o),
(89,165,cs),
(89,269,o),
(144,310,o),
(226,354,cs),
(313,401,o),
(399,461,o),
(399,564,cs),
(399,647,o),
(341,706,o),
(255,706,cs),
(162,706,o),
(103,646,o),
(103,548,cs),
(103,488,o),
(137,426,o),
(196,358,cs),
(342,192,o),
(455,32,o),
(484,0,c),
(526,0,l),
(499,41,o),
(375,199,o),
(229,372,cs),
(163,450,o),
(139,490,o),
(139,551,cs),
(139,626,o),
(184,674,o),
(258,674,cs),
(313,674,o),
(363,627,o),
(363,564,cs),
(363,480,o),
(291,422,o),
(217,382,cs),
(133,336,o),
(51,289,o),
(51,168,cs),
(51,58,o),
(118,-9,o),
(226,-9,cs)
);
}
);
};
layerId = "48496069-D3C9-4C2F-94CE-920A20E77C3C";
shapes = (
{
closed = 1;
nodes = (
(299,-9,o),
(359,36,o),
(402,105,c),
(443,52,o),
(471,14,o),
(484,0,c),
(526,0,l),
(512,21,o),
(474,71,o),
(420,139,c),
(451,200,o),
(471,275,o),
(479,355,c),
(447,359,l),
(440,289,o),
(424,222,o),
(398,166,c),
(352,224,o),
(297,291,o),
(238,361,c),
(321,407,o),
(399,466,o),
(399,564,cs),
(399,647,o),
(341,706,o),
(255,706,cs),
(162,706,o),
(103,646,o),
(103,548,cs),
(103,490,o),
(134,431,o),
(189,366,c),
(116,324,o),
(51,275,o),
(51,168,cs),
(51,58,o),
(118,-9,o),
(226,-9,cs)
);
},
{
closed = 1;
nodes = (
(140,23,o),
(87,76,o),
(87,165,cs),
(87,261,o),
(135,304,o),
(208,344,c),
(275,268,o),
(334,193,o),
(381,133,c),
(343,66,o),
(290,23,o),
(223,23,cs)
);
},
{
closed = 1;
nodes = (
(161,454,o),
(139,493,o),
(139,551,cs),
(139,626,o),
(184,674,o),
(258,674,cs),
(313,674,o),
(363,627,o),
(363,564,cs),
(363,481,o),
(293,423,o),
(219,383,c)
);
}
);
width = 560;
},
{
associatedMasterId = "48496069-D3C9-4C2F-94CE-920A20E77C3C";
layerId = "76BDAC56-A59D-410C-9A0C-0396E7B0E3AA";
name = "8 Jan 23 19:28";
shapes = (
{
closed = 1;
nodes = (
(349,-9,o),
(425,32,o),
(484,103,c),
(527,58,o),
(551,29,o),
(574,0,c),
(616,0,l),
(587,39,o),
(554,76,o),
(503,129,c),
(540,184,o),
(565,251,o),
(576,328,c),
(544,332,l),
(535,262,o),
(513,202,o),
(480,152,c),
(409,225,o),
(339,297,o),
(268,370,c),
(352,413,o),
(434,454,o),
(434,564,cs),
(434,647,o),
(374,706,o),
(285,706,cs),
(189,706,o),
(128,645,o),
(128,546,cs),
(128,493,o),
(153,449,o),
(217,377,c),
(133,337,o),
(56,288,o),
(56,173,cs),
(56,60,o),
(134,-9,o),
(261,-9,cs)
);
},
{
closed = 1;
nodes = (
(157,25,o),
(94,79,o),
(94,170,cs),
(94,271,o),
(161,314,o),
(238,354,c),
(313,278,o),
(387,202,o),
(462,126,c),
(410,62,o),
(338,25,o),
(258,25,cs)
);
},
{
closed = 1;
nodes = (
(177,466,o),
(164,496,o),
(164,549,cs),
(164,625,o),
(211,674,o),
(288,674,cs),
(346,674,o),
(398,627,o),
(398,564,cs),
(398,469,o),
(326,429,o),
(248,392,c)
);
}
);
width = 560;
},
{
associatedMasterId = "48496069-D3C9-4C2F-94CE-920A20E77C3C";
layerId = "A27DD875-A092-4389-A268-974AE942D327";
name = "8 Jan 23 19:28.background";
shapes = (
{
closed = 1;
nodes = (
(288,-9,o),
(352,17,o),
(396,96,c),
(418,68,o),
(441,32,o),
(457,0,c),
(512,0,l),
(475,59,o),
(438,113,o),
(408,155,c),
(424,202,o),
(432,254,o),
(454,358,c),
(424,360,l),
(416,298,o),
(405,240,o),
(387,192,c),
(369,218,o),
(357,231,o),
(242,360,c),
(343,436,o),
(387,519,o),
(387,586,cs),
(387,667,o),
(325,709,o),
(253,709,cs),
(171,709,o),
(102,659,o),
(102,550,cs),
(102,497,o),
(125,446,o),
(171,385,c),
(84,302,o),
(52,217,o),
(52,152,cs),
(52,64,o),
(123,-9,o),
(209,-9,cs)
);
},
{
closed = 1;
nodes = (
(182,32,o),
(114,73,o),
(114,165,cs),
(114,213,o),
(135,297,o),
(190,357,c),
(241,292,o),
(307,224,o),
(364,140,c),
(325,68,o),
(269,32,o),
(225,32,cs)
);
},
{
closed = 1;
nodes = (
(151,471,o),
(148,498,o),
(148,556,cs),
(148,631,o),
(209,670,o),
(250,670,cs),
(295,670,o),
(347,634,o),
(347,564,cs),
(347,516,o),
(319,455,o),
(220,388,c)
);
}
);
width = 0;
}
);
unicode = 38;
},
{
color = 5;
glyphname = quotesingle;
layers = (
{
background = {
shapes = (
{
closed = 1;
nodes = (
(289,507,l),
(296,566,o),
(293,627,o),
(293,740,cs),
(293,760,l),
(260,760,l),
(260,741,ls),
(260,686,o),
(257,562,o),
(263,507,c)
);
}
);
};
layerId = "48496069-D3C9-4C2F-94CE-920A20E77C3C";
shapes = (
{
closed = 1;
nodes = (
(288,491,l),
(297,580,o),
(298,627,o),
(298,725,cs),
(298,760,l),
(262,760,l),
(262,726,ls),
(262,645,o),
(262,587,o),
(272,491,c)
);
}
);
width = 560;
}
);
unicode = 39;
},
{
color = 5;
glyphname = parenleft;
layers = (
{
background = {
shapes = (
{
closed = 1;
nodes = (
(390,-138,l),
(232,51,o),
(196,169,o),
(196,307,cs),
(196,448,o),
(250,594,o),
(381,728,c),
(354,772,l),
(228,636,o),
(157,460,o),
(157,303,cs),
(157,141,o),
(231,-41,o),
(358,-183,c)
);
}
);
};
layerId = "48496069-D3C9-4C2F-94CE-920A20E77C3C";
shapes = (
{
closed = 1;
nodes = (
(410,-160,l),
(258,-17,o),
(196,114,o),
(196,299,cs),
(196,481,o),
(258,612,o),
(410,758,c),
(386,783,l),
(225,632,o),
(160,494,o),
(160,299,cs),
(160,104,o),
(225,-34,o),
(386,-185,c)
);
}
);
width = 560;
}
);
unicode = 40;
},
{
color = 5;
glyphname = parenright;
layers = (
{
layerId = "48496069-D3C9-4C2F-94CE-920A20E77C3C";
shapes = (
{
closed = 1;
nodes = (
(335,-34,o),
(400,104,o),
(400,299,cs),
(400,494,o),
(335,632,o),
(174,783,c),
(150,758,l),
(302,612,o),
(364,481,o),
(364,299,cs),
(364,114,o),
(302,-17,o),
(150,-160,c),
(174,-185,l)
);
}
);
width = 560;
}
);
unicode = 41;
},
{
color = 5;
glyphname = asterisk;
layers = (
{
background = {
shapes = (
{
closed = 1;
nodes = (
(198,333,ls),
(236,385,o),
(252,416,o),
(280,459,c),
(307,415,o),
(327,385,o),
(353,339,cs),
(369,312,l),
(415,343,l),
(401,365,ls),
(369,415,o),
(342,439,o),
(304,483,c),
(360,496,o),
(387,507,o),
(444,521,cs),
(472,528,l),
(455,577,l),
(430,566,ls),
(378,543,o),
(349,539,o),
(296,514,c),
(302,580,o),
(306,615,o),
(306,684,cs),
(306,693,l),
(254,693,l),
(254,685,ls),
(254,612,o),
(257,576,o),
(264,514,c),
(216,533,o),
(190,533,o),
(142,555,cs),
(97,576,l),
(82,526,l),
(128,514,ls),
(178,500,o),
(202,495,o),
(253,481,c),
(214,436,o),
(217,439,o),
(165,374,cs),
(141,344,l),
(183,312,l)
);
}
);
};
layerId = "48496069-D3C9-4C2F-94CE-920A20E77C3C";
shapes = (
{
closed = 1;
nodes = (
(185,308,l),
(229,368,o),
(258,412,o),
(280,458,c),
(304,411,o),
(331,369,o),
(375,308,c),
(388,290,l),
(420,313,l),
(409,329,l),
(364,393,o),
(334,427,o),
(298,469,c),
(391,493,o),
(405,495,o),
(466,515,c),
(487,522,l),
(473,561,l),
(452,554,l),
(383,530,o),
(339,513,o),
(291,493,c),
(299,548,o),
(300,589,o),
(300,667,c),
(300,693,l),
(260,693,l),
(260,666,l),
(260,588,o),
(261,548,o),
(269,493,c),
(216,515,o),
(187,527,o),
(112,553,c),
(87,561,l),
(73,522,l),
(98,514,l),
(162,493,o),
(183,489,o),
(262,469,c),
(225,426,o),
(199,396,o),
(155,334,c),
(141,313,l),
(172,290,l)
);
}
);
width = 560;
},
{
associatedMasterId = "48496069-D3C9-4C2F-94CE-920A20E77C3C";
layerId = "396D8F7C-53FB-402A-B03C-0285F7BC6B0A";
name = "Nov 17, 22, 16:43";
shapes = (
{
closed = 1;
nodes = (
(438,339,l),
(438,338,ls),
(405,389,o),
(361,429,o),
(317,471,c),
(377,479,o),
(433,490,o),
(492,506,cs),
(491,507,l),
(465,588,l),
(465,587,ls),
(409,566,o),
(357,544,o),
(304,515,c),
(314,574,o),
(324,631,o),
(324,693,cs),
(324,693,l),
(238,693,l),
(238,693,ls),
(238,631,o),
(247,574,o),
(258,515,c),
(204,543,o),
(154,565,o),
(95,588,cs),
(94,588,l),
(68,507,l),
(68,506,ls),
(126,487,o),
(183,480,o),
(243,470,c),
(199,429,o),
(159,390,o),
(122,339,cs),
(121,339,l),
(191,289,l),
(191,288,ls),
(229,337,o),
(254,390,o),
(281,442,c),
(307,390,o),
(331,338,o),
(366,288,cs),
(367,288,l)
);
}
);
width = 560;
}
);
unicode = 42;
},
{
color = 5;
glyphname = plus;
layers = (
{
background = {
shapes = (
{
closed = 1;
nodes = (
(294,55,l),
(294,277,l),
(499,277,l),
(499,313,l),
(294,313,l),
(294,535,l),
(264,535,l),
(264,313,l),
(64,313,l),
(64,277,l),
(264,277,l),
(264,55,l)
);
}
);
};
layerId = "48496069-D3C9-4C2F-94CE-920A20E77C3C";
shapes = (
{
closed = 1;
nodes = (
(298,44,l),
(298,273,l),
(503,273,l),
(503,305,l),
(298,305,l),
(298,534,l),
(262,534,l),
(262,305,l),
(57,305,l),
(57,273,l),
(262,273,l),
(262,44,l)
);
}
);
width = 560;
}
);
unicode = 43;
},
{
color = 5;
glyphname = comma;
layers = (
{
background = {
shapes = (
{
closed = 1;
nodes = (
(311,-137,o),
(372,-33,o),
(372,35,cs),
(372,86,o),
(350,112,o),
(309,112,cs),
(290,112,o),
(255,96,o),
(255,52,cs),
(255,11,o),
(279,-19,o),
(342,-5,c),
(342,33,l),
(327,-74,o),
(256,-109,o),
(179,-124,c),
(185,-151,l)
);
}
);
};
layerId = "48496069-D3C9-4C2F-94CE-920A20E77C3C";
shapes = (
{
closed = 1;
nodes = (
(311,-137,o),
(372,-33,o),
(372,35,cs),
(372,84,o),
(350,112,o),
(309,112,cs),
(280,112,o),
(255,85,o),
(255,52,cs),
(255,13,o),
(277,-16,o),
(333,-7,c),
(308,-83,o),
(246,-111,o),
(179,-124,c),
(185,-151,l)
);
}
);
width = 560;
},
{
associatedMasterId = "48496069-D3C9-4C2F-94CE-920A20E77C3C";
layerId = "8973676B-F5CB-4145-91B7-8711979DA0A9";
name = "8 Jan 23 19:49";
shapes = (
{
closed = 1;
nodes = (
(311,-137,o),
(372,-33,o),
(372,35,cs),
(372,86,o),
(350,112,o),
(309,112,cs),
(290,112,o),
(255,96,o),
(255,52,cs),
(255,11,o),
(279,-19,o),
(342,-5,c),
(342,33,l),
(327,-74,o),
(256,-109,o),
(179,-124,c),
(185,-151,l)
);
}
);
width = 560;
},
{
associatedMasterId = "48496069-D3C9-4C2F-94CE-920A20E77C3C";
layerId = "CF85F6A3-B9BE-4ACC-9B41-77FB6A4288F1";
name = "8 Jan 23 19:49.background";
shapes = (
{
closed = 1;
nodes = (
(323,-136,o),
(395,-31,o),
(395,33,cs),
(395,70,o),
(378,117,o),
(332,117,cs),
(311,117,o),
(273,95,o),
(273,36,cs),
(273,27,o),
(275,-6,o),
(315,-9,c),
(295,-71,o),
(249,-86,o),
(201,-96,c),
(214,-148,l)
);
}
);
width = 0;
}
);
unicode = 44;
},
{
color = 5;
glyphname = hyphen;
layers = (
{
layerId = "48496069-D3C9-4C2F-94CE-920A20E77C3C";
shapes = (
{
closed = 1;
nodes = (
(385,267,l),
(385,297,l),
(175,297,l),
(175,267,l)
);
}
);
width = 560;
}
);
unicode = 45;
},
{
color = 5;
glyphname = period;
layers = (
{
background = {
shapes = (
{
closed = 1;
nodes = (
(325,-14,o),
(340,31,o),
(340,51,cs),
(340,75,o),
(325,121,o),
(281,121,cs),
(236,121,o),
(221,76,o),
(221,51,cs),
(221,31,o),
(236,-14,o),
(281,-14,cs)
);
}
);
};
layerId = "48496069-D3C9-4C2F-94CE-920A20E77C3C";
shapes = (
{
closed = 1;
nodes = (
(316,-13,o),
(340,14,o),
(340,51,cs),
(340,87,o),
(316,112,o),
(281,112,cs),
(246,112,o),
(221,87,o),
(221,51,cs),
(221,14,o),
(246,-13,o),
(281,-13,cs)
);
}
);
width = 560;
}
);
unicode = 46;
},
{
color = 5;
glyphname = slash;
layers = (
{
layerId = "48496069-D3C9-4C2F-94CE-920A20E77C3C";
shapes = (
{
closed = 1;
nodes = (
(130,-185,l),
(465,783,l),
(430,783,l),
(95,-185,l)
);
}
);
width = 560;
}
);
unicode = 47;
},
{
color = 5;
glyphname = zero;
layers = (
{
background = {
shapes = (
{
closed = 1;
nodes = (
(410,-15,o),
(486,128,o),
(486,346,cs),
(486,565,o),
(410,709,o),
(279,709,cs),
(147,709,o),
(72,565,o),
(72,346,cs),
(72,127,o),
(154,-15,o),
(279,-15,cs)
);
},
{
closed = 1;
nodes = (
(145,20,o),
(126,205,o),
(126,346,cs),
(126,490,o),
(145,673,o),
(279,673,cs),
(412,673,o),
(432,493,o),
(432,346,cs),
(432,202,o),
(412,20,o),
(279,20,cs)
);
},
{
closed = 1;
nodes = (
(320,291,o),
(346,324,o),
(346,360,cs),
(346,395,o),
(320,430,o),
(282,430,cs),
(247,430,o),
(217,394,o),
(217,360,cs),
(217,325,o),
(247,291,o),
(282,291,cs)
);
}
);
};
layerId = "48496069-D3C9-4C2F-94CE-920A20E77C3C";
shapes = (
{
closed = 1;
nodes = (
(417,-14,o),
(493,117,o),
(493,346,cs),
(493,575,o),
(419,706,o),
(280,706,cs),
(141,706,o),
(67,575,o),
(67,346,cs),
(67,117,o),
(143,-14,o),
(280,-14,cs)
);
},
{
closed = 1;
nodes = (
(169,18,o),
(103,138,o),
(103,346,cs),
(103,557,o),
(169,674,o),
(280,674,cs),
(391,674,o),
(457,557,o),
(457,346,cs),
(457,138,o),
(391,18,o),
(280,18,cs)
);
},
{
closed = 1;
nodes = (
(319,291,o),
(346,320,o),
(346,360,cs),
(346,401,o),
(319,430,o),
(282,430,cs),
(244,430,o),
(217,401,o),
(217,360,cs),
(217,320,o),
(244,291,o),
(282,291,cs)
);
}
);
width = 560;
},
{
associatedMasterId = "48496069-D3C9-4C2F-94CE-920A20E77C3C";
layerId = "B01FC6A9-8A69-4AF3-93E5-8D748682123C";
name = "8 Jan 23 19:56";
shapes = (
{
closed = 1;
nodes = (
(410,-15,o),
(486,128,o),
(486,346,cs),
(486,565,o),
(410,709,o),
(279,709,cs),
(147,709,o),
(72,565,o),
(72,346,cs),
(72,127,o),
(154,-15,o),
(279,-15,cs)
);
},
{
closed = 1;
nodes = (
(145,20,o),
(126,205,o),
(126,346,cs),
(126,490,o),
(145,673,o),
(279,673,cs),
(412,673,o),
(432,493,o),
(432,346,cs),
(432,202,o),
(412,20,o),
(279,20,cs)
);
},
{
closed = 1;
nodes = (
(320,291,o),
(346,324,o),
(346,360,cs),
(346,395,o),
(320,430,o),
(282,430,cs),
(247,430,o),
(217,394,o),
(217,360,cs),
(217,325,o),
(247,291,o),
(282,291,cs)
);
}
);
width = 560;
},
{
associatedMasterId = "48496069-D3C9-4C2F-94CE-920A20E77C3C";
layerId = "CF950B54-B5AA-4602-BE38-C66B54A4491E";
name = "8 Jan 23 19:56.background";
shapes = (
{
closed = 1;
nodes = (
(410,-15,o),
(486,128,o),
(486,346,cs),
(486,565,o),
(410,709,o),
(279,709,cs),
(147,709,o),
(72,565,o),
(72,346,cs),
(72,127,o),
(154,-15,o),
(279,-15,cs)
);
},
{
closed = 1;
nodes = (
(145,20,o),
(126,205,o),
(126,346,cs),
(126,490,o),
(145,673,o),
(279,673,cs),
(412,673,o),
(432,493,o),
(432,346,cs),
(432,202,o),
(412,20,o),
(279,20,cs)
);
},
{
closed = 1;
nodes = (
(320,291,o),
(346,324,o),
(346,360,cs),
(346,395,o),
(320,430,o),
(282,430,cs),
(247,430,o),
(217,394,o),
(217,360,cs),
(217,325,o),
(247,291,o),
(282,291,cs)
);
}
);
width = 0;
}
);
unicode = 48;
},
{
color = 5;
glyphname = one;
layers = (
{
background = {
shapes = (
{
closed = 1;
nodes = (
(457,0,l),
(457,32,l),
(337,32,l),
(337,693,l),
(310,693,l),
(242,610,o),
(202,582,o),
(124,551,c),
(132,538,l),
(215,568,o),
(285,616,o),
(304,644,c),
(304,32,l),
(152,32,l),
(152,0,l)
);
}
);
};
layerId = "48496069-D3C9-4C2F-94CE-920A20E77C3C";
shapes = (
{
closed = 1;
nodes = (
(467,0,l),
(467,31,l),
(335,31,l),
(335,693,l),
(311,693,l),
(260,621,o),
(195,578,o),
(119,550,c),
(130,522,l),
(205,549,o),
(266,588,o),
(301,631,c),
(301,31,l),
(132,31,l),
(132,0,l)
);
}
);
width = 560;
}
);
unicode = 49;
},
{
color = 5;
glyphname = two;
layers = (
{
background = {
shapes = (
{
closed = 1;
nodes = (
(469,0,l),
(469,32,l),
(131,32,l),
(131,77,o),
(226,188,o),
(281,247,cs),
(370,343,o),
(446,432,o),
(446,523,cs),
(446,636,o),
(423,709,o),
(245,709,cs),
(125,709,o),
(67,623,o),
(88,638,c),
(105,612,l),
(91,588,o),
(141,675,o),
(262,675,cs),
(342,675,o),
(411,637,o),
(411,529,cs),
(411,426,o),
(340,357,o),
(270,283,cs),
(180,189,o),
(98,107,o),
(98,-11,cs),
(98,-14,o),
(102,-1,o),
(98,0,c)
);
}
);
};
layerId = "48496069-D3C9-4C2F-94CE-920A20E77C3C";
shapes = (
{
closed = 1;
nodes = (
(483,0,l),
(483,31,l),
(140,31,l),
(140,130,o),
(225,207,o),
(304,279,cs),
(418,382,o),
(457,443,o),
(457,525,cs),
(457,640,o),
(387,706,o),
(266,706,cs),
(205,706,o),
(131,676,o),
(91,630,c),
(111,605,l),
(154,648,o),
(210,674,o),
(269,674,cs),
(369,674,o),
(421,622,o),
(421,522,cs),
(421,451,o),
(389,399,o),
(282,303,cs),
(193,224,o),
(105,145,o),
(105,24,cs),
(105,17,o),
(105,12,o),
(106,0,c)
);
}
);
width = 560;
}
);
unicode = 50;
},
{
color = 5;
glyphname = three;
layers = (
{
background = {
shapes = (
{
closed = 1;
nodes = (
(406,-15,o),
(477,71,o),
(477,182,cs),
(477,299,o),
(401,363,o),
(324,376,c),
(390,403,o),
(444,450,o),
(444,546,cs),
(444,640,o),
(393,709,o),
(263,709,cs),
(194,709,o),
(129,683,o),
(111,665,c),
(126,633,l),
(151,646,o),
(177,673,o),
(253,673,cs),
(326,673,o),
(409,646,o),
(409,538,cs),
(409,414,o),
(304,390,o),
(227,390,cs),
(219,390,l),
(219,365,l),
(218,365,ls),
(322,364,o),
(442,321,o),
(442,184,cs),
(442,79,o),
(382,21,o),
(237,21,cs),
(161,21,o),
(114,47,o),
(100,53,c),
(94,17,l),
(98,15,o),
(170,-15,o),
(239,-15,cs)
);
}
);
};
layerId = "48496069-D3C9-4C2F-94CE-920A20E77C3C";
shapes = (
{
closed = 1;
nodes = (
(392,-15,o),
(471,65,o),
(471,188,cs),
(471,287,o),
(421,350,o),
(309,374,c),
(392,393,o),
(436,452,o),
(436,536,cs),
(436,645,o),
(368,706,o),
(249,706,cs),
(189,706,o),
(135,688,o),
(92,656,c),
(108,628,l),
(151,659,o),
(199,674,o),
(246,674,cs),
(345,674,o),
(400,623,o),
(400,531,cs),
(400,439,o),
(335,386,o),
(222,386,cs),
(211,386,l),
(211,356,l),
(219,356,l),
(363,354,o),
(435,297,o),
(435,184,cs),
(435,65,o),
(336,17,o),
(236,17,cs),
(180,17,o),
(126,31,o),
(83,55,c),
(73,22,l),
(120,-2,o),
(178,-15,o),
(235,-15,cs)
);
}
);
width = 560;
}
);
unicode = 51;
},
{
color = 5;
glyphname = four;
layers = (
{
background = {
shapes = (
{
closed = 1;
nodes = (
(416,0,l),
(416,194,l),
(505,194,l),
(505,223,l),
(416,223,l),
(416,693,l),
(370,693,l),
(233,554,o),
(98,327,o),
(57,210,c),
(57,194,l),
(390,194,l),
(390,0,l)
);
},
{
closed = 1;
nodes = (
(161,377,o),
(274,553,o),
(390,665,c),
(390,223,l),
(93,223,l)
);
}
);
};
layerId = "48496069-D3C9-4C2F-94CE-920A20E77C3C";
shapes = (
{
closed = 1;
nodes = (
(413,0,l),
(413,194,l),
(503,194,l),
(503,225,l),
(413,225,l),
(413,693,l),
(375,693,l),
(249,567,o),
(111,357,o),
(59,214,c),
(59,194,l),
(379,194,l),
(379,0,l)
);
},
{
closed = 1;
nodes = (
(145,354,o),
(277,547,o),
(379,654,c),
(379,225,l),
(97,225,l)
);
}
);
width = 560;
}
);
unicode = 52;
},
{
color = 5;
glyphname = five;
layers = (
{
background = {
shapes = (
{
closed = 1;
nodes = (
(427,-15,o),
(483,65,o),
(483,181,cs),
(483,330,o),
(389,405,o),
(188,409,c),
(197,459,o),
(205,631,o),
(208,661,c),
(473,661,l),
(473,693,l),
(170,693,l),
(165,567,o),
(168,513,o),
(148,372,c),
(366,372,o),
(449,309,o),
(449,176,cs),
(449,87,o),
(392,21,o),
(263,21,cs),
(195,21,o),
(144,48,o),
(127,57,c),
(122,21,l),
(131,15,o),
(200,-15,o),
(266,-15,cs)
);
}
);
};
layerId = "48496069-D3C9-4C2F-94CE-920A20E77C3C";
shapes = (
{
closed = 1;
nodes = (
(393,-15,o),
(476,61,o),
(476,194,cs),
(476,339,o),
(366,404,o),
(177,407,c),
(185,492,o),
(196,607,o),
(196,662,c),
(452,662,l),
(452,693,l),
(163,693,l),
(163,597,o),
(156,534,o),
(140,376,c),
(351,376,o),
(440,319,o),
(440,194,cs),
(440,78,o),
(372,17,o),
(243,17,cs),
(192,17,o),
(126,35,o),
(94,54,c),
(83,21,l),
(119,-1,o),
(190,-15,o),
(245,-15,cs)
);
}
);
width = 560;
}
);
unicode = 53;
},
{
color = 5;
glyphname = six;
layers = (
{
background = {
shapes = (
{
closed = 1;
nodes = (
(431,-15,o),
(489,104,o),
(489,198,cs),
(489,298,o),
(443,404,o),
(294,404,cs),
(227,404,o),
(165,389,o),
(110,365,c),
(146,584,o),
(241,662,o),
(442,666,c),
(434,696,l),
(199,687,o),
(73,537,o),
(73,273,cs),
(73,113,o),
(143,-15,o),
(289,-15,cs)
);
},
{
closed = 1;
nodes = (
(154,11,o),
(117,133,o),
(117,287,cs),
(117,302,o),
(116,320,o),
(117,337,c),
(183,362,o),
(226,375,o),
(293,375,cs),
(391,375,o),
(447,313,o),
(447,196,cs),
(447,116,o),
(408,11,o),
(291,11,cs)
);
}
);
};
layerId = "48496069-D3C9-4C2F-94CE-920A20E77C3C";
shapes = (
{
closed = 1;
nodes = (
(419,-15,o),
(491,66,o),
(491,198,cs),
(491,335,o),
(424,412,o),
(301,412,cs),
(245,412,o),
(178,395,o),
(130,364,c),
(149,549,o),
(250,646,o),
(453,666,c),
(450,696,l),
(212,678,o),
(90,543,o),
(90,274,cs),
(90,82,o),
(161,-15,o),
(300,-15,cs)
);
},
{
closed = 1;
nodes = (
(186,17,o),
(126,103,o),
(126,270,cs),
(126,310,o),
(126,319,o),
(127,328,c),
(178,363,o),
(239,380,o),
(299,380,cs),
(400,380,o),
(455,316,o),
(455,196,cs),
(455,81,o),
(399,17,o),
(299,17,cs)
);
}
);
width = 560;
}
);
unicode = 54;
},
{
color = 5;
glyphname = seven;
layers = (
{
layerId = "48496069-D3C9-4C2F-94CE-920A20E77C3C";
shapes = (
{
closed = 1;
nodes = (
(241,0,l),
(255,229,o),
(378,517,o),
(492,661,c),
(492,693,l),
(93,693,l),
(93,662,l),
(456,662,l),
(349,532,o),
(219,222,o),
(206,0,c)
);
}
);
width = 560;
}
);
unicode = 55;
},
{
color = 5;
glyphname = eight;
layers = (
{
background = {
shapes = (
{
closed = 1;
nodes = (
(392,-15,o),
(478,30,o),
(478,181,cs),
(478,281,o),
(433,338,o),
(369,358,c),
(400,382,o),
(466,432,o),
(466,529,cs),
(466,570,o),
(446,708,o),
(276,708,cs),
(200,708,o),
(92,649,o),
(92,535,cs),
(92,440,o),
(133,379,o),
(197,353,c),
(152,330,o),
(78,265,o),
(78,176,cs),
(78,127,o),
(71,-15,o),
(282,-15,cs)
);
},
{
closed = 1;
nodes = (
(132,14,o),
(120,122,o),
(120,153,cs),
(120,259,o),
(166,311,o),
(248,344,c),
(349,342,o),
(439,281,o),
(439,165,cs),
(439,97,o),
(403,14,o),
(280,14,cs)
);
},
{
closed = 1;
nodes = (
(183,369,o),
(131,470,o),
(131,539,cs),
(131,580,o),
(150,678,o),
(280,678,cs),
(406,678,o),
(429,569,o),
(429,545,cs),
(429,425,o),
(367,390,o),
(303,361,c)
);
}
);
};
layerId = "48496069-D3C9-4C2F-94CE-920A20E77C3C";
shapes = (
{
closed = 1;
nodes = (
(403,-15,o),
(484,60,o),
(484,172,cs),
(484,251,o),
(440,308,o),
(351,343,c),
(424,384,o),
(468,453,o),
(468,529,cs),
(468,636,o),
(397,706,o),
(281,706,cs),
(164,706,o),
(92,637,o),
(92,528,cs),
(92,455,o),
(127,403,o),
(207,364,c),
(112,317,o),
(76,263,o),
(76,172,cs),
(76,56,o),
(157,-15,o),
(281,-15,cs)
);
},
{
closed = 1;
nodes = (
(177,17,o),
(112,78,o),
(112,174,cs),
(112,255,o),
(156,314,o),
(244,349,c),
(346,315,o),
(448,283,o),
(448,174,cs),
(448,78,o),
(382,17,o),
(281,17,cs)
);
},
{
closed = 1;
nodes = (
(182,404,o),
(128,442,o),
(128,527,cs),
(128,616,o),
(189,674,o),
(281,674,cs),
(378,674,o),
(432,622,o),
(432,529,cs),
(432,458,o),
(394,400,o),
(317,355,c)
);
}
);
width = 560;
},
{
associatedMasterId = "48496069-D3C9-4C2F-94CE-920A20E77C3C";
layerId = "B61B0C69-A04D-4D5E-8B06-CBB9F48EA591";
name = "8 Jan 23 20:19";
shapes = (
{
closed = 1;
nodes = (
(392,-15,o),
(478,30,o),
(478,181,cs),
(478,281,o),
(433,338,o),
(369,358,c),
(400,382,o),
(466,432,o),
(466,529,cs),
(466,570,o),
(446,708,o),
(276,708,cs),
(200,708,o),
(92,649,o),
(92,535,cs),
(92,440,o),
(133,379,o),
(197,353,c),
(152,330,o),
(78,265,o),
(78,176,cs),
(78,127,o),
(71,-15,o),
(282,-15,cs)
);
},
{
closed = 1;
nodes = (
(132,14,o),
(120,122,o),
(120,153,cs),
(120,259,o),
(166,311,o),
(248,344,c),
(349,342,o),
(439,281,o),
(439,165,cs),
(439,97,o),
(403,14,o),
(280,14,cs)
);
},
{
closed = 1;
nodes = (
(183,369,o),
(131,470,o),
(131,539,cs),
(131,580,o),
(150,678,o),
(280,678,cs),
(406,678,o),
(429,569,o),
(429,545,cs),
(429,425,o),
(367,390,o),
(303,361,c)
);
}
);
width = 560;
},
{
associatedMasterId = "48496069-D3C9-4C2F-94CE-920A20E77C3C";
layerId = "79DDD67E-42F5-47DD-802F-057312AF6D6C";
name = "8 Jan 23 20:19.background";
shapes = (
{
closed = 1;
nodes = (
(392,-15,o),
(478,30,o),
(478,181,cs),
(478,281,o),
(433,338,o),
(369,358,c),
(400,382,o),
(466,432,o),
(466,529,cs),
(466,570,o),
(446,708,o),
(276,708,cs),
(200,708,o),
(92,649,o),
(92,535,cs),
(92,440,o),
(133,379,o),
(197,353,c),
(152,330,o),
(78,265,o),
(78,176,cs),
(78,127,o),
(71,-15,o),
(282,-15,cs)
);
},
{
closed = 1;
nodes = (
(132,14,o),
(120,122,o),
(120,153,cs),
(120,259,o),
(166,311,o),
(248,344,c),
(349,342,o),
(439,281,o),
(439,165,cs),
(439,97,o),
(403,14,o),
(280,14,cs)
);
},
{
closed = 1;
nodes = (
(183,369,o),
(131,470,o),
(131,539,cs),
(131,580,o),
(150,678,o),
(280,678,cs),
(406,678,o),
(429,569,o),
(429,545,cs),
(429,425,o),
(367,390,o),
(303,361,c)
);
}
);
width = 0;
}
);
unicode = 56;
},
{
color = 5;
glyphname = nine;
layers = (
{
background = {
shapes = (
{
closed = 1;
nodes = (
(378,0,o),
(483,130,o),
(483,419,cs),
(483,597,o),
(413,706,o),
(266,706,cs),
(120,706,o),
(69,589,o),
(69,496,cs),
(69,394,o),
(114,293,o),
(263,293,cs),
(338,293,o),
(403,308,o),
(446,331,c),
(423,99,o),
(318,22,o),
(96,25,c),
(98,-2,l)
);
},
{
closed = 1;
nodes = (
(165,321,o),
(111,378,o),
(111,498,cs),
(111,560,o),
(150,678,o),
(265,678,cs),
(408,678,o),
(441,564,o),
(441,395,cs),
(441,380,o),
(441,375,o),
(439,357,c),
(376,331,o),
(330,321,o),
(262,321,cs)
);
}
);
};
layerId = "48496069-D3C9-4C2F-94CE-920A20E77C3C";
shapes = (
{
closed = 1;
nodes = (
(336,1,o),
(476,139,o),
(476,420,cs),
(476,611,o),
(407,706,o),
(270,706,cs),
(150,706,o),
(78,626,o),
(78,493,cs),
(78,360,o),
(148,283,o),
(269,283,cs),
(325,283,o),
(390,301,o),
(435,329,c),
(416,142,o),
(304,33,o),
(103,28,c),
(104,-2,l)
);
},
{
closed = 1;
nodes = (
(170,315,o),
(114,379,o),
(114,495,cs),
(114,611,o),
(170,674,o),
(271,674,cs),
(384,674,o),
(440,590,o),
(440,422,cs),
(440,399,o),
(439,380,o),
(438,365,c),
(375,329,o),
(328,315,o),
(271,315,cs)
);
}
);
width = 560;
}
);
unicode = 57;
},
{
color = 5;
glyphname = less;
layers = (
{
background = {
shapes = (
{
closed = 1;
nodes = (
(500,105,l),
(102,283,l),
(500,457,l),
(491,479,l),
(66,292,l),
(66,270,l),
(491,84,l)
);
}
);
};
layerId = "48496069-D3C9-4C2F-94CE-920A20E77C3C";
shapes = (
{
closed = 1;
nodes = (
(500,113,l),
(101,285,l),
(500,457,l),
(489,487,l),
(61,302,l),
(61,269,l),
(489,83,l)
);
}
);
width = 560;
}
);
unicode = 60;
},
{
color = 5;
glyphname = equal;
layers = (
{
layerId = "48496069-D3C9-4C2F-94CE-920A20E77C3C";
shapes = (
{
closed = 1;
nodes = (
(503,377,l),
(503,409,l),
(57,409,l),
(57,377,l)
);
},
{
closed = 1;
nodes = (
(503,169,l),
(503,201,l),
(57,201,l),
(57,169,l)
);
}
);
width = 560;
}
);
unicode = 61;
},
{
color = 5;
glyphname = greater;
layers = (
{
layerId = "48496069-D3C9-4C2F-94CE-920A20E77C3C";
shapes = (
{
closed = 1;
nodes = (
(499,269,l),
(499,302,l),
(71,487,l),
(60,457,l),
(459,285,l),
(60,113,l),
(71,83,l)
);
}
);
width = 560;
}
);
unicode = 62;
},
{
color = 5;
glyphname = question;
layers = (
{
background = {
shapes = (
{
closed = 1;
nodes = (
(264,189,l),
(261,206,o),
(261,227,o),
(261,244,cs),
(261,389,o),
(434,414,o),
(434,559,cs),
(434,650,o),
(366,706,o),
(258,706,cs),
(215,706,o),
(158,695,o),
(130,678,c),
(142,648,l),
(169,663,o),
(216,674,o),
(256,674,cs),
(348,674,o),
(398,631,o),
(398,553,cs),
(398,430,o),
(227,413,o),
(227,237,cs),
(227,221,o),
(229,202,o),
(232,189,c)
);
},
{
closed = 1;
nodes = (
(276,-13,o),
(295,9,o),
(295,36,cs),
(295,65,o),
(276,86,o),
(247,86,cs),
(218,86,o),
(199,65,o),
(199,36,cs),
(199,9,o),
(218,-13,o),
(247,-13,cs)
);
}
);
};
layerId = "48496069-D3C9-4C2F-94CE-920A20E77C3C";
shapes = (
{
closed = 1;
nodes = (
(259,189,l),
(259,425,o),
(434,400,o),
(434,559,cs),
(434,650,o),
(366,706,o),
(258,706,cs),
(215,706,o),
(158,695,o),
(130,678,c),
(142,648,l),
(169,663,o),
(216,674,o),
(256,674,cs),
(348,674,o),
(398,631,o),
(398,553,cs),
(398,430,o),
(227,413,o),
(227,212,cs),
(227,205,o),
(228,197,o),
(228,189,c)
);
},
{
closed = 1;
nodes = (
(276,-13,o),
(295,9,o),
(295,36,cs),
(295,65,o),
(276,86,o),
(247,86,cs),
(218,86,o),
(199,65,o),
(199,36,cs),
(199,9,o),
(218,-13,o),
(247,-13,cs)
);
}
);
width = 560;
}
);
unicode = 63;
},
{
color = 5;
glyphname = at;
layers = (
{
background = {
shapes = (
{
closed = 1;
nodes = (
(388,-151,o),
(424,-144,o),
(444,-136,c),
(441,-106,l),
(416,-115,o),
(388,-119,o),
(365,-119,cs),
(198,-119,o),
(100,27,o),
(100,275,cs),
(100,528,o),
(177,677,o),
(307,677,cs),
(399,677,o),
(462,601,o),
(462,451,c),
(483,456,l),
(454,466,o),
(435,469,o),
(408,469,cs),
(298,469,o),
(226,391,o),
(226,250,cs),
(226,129,o),
(300,60,o),
(386,60,cs),
(427,60,o),
(460,64,o),
(497,81,c),
(497,461,ls),
(497,612,o),
(436,709,o),
(310,709,cs),
(155,709,o),
(64,548,o),
(64,275,cs),
(64,7,o),
(175,-151,o),
(364,-151,cs)
);
},
{
closed = 1;
nodes = (
(309,92,o),
(262,151,o),
(262,250,cs),
(262,371,o),
(312,437,o),
(403,437,cs),
(427,437,o),
(446,436,o),
(475,426,c),
(462,447,l),
(462,87,l),
(479,105,l),
(445,94,o),
(423,92,o),
(388,92,cs)
);
}
);
};
layerId = "48496069-D3C9-4C2F-94CE-920A20E77C3C";
shapes = (
{
closed = 1;
nodes = (
(389,-151,o),
(425,-144,o),
(445,-136,c),
(442,-106,l),
(417,-115,o),
(389,-119,o),
(366,-119,cs),
(199,-119,o),
(101,27,o),
(101,275,cs),
(101,528,o),
(178,677,o),
(308,677,cs),
(397,677,o),
(463,608,o),
(463,471,cs),
(463,468,l),
(444,472,o),
(429,474,o),
(409,474,cs),
(299,474,o),
(227,398,o),
(227,260,cs),
(227,126,o),
(301,50,o),
(387,50,cs),
(428,50,o),
(461,54,o),
(498,71,c),
(498,466,ls),
(498,614,o),
(437,709,o),
(311,709,cs),
(156,709,o),
(65,548,o),
(65,275,cs),
(65,7,o),
(176,-151,o),
(365,-151,cs)
);
},
{
closed = 1;
nodes = (
(310,82,o),
(263,148,o),
(263,260,cs),
(263,378,o),
(313,442,o),
(404,442,cs),
(424,442,o),
(441,441,o),
(463,435,c),
(463,90,l),
(438,83,o),
(418,82,o),
(389,82,cs)
);
}
);
width = 560;
},
{
associatedMasterId = "48496069-D3C9-4C2F-94CE-920A20E77C3C";
layerId = "F6460014-1FA6-4EFC-807A-BEA818454495";
name = "8 Jan 23 20:37";
shapes = (
{
closed = 1;
nodes = (
(405,-151,o),
(441,-144,o),
(461,-136,c),
(458,-106,l),
(433,-115,o),
(405,-119,o),
(382,-119,cs),
(215,-119,o),
(117,27,o),
(117,275,cs),
(117,528,o),
(198,677,o),
(334,677,cs),
(438,677,o),
(487,593,o),
(485,422,c),
(484,513,l),
(484,422,l),
(512,469,l),
(483,464,o),
(460,469,o),
(425,469,cs),
(340,469,o),
(233,429,o),
(233,250,cs),
(233,129,o),
(309,60,o),
(398,60,cs),
(443,60,o),
(472,64,o),
(519,83,c),
(519,461,ls),
(519,612,o),
(451,709,o),
(337,709,cs),
(176,709,o),
(81,548,o),
(81,275,cs),
(81,7,o),
(192,-151,o),
(381,-151,cs)
);
},
{
closed = 1;
nodes = (
(279,92,o),
(269,250,o),
(269,250,cs),
(269,385,o),
(343,437,o),
(425,437,cs),
(457,437,o),
(479,432,o),
(520,420,c),
(484,475,l),
(484,57,l),
(513,95,l),
(478,112,o),
(435,92,o),
(400,92,cs)
);
}
);
width = 560;
},
{
associatedMasterId = "48496069-D3C9-4C2F-94CE-920A20E77C3C";
layerId = "65037EBC-27D3-4C34-8913-BC2FA7A77E8F";
name = "8 Jan 23 20:37.background";
shapes = (
{
closed = 1;
nodes = (
(363,-151,o),
(410,-144,o),
(430,-136,c),
(425,-89,l),
(365,-106,o),
(346,-104,o),
(371,-104,cs),
(238,-104,o),
(155,137,o),
(155,301,cs),
(155,533,o),
(218,659,o),
(329,659,cs),
(420,659,o),
(462,594,o),
(469,463,c),
(469,462,l),
(465,462,o),
(461,464,o),
(456,464,cs),
(357,464,o),
(233,425,o),
(233,268,cs),
(233,129,o),
(309,60,o),
(398,60,cs),
(443,60,o),
(472,64,o),
(519,83,c),
(519,461,ls),
(519,581,o),
(462,709,o),
(322,709,cs),
(179,709,o),
(81,554,o),
(81,264,cs),
(81,205,o),
(111,-151,o),
(352,-151,cs)
);
},
{
closed = 1;
nodes = (
(297,83,o),
(288,199,o),
(288,260,cs),
(288,385,o),
(353,437,o),
(425,437,cs),
(441,437,o),
(453,435,o),
(469,430,c),
(469,92,l),
(449,84,o),
(428,83,o),
(410,83,cs)
);
}
);
width = 0;
}
);
unicode = 64;
},
{
color = 5;
glyphname = A;
layers = (
{
anchors = (
{
name = bottom;
pos = (280,0);
},
{
name = ogonek;
pos = (499,11);
},
{
name = top;
pos = (280,776);
}
);
background = {
shapes = (
{
closed = 1;
nodes = (
(97,207,l),
(457,207,l),
(445,238,l),
(110,238,l)
);
},
{
closed = 1;
nodes = (
(422,267,o),
(508,0,c),
(546,0,l),
(446,305,o),
(387,469,o),
(294,693,c),
(264,693,l),
(169,458,o),
(94,242,o),
(14,0,c),
(51,0,l),
(138,258,o),
(212,470,o),
(278,645,c),
(389,359,o)
);
}
);
};
layerId = "48496069-D3C9-4C2F-94CE-920A20E77C3C";
shapes = (
{
closed = 1;
nodes = (
(52,0,l),
(120,207,l),
(440,207,l),
(507,0,l),
(546,0,l),
(446,305,o),
(387,469,o),
(294,693,c),
(264,693,l),
(169,458,o),
(94,242,o),
(14,0,c)
);
},
{
closed = 1;
nodes = (
(184,392,o),
(234,527,o),
(278,645,c),
(349,462,o),
(388,359,o),
(429,238,c),
(131,238,l)
);
}
);
width = 560;
},
{
anchors = (
{
name = bottom;
pos = (280,0);
},
{
name = ogonek;
pos = (499,11);
},
{
name = top;
pos = (280,776);
}
);
associatedMasterId = "48496069-D3C9-4C2F-94CE-920A20E77C3C";
layerId = "611AB948-2D47-45CB-8404-9E0499731CFA";
name = "8 Jan 23 12:02";
shapes = (
{
closed = 0;
nodes = (
(127,104,l),
(487,104,l)
);
},
{
closed = 0;
nodes = (
(140,238,l),
(201,402,o),
(235,479,o),
(306,649,c),
(379,479,o),
(411,405,o),
(475,238,c)
);
},
{
closed = 0;
nodes = (
(487,204,l),
(512,136,o),
(538,68,o),
(563,0,c),
(603,0,l),
(491,305,o),
(425,469,o),
(321,693,c),
(293,693,l),
(187,458,o),
(103,242,o),
(14,0,c),
(52,0,l),
(77,68,o),
(102,136,o),
(127,204,c)
);
},
{
closed = 0;
nodes = (
(475,138,l),
(140,138,l)
);
}
);
width = 560;
},
{
associatedMasterId = "48496069-D3C9-4C2F-94CE-920A20E77C3C";
layerId = "312EABC2-CF15-4470-8F4D-7037F44349BD";
name = "8 Jan 23 12:02.background";
shapes = (
{
closed = 1;
nodes = (
(46,0,l),
(96,207,l),
(458,207,l),
(510,0,l),
(544,0,l),
(505,110,o),
(427,447,o),
(316,693,c),
(247,693,l),
(131,447,o),
(49,100,o),
(15,0,c)
);
},
{
closed = 1;
nodes = (
(171,409,o),
(239,602,o),
(279,682,c),
(315,613,o),
(386,410,o),
(441,237,c),
(113,237,l)
);
}
);
width = 0;
}
);
unicode = 65;
},
{
color = 5;
glyphname = B;
layers = (
{
anchors = (
{
name = bottom;
pos = (280,0);
},
{
name = center;
pos = (280,389);
},
{
name = top;
pos = (280,776);
}
);
background = {
shapes = (
{
closed = 1;
nodes = (
(438,-2,o),
(475,94,o),
(475,195,cs),
(475,317,o),
(380,362,o),
(328,369,c),
(386,378,o),
(444,455,o),
(444,519,cs),
(444,718,o),
(263,699,o),
(213,699,cs),
(185,699,o),
(101,700,o),
(64,682,c),
(64,11,l),
(84,1,o),
(159,-2,o),
(199,-2,cs)
);
},
{
closed = 1;
nodes = (
(125,22,o),
(80,27,o),
(97,26,c),
(97,350,l),
(214,350,l),
(320,350,o),
(439,320,o),
(439,193,cs),
(439,62,o),
(327,22,o),
(199,22,cs)
);
},
{
closed = 1;
nodes = (
(97,670,l),
(106,672,o),
(147,674,o),
(201,674,cs),
(309,674,o),
(407,621,o),
(407,520,cs),
(407,396,o),
(276,378,o),
(193,378,cs),
(97,378,l)
);
}
);
};
layerId = "48496069-D3C9-4C2F-94CE-920A20E77C3C";
shapes = (
{
closed = 1;
nodes = (
(394,-4,o),
(483,69,o),
(483,191,cs),
(483,285,o),
(420,349,o),
(335,363,c),
(405,385,o),
(452,446,o),
(452,523,cs),
(452,641,o),
(378,697,o),
(235,697,cs),
(186,697,o),
(112,691,o),
(74,680,c),
(74,14,l),
(106,5,o),
(184,-4,o),
(235,-4,cs)
);
},
{
closed = 1;
nodes = (
(197,28,o),
(141,32,o),
(109,39,c),
(109,345,l),
(248,345,ls),
(378,345,o),
(447,291,o),
(447,189,cs),
(447,83,o),
(369,28,o),
(233,28,cs)
);
},
{
closed = 1;
nodes = (
(109,655,l),
(134,659,o),
(187,665,o),
(228,665,cs),
(354,665,o),
(416,621,o),
(416,523,cs),
(416,431,o),
(360,376,o),
(242,376,cs),
(109,376,l)
);
}
);
width = 560;
}
);
unicode = 66;
},
{
color = 5;
glyphname = C;
layers = (
{
anchors = (
{
name = bottom;
pos = (280,0);
},
{
name = top;
pos = (280,776);
}
);
background = {
shapes = (
{
closed = 1;
nodes = (
(384,-15,o),
(430,-15,o),
(498,24,c),
(486,58,l),
(410,18,o),
(366,19,o),
(350,19,cs),
(243,19,o),
(119,111,o),
(119,342,cs),
(119,496,o),
(178,675,o),
(343,675,cs),
(361,675,o),
(401,669,o),
(473,631,c),
(488,664,l),
(390,723,o),
(335,709,o),
(333,709,cs),
(209,709,o),
(84,590,o),
(84,347,cs),
(84,79,o),
(221,-15,o),
(342,-15,cs)
);
}
);
};
layerId = "48496069-D3C9-4C2F-94CE-920A20E77C3C";
shapes = (
{
closed = 1;
nodes = (
(402,-12,o),
(458,2,o),
(495,25,c),
(485,54,l),
(448,33,o),
(398,20,o),
(346,20,cs),
(210,20,o),
(117,151,o),
(117,347,cs),
(117,540,o),
(210,675,o),
(341,675,cs),
(393,675,o),
(440,658,o),
(472,637,c),
(486,666,l),
(450,691,o),
(401,707,o),
(341,707,cs),
(186,707,o),
(81,558,o),
(81,347,cs),
(81,132,o),
(183,-12,o),
(346,-12,cs)
);
}
);
width = 560;
}
);
unicode = 67;
},
{
color = 5;
glyphname = D;
layers = (
{
anchors = (
{
name = bottom;
pos = (280,0);
},
{
name = center;
pos = (280,389);
},
{
name = top;
pos = (280,776);
}
);
background = {
shapes = (
{
closed = 1;
nodes = (
(360,-2,o),
(492,92,o),
(492,347,cs),
(492,611,o),
(340,699,o),
(169,699,cs),
(130,699,o),
(96,690,o),
(64,682,c),
(64,15,l),
(103,5,o),
(150,-2,o),
(192,-2,cs)
);
},
{
closed = 1;
nodes = (
(160,27,o),
(131,29,o),
(97,33,c),
(97,667,l),
(115,669,o),
(133,670,o),
(166,670,cs),
(327,670,o),
(456,619,o),
(456,347,cs),
(456,77,o),
(336,27,o),
(193,27,cs)
);
}
);
};
layerId = "48496069-D3C9-4C2F-94CE-920A20E77C3C";
shapes = (
{
closed = 1;
nodes = (
(395,-4,o),
(500,126,o),
(500,347,cs),
(500,568,o),
(396,699,o),
(213,699,cs),
(162,699,o),
(102,693,o),
(72,682,c),
(72,12,l),
(109,3,o),
(170,-4,o),
(222,-4,cs)
);
},
{
closed = 1;
nodes = (
(178,28,o),
(136,31,o),
(107,36,c),
(107,658,l),
(136,663,o),
(176,667,o),
(213,667,cs),
(374,667,o),
(464,553,o),
(464,347,cs),
(464,147,o),
(376,28,o),
(222,28,cs)
);
}
);
width = 560;
}
);
unicode = 68;
},
{
color = 5;
glyphname = E;
layers = (
{
anchors = (
{
name = bottom;
pos = (280,0);
},
{
name = ogonek;
pos = (499,11);
},
{
name = top;
pos = (280,776);
},
{
name = topleft;
pos = (27,776);
}
);
layerId = "48496069-D3C9-4C2F-94CE-920A20E77C3C";
shapes = (
{
closed = 1;
nodes = (
(499,0,l),
(499,31,l),
(167,31,l),
(167,344,l),
(439,344,l),
(439,375,l),
(167,375,l),
(167,662,l),
(476,662,l),
(476,693,l),
(132,693,l),
(132,0,l)
);
}
);
width = 560;
}
);
unicode = 69;
},
{
color = 5;
glyphname = F;
layers = (
{
anchors = (
{
name = bottom;
pos = (280,0);
},
{
name = top;
pos = (280,776);
}
);
layerId = "48496069-D3C9-4C2F-94CE-920A20E77C3C";
shapes = (
{
closed = 1;
nodes = (
(178,0,l),
(178,351,l),
(455,351,l),
(455,382,l),
(178,382,l),
(178,662,l),
(490,662,l),
(490,693,l),
(143,693,l),
(143,0,l)
);
}
);
width = 560;
}
);
unicode = 70;
},
{
color = 5;
glyphname = G;
layers = (
{
anchors = (
{
name = bottom;
pos = (280,0);
},
{
name = top;
pos = (280,776);
}
);
background = {
shapes = (
{
closed = 1;
nodes = (
(415,-15,o),
(474,11,o),
(497,17,c),
(497,316,l),
(463,316,l),
(463,42,l),
(461,32,o),
(438,16,o),
(358,16,cs),
(203,16,o),
(119,177,o),
(119,347,cs),
(119,553,o),
(236,680,o),
(332,680,cs),
(383,680,o),
(427,661,o),
(464,630,c),
(486,664,l),
(473,677,o),
(434,709,o),
(342,709,cs),
(200,709,o),
(84,571,o),
(84,347,cs),
(84,127,o),
(194,-15,o),
(349,-15,cs)
);
}
);
};
layerId = "48496069-D3C9-4C2F-94CE-920A20E77C3C";
shapes = (
{
closed = 1;
nodes = (
(385,-15,o),
(444,1,o),
(482,20,c),
(482,318,l),
(447,318,l),
(447,38,l),
(420,27,o),
(375,17,o),
(320,17,cs),
(185,17,o),
(103,145,o),
(103,347,cs),
(103,538,o),
(192,677,o),
(320,677,cs),
(377,677,o),
(429,656,o),
(457,634,c),
(475,663,l),
(431,694,o),
(384,709,o),
(320,709,cs),
(171,709,o),
(67,561,o),
(67,347,cs),
(67,129,o),
(161,-15,o),
(320,-15,cs)
);
}
);
width = 560;
}
);
unicode = 71;
},
{
color = 5;
glyphname = H;
layers = (
{
anchors = (
{
name = bottom;
pos = (280,0);
},
{
name = center;
pos = (280,389);
},
{
name = top;
pos = (280,776);
},
{
name = topleft;
pos = (27,776);
}
);
background = {
shapes = (
{
closed = 1;
nodes = (
(87,0,l),
(87,345,l),
(472,345,l),
(472,0,l),
(505,0,l),
(505,693,l),
(472,693,l),
(472,376,l),
(87,376,l),
(87,693,l),
(54,693,l),
(54,0,l)
);
}
);
};
layerId = "48496069-D3C9-4C2F-94CE-920A20E77C3C";
shapes = (
{
closed = 1;
nodes = (
(90,0,l),
(90,345,l),
(470,345,l),
(470,0,l),
(505,0,l),
(505,693,l),
(470,693,l),
(470,376,l),
(90,376,l),
(90,693,l),
(55,693,l),
(55,0,l)
);
}
);
width = 560;
}
);
unicode = 72;
},
{
color = 5;
glyphname = I;
layers = (
{
anchors = (
{
name = bottom;
pos = (280,0);
},
{
name = ogonek;
pos = (499,11);
},
{
name = top;
pos = (280,776);
},
{
name = topleft;
pos = (27,776);
}
);
layerId = "48496069-D3C9-4C2F-94CE-920A20E77C3C";
shapes = (
{
closed = 1;
nodes = (
(407,0,l),
(407,31,l),
(297,31,l),
(298,662,l),
(408,662,l),
(407,693,l),
(153,693,l),
(153,662,l),
(263,662,l),
(262,31,l),
(152,31,l),
(152,0,l)
);
}
);
width = 560;
}
);
unicode = 73;
},
{
color = 5;
glyphname = J;
layers = (
{
anchors = (
{
name = bottom;
pos = (279,0);
},
{
name = top;
pos = (279,776);
}
);
background = {
shapes = (
{
closed = 1;
nodes = (
(412,-15,o),
(440,86,o),
(440,211,cs),
(440,693,l),
(172,693,l),
(172,661,l),
(410,661,l),
(410,223,ls),
(410,81,o),
(364,14,o),
(241,14,cs),
(166,14,o),
(112,47,o),
(96,64,c),
(80,33,l),
(87,25,o),
(156,-15,o),
(237,-15,cs)
);
}
);
};
layerId = "48496069-D3C9-4C2F-94CE-920A20E77C3C";
shapes = (
{
closed = 1;
nodes = (
(377,-10,o),
(440,64,o),
(440,217,cs),
(440,693,l),
(172,693,l),
(172,662,l),
(405,662,l),
(405,218,ls),
(405,82,o),
(354,22,o),
(241,22,cs),
(186,22,o),
(132,39,o),
(99,66,c),
(80,38,l),
(115,8,o),
(179,-10,o),
(241,-10,cs)
);
}
);
width = 560;
}
);
unicode = 74;
},
{
color = 5;
glyphname = K;
layers = (
{
anchors = (
{
name = bottom;
pos = (279,0);
},
{
name = top;
pos = (279,776);
}
);
background = {
shapes = (
{
closed = 1;
nodes = (
(136,0,l),
(136,352,l),
(275,282,o),
(384,183,o),
(508,0,c),
(547,0,l),
(458,172,o),
(304,294,o),
(206,365,c),
(320,475,o),
(414,553,o),
(523,693,c),
(481,693,l),
(367,574,o),
(265,474,o),
(136,358,c),
(136,693,l),
(103,693,l),
(103,0,l)
);
}
);
};
layerId = "48496069-D3C9-4C2F-94CE-920A20E77C3C";
shapes = (
{
closed = 1;
nodes = (
(129,0,l),
(129,345,l),
(243,290,o),
(412,130,o),
(502,0,c),
(542,0,l),
(450,148,o),
(289,289,o),
(172,361,c),
(276,444,o),
(422,590,o),
(520,693,c),
(476,693,l),
(398,607,o),
(241,456,o),
(129,366,c),
(129,693,l),
(94,693,l),
(94,0,l)
);
}
);
width = 560;
}
);
unicode = 75;
},
{
color = 5;
glyphname = L;
layers = (
{
anchors = (
{
name = bottom;
pos = (280,0);
},
{
name = center;
pos = (280,389);
},
{
name = top;
pos = (280,776);
},
{
name = topright;
pos = (532,776);
}
);
layerId = "48496069-D3C9-4C2F-94CE-920A20E77C3C";
shapes = (
{
closed = 1;
nodes = (
(510,0,l),
(510,31,l),
(168,31,l),
(168,693,l),
(133,693,l),
(133,0,l)
);
}
);
width = 560;
}
);
unicode = 76;
},
{
color = 5;
glyphname = M;
layers = (
{
anchors = (
{
name = bottom;
pos = (280,0);
},
{
name = top;
pos = (280,776);
}
);
background = {
shapes = (
{
closed = 1;
nodes = (
(90,0,l),
(101,256,o),
(120,473,o),
(143,657,c),
(131,647,l),
(182,524,o),
(230,388,o),
(262,284,c),
(296,284,l),
(340,414,o),
(389,550,o),
(429,645,c),
(417,652,l),
(443,471,o),
(457,254,o),
(470,0,c),
(508,0,l),
(493,263,o),
(477,476,o),
(446,693,c),
(418,693,l),
(355,550,o),
(314,435,o),
(268,290,c),
(292,298,l),
(255,402,o),
(207,550,o),
(144,693,c),
(114,693,l),
(83,476,o),
(69,260,o),
(52,0,c)
);
}
);
};
layerId = "48496069-D3C9-4C2F-94CE-920A20E77C3C";
shapes = (
{
closed = 1;
nodes = (
(88,0,l),
(99,242,o),
(119,449,o),
(139,627,c),
(262,284,l),
(296,284,l),
(421,627,l),
(445,451,o),
(460,242,o),
(473,0,c),
(508,0,l),
(493,263,o),
(477,476,o),
(446,693,c),
(418,693,l),
(364,563,o),
(322,457,o),
(281,330,c),
(245,431,o),
(196,563,o),
(144,693,c),
(114,693,l),
(84,472,o),
(68,260,o),
(52,0,c)
);
}
);
width = 560;
}
);
unicode = 77;
},
{
color = 5;
glyphname = N;
layers = (
{
anchors = (
{
name = bottom;
pos = (279,0);
},
{
name = top;
pos = (279,776);
}
);
background = {
shapes = (
{
closed = 1;
nodes = (
(113,0,l),
(113,660,l),
(102,645,l),
(219,451,o),
(353,206,o),
(450,0,c),
(482,0,l),
(482,693,l),
(447,693,l),
(447,31,l),
(457,61,l),
(381,226,o),
(248,467,o),
(112,693,c),
(78,693,l),
(78,0,l)
);
}
);
};
layerId = "48496069-D3C9-4C2F-94CE-920A20E77C3C";
shapes = (
{
closed = 1;
nodes = (
(113,0,l),
(113,627,l),
(227,436,o),
(356,200,o),
(450,0,c),
(482,0,l),
(482,693,l),
(447,693,l),
(447,82,l),
(370,246,o),
(242,477,o),
(112,693,c),
(78,693,l),
(78,0,l)
);
}
);
width = 560;
}
);
unicode = 78;
},
{
color = 5;
glyphname = O;
layers = (
{
anchors = (
{
name = bottom;
pos = (280,0);
},
{
name = center;
pos = (280,389);
},
{
name = ogonek;
pos = (499,11);
},
{
name = top;
pos = (280,776);
},
{
name = topleft;
pos = (27,776);
},
{
name = topright;
pos = (533,776);
}
);
background = {
shapes = (
{
closed = 1;
nodes = (
(411,-15,o),
(523,86,o),
(523,347,cs),
(523,608,o),
(406,709,o),
(280,709,cs),
(144,709,o),
(40,607,o),
(40,347,cs),
(40,86,o),
(150,-15,o),
(279,-15,cs)
);
},
{
closed = 1;
nodes = (
(164,17,o),
(76,108,o),
(76,347,cs),
(76,590,o),
(163,677,o),
(275,677,cs),
(387,677,o),
(487,587,o),
(487,347,cs),
(487,108,o),
(388,17,o),
(275,17,cs)
);
}
);
};
layerId = "48496069-D3C9-4C2F-94CE-920A20E77C3C";
shapes = (
{
closed = 1;
nodes = (
(432,-15,o),
(522,119,o),
(522,347,cs),
(522,575,o),
(432,709,o),
(280,709,cs),
(128,709,o),
(38,575,o),
(38,347,cs),
(38,119,o),
(128,-15,o),
(280,-15,cs)
);
},
{
closed = 1;
nodes = (
(151,17,o),
(74,140,o),
(74,347,cs),
(74,554,o),
(151,677,o),
(280,677,cs),
(409,677,o),
(486,554,o),
(486,347,cs),
(486,140,o),
(409,17,o),
(280,17,cs)
);
}
);
width = 560;
}
);
unicode = 79;
},
{
color = 5;
glyphname = P;
layers = (
{
anchors = (
{
name = bottom;
pos = (279,0);
},
{
name = top;
pos = (279,776);
}
);
background = {
shapes = (
{
closed = 1;
nodes = (
(146,0,l),
(146,292,l),
(261,292,ls),
(415,292,o),
(481,390,o),
(481,506,cs),
(481,586,o),
(426,699,o),
(278,699,cs),
(245,699,o),
(166,698,o),
(113,682,c),
(113,0,l)
);
},
{
closed = 1;
nodes = (
(146,667,l),
(165,669,o),
(199,670,o),
(273,670,cs),
(395,670,o),
(446,598,o),
(446,498,cs),
(446,372,o),
(382,316,o),
(245,316,cs),
(146,316,l)
);
}
);
};
layerId = "48496069-D3C9-4C2F-94CE-920A20E77C3C";
shapes = (
{
closed = 1;
nodes = (
(148,0,l),
(148,279,l),
(234,279,ls),
(400,279,o),
(481,348,o),
(481,488,cs),
(481,627,o),
(403,697,o),
(247,697,cs),
(194,697,o),
(143,691,o),
(113,682,c),
(113,0,l)
);
},
{
closed = 1;
nodes = (
(148,656,l),
(171,662,o),
(218,665,o),
(247,665,cs),
(379,665,o),
(445,606,o),
(445,489,cs),
(445,339,o),
(352,313,o),
(231,313,cs),
(148,313,l)
);
}
);
width = 560;
}
);
unicode = 80;
},
{
color = 5;
glyphname = Q;
layers = (
{
anchors = (
{
name = bottom;
pos = (280,0);
},
{
name = top;
pos = (280,776);
}
);
background = {
shapes = (
{
closed = 1;
nodes = (
(432,-15,o),
(522,119,o),
(522,347,cs),
(522,575,o),
(432,709,o),
(280,709,cs),
(128,709,o),
(38,575,o),
(38,347,cs),
(38,119,o),
(128,-15,o),
(280,-15,cs)
);
},
{
closed = 1;
nodes = (
(151,17,o),
(74,140,o),
(74,347,cs),
(74,554,o),
(151,677,o),
(280,677,cs),
(409,677,o),
(486,554,o),
(486,347,cs),
(486,140,o),
(409,17,o),
(280,17,cs)
);
},
{
closed = 1;
nodes = (
(263,-10,l),
(278,-91,o),
(339,-144,o),
(458,-175,c),
(466,-140,l),
(370,-116,o),
(306,-75,o),
(300,-7,c)
);
}
);
};
layerId = "48496069-D3C9-4C2F-94CE-920A20E77C3C";
shapes = (
{
closed = 1;
nodes = (
(466,-140,l),
(373,-117,o),
(311,-78,o),
(301,-14,c),
(440,-2,o),
(522,130,o),
(522,347,cs),
(522,575,o),
(432,709,o),
(280,709,cs),
(128,709,o),
(38,575,o),
(38,347,cs),
(38,127,o),
(122,-5,o),
(264,-14,c),
(280,-93,o),
(341,-145,o),
(458,-175,c)
);
},
{
closed = 1;
nodes = (
(151,17,o),
(74,140,o),
(74,347,cs),
(74,554,o),
(151,677,o),
(280,677,cs),
(409,677,o),
(486,554,o),
(486,347,cs),
(486,140,o),
(409,17,o),
(280,17,cs)
);
}
);
width = 560;
}
);
unicode = 81;
},
{
color = 5;
glyphname = R;
layers = (
{
anchors = (
{
name = bottom;
pos = (279,0);
},
{
name = top;
pos = (279,776);
}
);
background = {
shapes = (
{
closed = 1;
nodes = (
(286,301,l),
(346,212,o),
(404,95,o),
(446,0,c),
(486,0,l),
(440,104,o),
(380,219,o),
(322,310,c)
);
},
{
closed = 1;
nodes = (
(372,291,o),
(460,364,o),
(460,488,cs),
(460,627,o),
(383,697,o),
(228,697,cs),
(172,697,o),
(120,691,o),
(89,682,c),
(89,0,l),
(124,0,l),
(124,291,l),
(224,291,ls)
);
},
{
closed = 1;
nodes = (
(124,656,l),
(148,662,o),
(194,665,o),
(228,665,cs),
(357,665,o),
(424,607,o),
(424,489,cs),
(424,368,o),
(353,323,o),
(228,323,cs),
(124,323,l)
);
}
);
};
layerId = "48496069-D3C9-4C2F-94CE-920A20E77C3C";
shapes = (
{
closed = 1;
nodes = (
(116,0,l),
(116,291,l),
(226,291,ls),
(251,291,o),
(274,293,o),
(296,296,c),
(355,208,o),
(412,93,o),
(453,0,c),
(493,0,l),
(448,102,o),
(389,214,o),
(332,304,c),
(417,330,o),
(467,387,o),
(467,488,cs),
(467,627,o),
(390,697,o),
(235,697,cs),
(173,697,o),
(115,691,o),
(81,682,c),
(81,0,l)
);
},
{
closed = 1;
nodes = (
(116,656,l),
(143,662,o),
(196,665,o),
(235,665,cs),
(364,665,o),
(431,607,o),
(431,489,cs),
(431,374,o),
(361,323,o),
(230,323,cs),
(116,323,l)
);
}
);
width = 560;
}
);
unicode = 82;
},
{
color = 5;
glyphname = S;
layers = (
{
anchors = (
{
name = bottom;
pos = (280,0);
},
{
name = top;
pos = (280,776);
}
);
background = {
shapes = (
{
closed = 1;
nodes = (
(389,-15,o),
(473,46,o),
(473,156,cs),
(473,253,o),
(442,294,o),
(297,364,cs),
(196,413,o),
(143,441,o),
(143,549,cs),
(143,632,o),
(227,675,o),
(286,675,cs),
(352,675,o),
(418,645,o),
(441,631,c),
(456,671,l),
(439,692,o),
(364,709,o),
(298,709,cs),
(178,709,o),
(110,643,o),
(110,534,cs),
(110,454,o),
(161,394,o),
(258,352,cs),
(351,312,o),
(441,272,o),
(441,150,cs),
(441,48,o),
(357,19,o),
(265,19,cs),
(181,19,o),
(114,50,o),
(101,59,c),
(87,29,l),
(106,17,o),
(186,-15,o),
(265,-15,cs)
);
}
);
};
layerId = "48496069-D3C9-4C2F-94CE-920A20E77C3C";
shapes = (
{
closed = 1;
nodes = (
(403,-10,o),
(481,55,o),
(481,176,cs),
(481,263,o),
(432,316,o),
(304,366,cs),
(175,418,o),
(132,456,o),
(132,533,cs),
(132,624,o),
(187,671,o),
(294,671,cs),
(348,671,o),
(404,657,o),
(446,633,c),
(460,662,l),
(422,686,o),
(355,703,o),
(298,703,cs),
(169,703,o),
(96,646,o),
(96,534,cs),
(96,442,o),
(145,390,o),
(279,338,cs),
(406,290,o),
(445,245,o),
(445,174,cs),
(445,72,o),
(380,22,o),
(251,22,cs),
(195,22,o),
(133,39,o),
(85,68,c),
(72,38,l),
(120,7,o),
(183,-10,o),
(254,-10,cs)
);
}
);
width = 560;
}
);
unicode = 83;
},
{
color = 5;
glyphname = T;
layers = (
{
anchors = (
{
name = bottom;
pos = (279,0);
},
{
name = center;
pos = (279,389);
},
{
name = top;
pos = (279,776);
}
);
layerId = "48496069-D3C9-4C2F-94CE-920A20E77C3C";
shapes = (
{
closed = 1;
nodes = (
(297,0,l),
(297,662,l),
(491,662,l),
(491,693,l),
(69,693,l),
(69,662,l),
(262,662,l),
(262,0,l)
);
}
);
width = 560;
}
);
unicode = 84;
},
{
color = 5;
glyphname = U;
layers = (
{
anchors = (
{
name = bottom;
pos = (279,0);
},
{
name = ogonek;
pos = (499,11);
},
{
name = top;
pos = (279,776);
},
{
name = topright;
pos = (532,776);
}
);
background = {
shapes = (
{
closed = 1;
nodes = (
(421,-15,o),
(488,78,o),
(488,223,cs),
(488,693,l),
(455,693,l),
(455,233,ls),
(455,62,o),
(368,14,o),
(279,14,cs),
(190,14,o),
(102,65,o),
(102,236,cs),
(102,693,l),
(70,693,l),
(70,223,ls),
(70,78,o),
(142,-15,o),
(282,-15,cs)
);
}
);
};
layerId = "48496069-D3C9-4C2F-94CE-920A20E77C3C";
shapes = (
{
closed = 1;
nodes = (
(430,-10,o),
(501,74,o),
(501,234,cs),
(501,693,l),
(466,693,l),
(466,237,ls),
(466,98,o),
(410,22,o),
(282,22,cs),
(151,22,o),
(94,98,o),
(94,237,cs),
(94,693,l),
(59,693,l),
(59,234,ls),
(59,72,o),
(131,-10,o),
(282,-10,cs)
);
}
);
width = 560;
}
);
unicode = 85;
},
{
color = 5;
glyphname = V;
layers = (
{
anchors = (
{
name = bottom;
pos = (280,0);
},
{
name = top;
pos = (280,776);
}
);
background = {
shapes = (
{
closed = 1;
nodes = (
(317,0,l),
(419,282,o),
(522,626,o),
(541,693,c),
(505,693,l),
(457,449,o),
(356,214,o),
(282,3,c),
(227,151,o),
(121,442,o),
(60,693,c),
(20,693,l),
(44,605,o),
(128,335,o),
(240,0,c)
);
}
);
};
layerId = "48496069-D3C9-4C2F-94CE-920A20E77C3C";
shapes = (
{
closed = 1;
nodes = (
(295,0,l),
(381,189,o),
(449,385,o),
(540,693,c),
(504,693,l),
(423,409,o),
(372,271,o),
(282,44,c),
(195,259,o),
(135,425,o),
(58,693,c),
(20,693,l),
(90,464,o),
(170,215,o),
(267,0,c)
);
}
);
width = 560;
}
);
unicode = 86;
},
{
color = 5;
glyphname = W;
layers = (
{
anchors = (
{
name = bottom;
pos = (280,0);
},
{
name = top;
pos = (280,776);
}
);
background = {
shapes = (
{
closed = 1;
nodes = (
(161,0,l),
(203,144,o),
(235,252,o),
(275,393,c),
(314,256,o),
(355,144,o),
(394,0,c),
(441,0,l),
(469,158,o),
(494,424,o),
(507,693,c),
(466,693,l),
(455,483,o),
(441,304,o),
(431,62,c),
(395,147,o),
(341,303,o),
(302,408,c),
(249,408,l),
(193,237,o),
(169,182,o),
(131,62,c),
(121,277,o),
(107,483,o),
(94,693,c),
(53,693,l),
(67,426,o),
(82,158,o),
(110,0,c)
);
}
);
};
layerId = "48496069-D3C9-4C2F-94CE-920A20E77C3C";
shapes = (
{
closed = 1;
nodes = (
(144,0,l),
(196,130,o),
(245,262,o),
(281,363,c),
(322,236,o),
(364,130,o),
(418,0,c),
(446,0,l),
(477,217,o),
(493,430,o),
(508,693,c),
(473,693,l),
(460,451,o),
(445,242,o),
(421,66,c),
(379,180,o),
(338,295,o),
(296,409,c),
(262,409,l),
(221,295,o),
(180,180,o),
(139,66,c),
(119,244,o),
(99,451,o),
(88,693,c),
(52,693,l),
(68,433,o),
(84,221,o),
(114,0,c)
);
}
);
width = 560;
}
);
unicode = 87;
},
{
color = 5;
glyphname = X;
layers = (
{
anchors = (
{
name = bottom;
pos = (280,0);
},
{
name = top;
pos = (280,776);
}
);
background = {
shapes = (
{
closed = 1;
nodes = (
(176,237,o),
(111,120,o),
(49,0,c),
(88,0,l),
(135,96,o),
(202,212,o),
(289,351,cs),
(503,693,l),
(465,693,l),
(270,377,l)
);
},
{
closed = 1;
nodes = (
(103,693,l),
(63,693,l),
(275,345,ls),
(346,228,o),
(411,117,o),
(471,0,c),
(511,0,l),
(430,149,o),
(375,245,o),
(287,390,cs)
);
}
);
};
layerId = "48496069-D3C9-4C2F-94CE-920A20E77C3C";
shapes = (
{
closed = 1;
nodes = (
(88,0,l),
(133,93,o),
(197,204,o),
(280,337,c),
(349,223,o),
(412,114,o),
(471,0,c),
(511,0,l),
(434,142,o),
(381,235,o),
(300,369,c),
(503,693,l),
(465,693,l),
(283,397,l),
(103,693,l),
(63,693,l),
(262,366,l),
(172,231,o),
(109,117,o),
(49,0,c)
);
}
);
width = 560;
},
{
anchors = (
{
name = bottom;
pos = (280,0);
},
{
name = top;
pos = (280,776);
}
);
associatedMasterId = "48496069-D3C9-4C2F-94CE-920A20E77C3C";
layerId = "1E03CBAD-5FB6-4B51-B32A-DB982BF96735";
name = "8 Jan 23 14:08";
shapes = (
{
closed = 1;
nodes = (
(64,0,l),
(113,92,o),
(189,209,o),
(280,336,c),
(375,202,o),
(433,114,o),
(495,0,c),
(535,0,l),
(456,141,o),
(394,229,o),
(302,362,c),
(528,693,l),
(490,693,l),
(283,390,l),
(78,693,l),
(38,693,l),
(260,364,l),
(161,229,o),
(89,116,o),
(24,0,c)
);
}
);
width = 560;
},
{
associatedMasterId = "48496069-D3C9-4C2F-94CE-920A20E77C3C";
layerId = "B5029E79-8B73-47D0-B566-450CE9FF3545";
name = "8 Jan 23 14:08.background";
shapes = (
{
closed = 1;
nodes = (
(90,0,l),
(147,132,o),
(211,274,o),
(275,349,c),
(355,258,o),
(426,86,o),
(465,0,c),
(507,0,l),
(428,173,o),
(384,247,o),
(309,370,c),
(500,693,l),
(448,693,l),
(272,372,l),
(106,693,l),
(63,693,l),
(240,366,l),
(165,260,o),
(129,165,o),
(53,0,c)
);
}
);
width = 0;
},
{
anchors = (
{
name = bottom;
pos = (280,0);
},
{
name = top;
pos = (280,776);
}
);
associatedMasterId = "48496069-D3C9-4C2F-94CE-920A20E77C3C";
layerId = "78820EEE-9407-418B-961D-E9ABD65239F2";
name = "8 Jan 23 16:41";
shapes = (
{
closed = 1;
nodes = (
(176,237,o),
(111,120,o),
(49,0,c),
(88,0,l),
(135,96,o),
(202,212,o),
(289,351,cs),
(503,693,l),
(465,693,l),
(270,377,l)
);
},
{
closed = 1;
nodes = (
(103,693,l),
(63,693,l),
(275,345,ls),
(346,228,o),
(411,117,o),
(471,0,c),
(511,0,l),
(430,149,o),
(375,245,o),
(287,390,cs)
);
}
);
width = 560;
},
{
associatedMasterId = "48496069-D3C9-4C2F-94CE-920A20E77C3C";
layerId = "A7089E10-BA01-4481-AC4A-361D4B309471";
name = "8 Jan 23 16:41.background";
shapes = (
{
closed = 1;
nodes = (
(90,0,l),
(147,132,o),
(211,274,o),
(275,349,c),
(355,258,o),
(426,86,o),
(465,0,c),
(507,0,l),
(428,173,o),
(384,247,o),
(309,370,c),
(500,693,l),
(448,693,l),
(272,372,l),
(106,693,l),
(63,693,l),
(240,366,l),
(165,260,o),
(129,165,o),
(53,0,c)
);
}
);
width = 0;
}
);
unicode = 88;
},
{
color = 5;
glyphname = Y;
layers = (
{
anchors = (
{
name = bottom;
pos = (280,0);
},
{
name = top;
pos = (280,776);
},
{
name = topleft;
pos = (27,776);
}
);
background = {
shapes = (
{
closed = 1;
nodes = (
(296,0,l),
(296,255,l),
(390,415,o),
(487,558,o),
(541,693,c),
(495,693,l),
(437,546,o),
(345,404,o),
(279,287,c),
(191,445,o),
(116,549,o),
(67,693,c),
(20,693,l),
(68,557,o),
(163,404,o),
(264,253,c),
(264,0,l)
);
}
);
};
layerId = "48496069-D3C9-4C2F-94CE-920A20E77C3C";
shapes = (
{
closed = 1;
nodes = (
(297,0,l),
(297,262,l),
(394,411,o),
(469,532,o),
(540,693,c),
(502,693,l),
(453,574,o),
(392,470,o),
(280,290,c),
(198,416,o),
(121,556,o),
(60,693,c),
(20,693,l),
(98,529,o),
(175,390,o),
(262,260,c),
(262,0,l)
);
}
);
width = 560;
}
);
unicode = 89;
},
{
color = 5;
glyphname = Z;
layers = (
{
anchors = (
{
name = bottom;
pos = (287,0);
},
{
name = center;
pos = (287,347);
},
{
name = top;
pos = (287,693);
}
);
background = {
shapes = (
{
closed = 1;
nodes = (
(508,0,l),
(508,32,l),
(113,32,l),
(207,226,o),
(449,603,o),
(500,655,c),
(500,693,l),
(94,693,l),
(94,661,l),
(466,661,l),
(397,600,o),
(209,308,o),
(73,35,c),
(73,0,l)
);
}
);
};
layerId = "48496069-D3C9-4C2F-94CE-920A20E77C3C";
shapes = (
{
closed = 1;
nodes = (
(504,0,l),
(504,31,l),
(100,31,l),
(185,202,o),
(380,520,o),
(494,661,c),
(494,693,l),
(80,693,l),
(80,662,l),
(453,662,l),
(334,512,o),
(153,215,o),
(62,32,c),
(62,0,l)
);
}
);
width = 560;
}
);
unicode = 90;
},
{
color = 5;
glyphname = bracketleft;
layers = (
{
background = {
shapes = (
{
closed = 1;
nodes = (
(413,-185,l),
(413,-156,l),
(236,-156,l),
(236,756,l),
(413,756,l),
(413,783,l),
(203,783,l),
(203,-185,l)
);
}
);
};
layerId = "48496069-D3C9-4C2F-94CE-920A20E77C3C";
shapes = (
{
closed = 1;
nodes = (
(410,-185,l),
(410,-155,l),
(229,-155,l),
(229,753,l),
(410,753,l),
(410,783,l),
(195,783,l),
(195,-185,l)
);
}
);
width = 560;
}
);
unicode = 91;
},
{
color = 5;
glyphname = backslash;
layers = (
{
layerId = "48496069-D3C9-4C2F-94CE-920A20E77C3C";
shapes = (
{
closed = 1;
nodes = (
(465,-185,l),
(130,783,l),
(95,783,l),
(430,-185,l)
);
}
);
width = 560;
}
);
unicode = 92;
},
{
color = 5;
glyphname = bracketright;
layers = (
{
layerId = "48496069-D3C9-4C2F-94CE-920A20E77C3C";
shapes = (
{
closed = 1;
nodes = (
(365,-185,l),
(365,783,l),
(150,783,l),
(150,753,l),
(331,753,l),
(331,-155,l),
(150,-155,l),
(150,-185,l)
);
}
);
width = 560;
}
);
unicode = 93;
},
{
color = 5;
glyphname = asciicircum;
layers = (
{
background = {
shapes = (
{
closed = 1;
nodes = (
(275,682,l),
(456,353,l),
(467,362,l),
(291,693,l),
(256,693,l),
(82,362,l),
(92,353,l)
);
}
);
};
layerId = "48496069-D3C9-4C2F-94CE-920A20E77C3C";
shapes = (
{
closed = 1;
nodes = (
(280,653,l),
(451,341,l),
(479,355,l),
(296,687,l),
(264,687,l),
(81,355,l),
(109,341,l)
);
}
);
width = 560;
}
);
unicode = 94;
},
{
color = 5;
glyphname = underscore;
layers = (
{
layerId = "48496069-D3C9-4C2F-94CE-920A20E77C3C";
shapes = (
{
closed = 1;
nodes = (
(551,-185,l),
(551,-155,l),
(9,-155,l),
(9,-185,l)
);
}
);
width = 560;
}
);
unicode = 95;
},
{
color = 5;
glyphname = grave;
layers = (
{
background = {
shapes = (
{
closed = 1;
nodes = (
(311,587,l),
(246,779,l),
(201,778,l),
(269,587,l)
);
}
);
};
layerId = "48496069-D3C9-4C2F-94CE-920A20E77C3C";
shapes = (
{
closed = 1;
nodes = (
(361,610,l),
(209,776,l),
(180,748,l),
(344,593,l)
);
}
);
width = 560;
}
);
unicode = 96;
},
{
color = 5;
glyphname = a;
layers = (
{
anchors = (
{
name = bottom;
pos = (280,0);
},
{
name = ogonek;
pos = (499,11);
},
{
name = top;
pos = (280,582);
}
);
background = {
shapes = (
{
closed = 1;
nodes = (
(348,-12,o),
(402,-5,o),
(467,5,c),
(467,344,ls),
(467,443,o),
(420,523,o),
(286,523,cs),
(217,523,o),
(162,512,o),
(147,502,c),
(148,468,l),
(169,477,o),
(217,492,o),
(290,492,cs),
(414,492,o),
(428,399,o),
(428,324,cs),
(428,288,l),
(387,298,o),
(350,304,o),
(309,304,cs),
(208,304,o),
(89,259,o),
(89,147,cs),
(89,4,o),
(227,-12,o),
(310,-12,cs)
);
},
{
closed = 1;
nodes = (
(189,24,o),
(129,50,o),
(129,144,cs),
(129,229,o),
(222,258,o),
(299,258,cs),
(354,258,o),
(400,247,o),
(428,235,c),
(428,39,l),
(405,30,o),
(358,24,o),
(293,24,cs)
);
}
);
};
layerId = "48496069-D3C9-4C2F-94CE-920A20E77C3C";
shapes = (
{
closed = 1;
nodes = (
(357,-6,o),
(418,2,o),
(467,17,c),
(467,342,ls),
(467,459,o),
(410,525,o),
(281,525,cs),
(226,525,o),
(177,517,o),
(145,502,c),
(150,472,l),
(176,485,o),
(232,495,o),
(279,495,cs),
(392,495,o),
(434,444,o),
(434,323,cs),
(434,284,l),
(403,295,o),
(352,303,o),
(312,303,cs),
(162,303,o),
(88,251,o),
(88,151,cs),
(88,47,o),
(160,-6,o),
(301,-6,cs)
);
},
{
closed = 1;
nodes = (
(181,24,o),
(124,65,o),
(124,151,cs),
(124,232,o),
(187,273,o),
(313,273,cs),
(361,273,o),
(402,266,o),
(434,254,c),
(434,39,l),
(394,28,o),
(346,24,o),
(306,24,cs)
);
}
);
width = 560;
}
);
unicode = 97;
},
{
color = 5;
glyphname = b;
layers = (
{
anchors = (
{
name = bottom;
pos = (279,0);
},
{
name = center;
pos = (279,291);
},
{
name = top;
pos = (279,582);
}
);
layerId = "48496069-D3C9-4C2F-94CE-920A20E77C3C";
shapes = (
{
closed = 1;
nodes = (
(413,-7,o),
(507,94,o),
(507,262,cs),
(507,427,o),
(422,525,o),
(281,525,cs),
(217,525,o),
(159,502,o),
(123,473,c),
(123,776,l),
(90,769,l),
(90,15,l),
(128,3,o),
(200,-7,o),
(246,-7,cs)
);
},
{
closed = 1;
nodes = (
(207,23,o),
(158,28,o),
(123,37,c),
(123,442,l),
(167,475,o),
(221,495,o),
(280,495,cs),
(401,495,o),
(472,408,o),
(472,262,cs),
(472,113,o),
(398,23,o),
(248,23,cs)
);
}
);
width = 560;
}
);
unicode = 98;
},
{
color = 5;
glyphname = c;
layers = (
{
anchors = (
{
name = bottom;
pos = (280,0);
},
{
name = top;
pos = (280,582);
}
);
background = {
shapes = (
{
closed = 1;
nodes = (
(365,-12,o),
(413,-8,o),
(479,18,c),
(475,48,l),
(409,25,o),
(385,24,o),
(325,24,cs),
(224,24,o),
(104,78,o),
(104,254,cs),
(104,450,o),
(248,488,o),
(324,488,cs),
(344,488,o),
(391,494,o),
(463,467,c),
(472,504,l),
(413,518,o),
(363,523,o),
(329,523,cs),
(238,523,o),
(67,484,o),
(67,254,cs),
(67,45,o),
(213,-12,o),
(317,-12,cs)
);
}
);
};
layerId = "48496069-D3C9-4C2F-94CE-920A20E77C3C";
shapes = (
{
closed = 1;
nodes = (
(382,-6,o),
(450,9,o),
(481,26,c),
(473,55,l),
(440,38,o),
(376,24,o),
(330,24,cs),
(177,24,o),
(95,104,o),
(95,254,cs),
(95,407,o),
(177,494,o),
(325,494,cs),
(379,494,o),
(430,485,o),
(462,471,c),
(472,500,l),
(437,515,o),
(391,524,o),
(325,524,cs),
(162,524,o),
(60,423,o),
(60,254,cs),
(60,87,o),
(158,-6,o),
(330,-6,cs)
);
}
);
width = 560;
}
);
unicode = 99;
},
{
color = 5;
glyphname = d;
layers = (
{
anchors = (
{
name = bottom;
pos = (279,0);
},
{
name = center;
pos = (279,291);
},
{
name = top;
pos = (279,869);
},
{
name = topright;
pos = (532,869);
}
);
background = {
shapes = (
{
closed = 1;
nodes = (
(405,-12,o),
(448,7,o),
(472,14,c),
(472,775,l),
(439,768,l),
(439,484,l),
(420,501,o),
(370,524,o),
(300,524,cs),
(163,524,o),
(66,406,o),
(66,260,cs),
(66,92,o),
(179,-12,o),
(308,-12,cs)
);
},
{
closed = 1;
nodes = (
(201,27,o),
(104,97,o),
(104,251,cs),
(104,373,o),
(159,489,o),
(295,489,cs),
(354,489,o),
(418,454,o),
(439,426,c),
(439,43,l),
(432,35,o),
(382,27,o),
(305,27,cs)
);
}
);
};
layerId = "48496069-D3C9-4C2F-94CE-920A20E77C3C";
shapes = (
{
closed = 1;
nodes = (
(360,-6,o),
(430,6,o),
(470,20,c),
(470,776,l),
(437,769,l),
(437,474,l),
(401,503,o),
(343,526,o),
(279,526,cs),
(142,526,o),
(53,428,o),
(53,263,cs),
(53,95,o),
(147,-6,o),
(314,-6,cs)
);
},
{
closed = 1;
nodes = (
(162,24,o),
(88,114,o),
(88,263,cs),
(88,409,o),
(159,496,o),
(280,496,cs),
(339,496,o),
(393,476,o),
(437,443,c),
(437,42,l),
(402,30,o),
(353,24,o),
(312,24,cs)
);
}
);
width = 560;
}
);
unicode = 100;
},
{
color = 5;
glyphname = e;
layers = (
{
anchors = (
{
name = bottom;
pos = (279,0);
},
{
name = ogonek;
pos = (498,11);
},
{
name = top;
pos = (279,582);
}
);
background = {
shapes = (
{
closed = 1;
nodes = (
(382,-12,o),
(455,9,o),
(448,17,c),
(443,45,l),
(434,36,o),
(393,24,o),
(318,24,cs),
(175,24,o),
(110,99,o),
(91,257,c),
(493,257,l),
(492,263,o),
(491,270,o),
(491,265,cs),
(491,444,o),
(413,523,o),
(297,523,cs),
(186,523,o),
(61,443,o),
(61,259,cs),
(61,133,o),
(120,-12,o),
(302,-12,cs)
);
},
{
closed = 1;
nodes = (
(107,395,o),
(191,492,o),
(292,492,cs),
(369,492,o),
(446,433,o),
(446,305,c),
(96,305,l)
);
}
);
};
layerId = "48496069-D3C9-4C2F-94CE-920A20E77C3C";
shapes = (
{
closed = 1;
nodes = (
(373,-7,o),
(432,7,o),
(460,24,c),
(452,52,l),
(425,36,o),
(372,23,o),
(322,23,cs),
(174,23,o),
(103,97,o),
(100,259,c),
(494,259,l),
(495,271,o),
(496,283,o),
(496,294,cs),
(496,422,o),
(431,525,o),
(293,525,cs),
(142,525,o),
(65,398,o),
(65,268,cs),
(65,81,o),
(147,-7,o),
(321,-7,cs)
);
},
{
closed = 1;
nodes = (
(108,394,o),
(169,495,o),
(293,495,cs),
(398,495,o),
(461,424,o),
(461,287,c),
(100,287,l)
);
}
);
width = 560;
}
);
unicode = 101;
},
{
color = 5;
glyphname = f;
layers = (
{
anchors = (
{
name = bottom;
pos = (279,0);
},
{
name = top;
pos = (279,869);
}
);
background = {
shapes = (
{
closed = 1;
nodes = (
(243,0,l),
(243,480,l),
(441,480,l),
(441,512,l),
(243,512,l),
(243,582,ls),
(243,697,o),
(305,745,o),
(378,745,cs),
(432,745,o),
(483,735,o),
(512,712,c),
(521,750,l),
(476,759,o),
(431,776,o),
(383,776,cs),
(291,776,o),
(210,728,o),
(210,580,cs),
(210,512,l),
(112,512,l),
(112,480,l),
(210,480,l),
(210,0,l)
);
}
);
};
layerId = "48496069-D3C9-4C2F-94CE-920A20E77C3C";
shapes = (
{
closed = 1;
nodes = (
(243,0,l),
(243,484,l),
(441,484,l),
(441,512,l),
(243,512,l),
(243,580,ls),
(243,702,o),
(294,746,o),
(400,746,cs),
(435,746,o),
(475,737,o),
(509,720,c),
(517,749,l),
(489,763,o),
(447,776,o),
(400,776,cs),
(273,776,o),
(210,715,o),
(210,580,cs),
(210,512,l),
(112,512,l),
(112,484,l),
(210,484,l),
(210,0,l)
);
}
);
width = 560;
}
);
unicode = 102;
},
{
color = 5;
glyphname = g;
layers = (
{
anchors = (
{
name = bottom;
pos = (279,-207);
},
{
name = top;
pos = (279,582);
}
);
background = {
shapes = (
{
closed = 1;
nodes = (
(379,-188,o),
(462,-136,o),
(462,10,cs),
(462,496,l),
(452,499,o),
(386,524,o),
(263,524,cs),
(126,524,o),
(58,381,o),
(58,259,cs),
(58,64,o),
(184,-2,o),
(285,-2,cs),
(365,-2,o),
(430,29,o),
(430,36,c),
(430,22,l),
(430,-120,o),
(363,-154,o),
(245,-154,cs),
(199,-154,o),
(146,-150,o),
(110,-134,c),
(107,-169,l),
(127,-180,o),
(174,-188,o),
(243,-188,cs)
);
},
{
closed = 1;
nodes = (
(198,42,o),
(96,96,o),
(96,257,cs),
(96,379,o),
(163,480,o),
(273,480,cs),
(369,480,o),
(418,469,o),
(430,460,c),
(430,92,l),
(398,65,o),
(332,42,o),
(268,42,cs)
);
}
);
};
layerId = "48496069-D3C9-4C2F-94CE-920A20E77C3C";
shapes = (
{
closed = 1;
nodes = (
(397,-188,o),
(470,-129,o),
(470,17,cs),
(470,493,l),
(421,512,o),
(361,523,o),
(297,523,cs),
(151,523,o),
(53,419,o),
(53,268,cs),
(53,115,o),
(136,24,o),
(284,24,cs),
(340,24,o),
(395,42,o),
(438,74,c),
(438,23,ls),
(438,-112,o),
(378,-158,o),
(226,-158,cs),
(181,-158,o),
(121,-146,o),
(92,-131,c),
(83,-161,l),
(119,-177,o),
(179,-188,o),
(226,-188,cs)
);
},
{
closed = 1;
nodes = (
(162,54,o),
(88,137,o),
(88,267,cs),
(88,403,o),
(171,493,o),
(298,493,cs),
(345,493,o),
(402,485,o),
(437,473,c),
(437,105,l),
(401,75,o),
(341,56,o),
(284,54,cs)
);
}
);
width = 560;
}
);
unicode = 103;
},
{
color = 5;
glyphname = h;
layers = (
{
anchors = (
{
name = bottom;
pos = (279,0);
},
{
name = center;
pos = (279,435);
},
{
name = top;
pos = (279,869);
}
);
background = {
shapes = (
{
closed = 1;
nodes = (
(129,0,l),
(129,465,l),
(147,473,o),
(208,488,o),
(260,488,cs),
(391,488,o),
(434,435,o),
(434,265,cs),
(434,0,l),
(467,0,l),
(467,288,ls),
(467,429,o),
(420,522,o),
(262,522,cs),
(212,522,o),
(170,516,o),
(129,499,c),
(129,775,l),
(95,768,l),
(95,0,l)
);
}
);
};
layerId = "48496069-D3C9-4C2F-94CE-920A20E77C3C";
shapes = (
{
closed = 1;
nodes = (
(128,0,l),
(128,462,l),
(176,484,o),
(226,492,o),
(265,492,cs),
(373,492,o),
(434,446,o),
(434,300,cs),
(434,0,l),
(467,0,l),
(467,315,ls),
(467,467,o),
(389,522,o),
(264,522,cs),
(222,522,o),
(175,511,o),
(128,491,c),
(128,776,l),
(95,769,l),
(95,0,l)
);
}
);
width = 560;
}
);
unicode = 104;
},
{
color = 5;
glyphname = i;
layers = (
{
anchors = (
{
name = bottom;
pos = (279,0);
}
);
background = {
shapes = (
{
closed = 1;
nodes = (
(456,-12,o),
(506,24,o),
(474,12,c),
(469,47,l),
(476,49,o),
(436,24,o),
(372,24,cs),
(314,24,o),
(273,45,o),
(273,200,cs),
(273,512,l),
(88,512,l),
(88,480,l),
(243,480,l),
(243,178,l),
(243,44,o),
(270,-12,o),
(385,-12,cs)
);
},
{
closed = 1;
nodes = (
(268,613,o),
(289,636,o),
(289,671,cs),
(289,708,o),
(268,729,o),
(238,729,cs),
(209,729,o),
(185,707,o),
(185,671,cs),
(185,636,o),
(209,613,o),
(238,613,cs)
);
}
);
};
layerId = "48496069-D3C9-4C2F-94CE-920A20E77C3C";
shapes = (
{
closed = 1;
nodes = (
(416,-12,o),
(455,1,o),
(474,12,c),
(469,42,l),
(447,28,o),
(414,19,o),
(381,19,cs),
(307,19,o),
(273,48,o),
(273,154,cs),
(273,513,l),
(88,513,l),
(88,485,l),
(240,485,l),
(240,154,ls),
(240,30,o),
(280,-12,o),
(381,-12,cs)
);
},
{
closed = 1;
nodes = (
(260,629,o),
(280,647,o),
(280,674,cs),
(280,700,o),
(260,718,o),
(237,718,cs),
(214,718,o),
(194,700,o),
(194,674,cs),
(194,647,o),
(214,629,o),
(237,629,cs)
);
}
);
width = 560;
}
);
unicode = 105;
},
{
color = 5;
glyphname = j;
layers = (
{
background = {
shapes = (
{
closed = 1;
nodes = (
(322,-190,o),
(405,-143,o),
(405,-31,cs),
(405,512,l),
(168,512,l),
(168,480,l),
(370,480,l),
(370,-26,ls),
(370,-132,o),
(309,-158,o),
(232,-158,cs),
(198,-158,o),
(155,-153,o),
(124,-138,c),
(115,-167,l),
(156,-189,o),
(223,-190,o),
(250,-190,cs)
);
},
{
closed = 1;
nodes = (
(374,613,o),
(397,636,o),
(397,671,cs),
(397,708,o),
(374,729,o),
(344,729,cs),
(316,729,o),
(292,707,o),
(292,671,cs),
(292,636,o),
(317,613,o),
(344,613,cs)
);
}
);
};
layerId = "48496069-D3C9-4C2F-94CE-920A20E77C3C";
shapes = (
{
closed = 1;
nodes = (
(346,-190,o),
(405,-129,o),
(405,6,cs),
(405,513,l),
(168,513,l),
(168,485,l),
(372,485,l),
(372,6,ls),
(372,-116,o),
(325,-160,o),
(226,-160,cs),
(194,-160,o),
(157,-151,o),
(125,-134,c),
(117,-163,l),
(143,-177,o),
(182,-190,o),
(226,-190,cs)
);
},
{
closed = 1;
nodes = (
(392,629,o),
(412,647,o),
(412,674,cs),
(412,700,o),
(392,718,o),
(369,718,cs),
(346,718,o),
(326,700,o),
(326,674,cs),
(326,647,o),
(346,629,o),
(369,629,cs)
);
}
);
width = 560;
}
);
unicode = 106;
},
{
color = 5;
glyphname = k;
layers = (
{
anchors = (
{
name = bottom;
pos = (279,0);
},
{
name = top;
pos = (279,869);
}
);
background = {
anchors = (
{
name = bottom;
pos = (279,0);
},
{
name = top;
pos = (279,869);
}
);
shapes = (
{
closed = 1;
nodes = (
(128,0,l),
(128,251,l),
(224,207,o),
(391,116,o),
(469,0,c),
(517,0,l),
(451,100,o),
(285,230,o),
(200,274,c),
(315,360,o),
(423,428,o),
(497,512,c),
(462,512,l),
(364,418,o),
(245,366,o),
(128,281,c),
(128,775,l),
(95,768,l),
(95,0,l)
);
}
);
};
layerId = "48496069-D3C9-4C2F-94CE-920A20E77C3C";
shapes = (
{
closed = 1;
nodes = (
(128,0,l),
(128,262,l),
(245,212,o),
(377,110,o),
(472,0,c),
(516,0,l),
(425,114,o),
(284,220,o),
(169,276,c),
(291,349,o),
(394,421,o),
(498,513,c),
(450,513,l),
(348,428,o),
(269,372,o),
(128,279,c),
(128,775,l),
(95,768,l),
(95,0,l)
);
}
);
width = 560;
}
);
unicode = 107;
},
{
color = 5;
glyphname = l;
layers = (
{
anchors = (
{
name = bottom;
pos = (279,0);
},
{
name = center;
pos = (279,435);
},
{
name = top;
pos = (279,869);
},
{
name = topright;
pos = (532,869);
}
);
layerId = "48496069-D3C9-4C2F-94CE-920A20E77C3C";
shapes = (
{
closed = 1;
nodes = (
(416,-12,o),
(455,1,o),
(474,12,c),
(469,42,l),
(447,28,o),
(414,19,o),
(381,19,cs),
(307,19,o),
(273,48,o),
(273,154,cs),
(273,771,l),
(88,771,l),
(88,743,l),
(240,743,l),
(240,154,ls),
(240,30,o),
(280,-12,o),
(381,-12,cs)
);
}
);
width = 560;
}
);
unicode = 108;
},
{
color = 5;
glyphname = m;
layers = (
{
anchors = (
{
name = bottom;
pos = (279,0);
},
{
name = top;
pos = (279,582);
}
);
background = {
shapes = (
{
closed = 1;
nodes = (
(99,0,l),
(99,472,l),
(126,485,o),
(155,492,o),
(180,492,cs),
(236,492,o),
(268,466,o),
(268,385,cs),
(268,200,l),
(301,200,l),
(301,389,ls),
(301,487,o),
(254,522,o),
(179,522,cs),
(143,522,o),
(109,514,o),
(66,493,c),
(66,0,l)
);
},
{
closed = 1;
nodes = (
(274,455,l),
(309,484,o),
(344,492,o),
(371,492,cs),
(434,492,o),
(470,464,o),
(470,375,cs),
(470,0,l),
(503,0,l),
(503,380,ls),
(503,484,o),
(452,522,o),
(370,522,cs),
(335,522,o),
(301,513,o),
(259,484,c)
);
}
);
};
layerId = "48496069-D3C9-4C2F-94CE-920A20E77C3C";
shapes = (
{
closed = 1;
nodes = (
(99,0,l),
(99,472,l),
(126,485,o),
(155,492,o),
(180,492,cs),
(236,492,o),
(268,466,o),
(268,385,cs),
(268,200,l),
(301,200,l),
(301,389,ls),
(301,420,o),
(296,445,o),
(287,465,c),
(318,486,o),
(347,492,o),
(371,492,cs),
(434,492,o),
(470,464,o),
(470,375,cs),
(470,0,l),
(503,0,l),
(503,380,ls),
(503,484,o),
(452,522,o),
(370,522,cs),
(338,522,o),
(307,514,o),
(269,491,c),
(248,513,o),
(217,522,o),
(179,522,cs),
(143,522,o),
(109,514,o),
(66,493,c),
(66,0,l)
);
}
);
width = 560;
}
);
unicode = 109;
},
{
color = 5;
glyphname = n;
layers = (
{
anchors = (
{
name = bottom;
pos = (279,0);
},
{
name = top;
pos = (279,582);
}
);
layerId = "48496069-D3C9-4C2F-94CE-920A20E77C3C";
shapes = (
{
closed = 1;
nodes = (
(128,0,l),
(128,472,l),
(173,485,o),
(226,492,o),
(265,492,cs),
(373,492,o),
(434,446,o),
(434,300,cs),
(434,0,l),
(467,0,l),
(467,315,ls),
(467,467,o),
(389,522,o),
(264,522,cs),
(213,522,o),
(160,514,o),
(95,493,c),
(95,0,l)
);
}
);
width = 560;
}
);
unicode = 110;
},
{
color = 5;
glyphname = o;
layers = (
{
anchors = (
{
name = bottom;
pos = (279,0);
},
{
name = center;
pos = (279,291);
},
{
name = ogonek;
pos = (499,11);
},
{
name = top;
pos = (279,582);
},
{
name = topright;
pos = (532,582);
}
);
background = {
shapes = (
{
closed = 1;
nodes = (
(397,-8,o),
(492,92,o),
(492,255,cs),
(492,416,o),
(400,523,o),
(275,523,cs),
(153,523,o),
(65,416,o),
(65,255,cs),
(65,93,o),
(157,-8,o),
(275,-8,cs)
);
},
{
closed = 1;
nodes = (
(183,28,o),
(102,110,o),
(102,256,cs),
(102,403,o),
(176,488,o),
(275,488,cs),
(375,488,o),
(456,402,o),
(456,256,cs),
(456,109,o),
(379,28,o),
(278,28,cs)
);
}
);
};
layerId = "48496069-D3C9-4C2F-94CE-920A20E77C3C";
shapes = (
{
closed = 1;
nodes = (
(408,-7,o),
(495,101,o),
(495,259,cs),
(495,417,o),
(408,525,o),
(280,525,cs),
(152,525,o),
(65,417,o),
(65,259,cs),
(65,101,o),
(152,-7,o),
(280,-7,cs)
);
},
{
closed = 1;
nodes = (
(170,23,o),
(100,117,o),
(100,259,cs),
(100,401,o),
(170,495,o),
(280,495,cs),
(388,495,o),
(460,402,o),
(460,259,cs),
(460,116,o),
(388,23,o),
(280,23,cs)
);
}
);
width = 560;
}
);
unicode = 111;
},
{
color = 5;
glyphname = p;
layers = (
{
anchors = (
{
name = bottom;
pos = (279,0);
},
{
name = top;
pos = (279,582);
}
);
background = {
shapes = (
{
closed = 1;
nodes = (
(123,0,l),
(123,472,l),
(168,485,o),
(221,492,o),
(260,492,cs),
(368,492,o),
(429,446,o),
(429,300,cs),
(429,0,l),
(462,0,l),
(462,315,ls),
(462,467,o),
(384,522,o),
(259,522,cs),
(208,522,o),
(155,514,o),
(90,493,c),
(90,0,l)
);
}
);
};
layerId = "48496069-D3C9-4C2F-94CE-920A20E77C3C";
shapes = (
{
closed = 1;
nodes = (
(123,-185,l),
(123,42,l),
(159,13,o),
(217,-10,o),
(281,-10,cs),
(418,-10,o),
(507,88,o),
(507,253,cs),
(507,421,o),
(413,522,o),
(246,522,cs),
(200,522,o),
(130,510,o),
(90,496,c),
(90,-185,l)
);
},
{
closed = 1;
nodes = (
(221,20,o),
(167,40,o),
(123,73,c),
(123,474,l),
(158,486,o),
(207,492,o),
(248,492,cs),
(398,492,o),
(472,402,o),
(472,253,cs),
(472,107,o),
(401,20,o),
(280,20,cs)
);
}
);
width = 560;
}
);
unicode = 112;
},
{
color = 5;
glyphname = q;
layers = (
{
anchors = (
{
name = bottom;
pos = (279,0);
},
{
name = top;
pos = (279,582);
}
);
background = {
shapes = (
{
closed = 1;
nodes = (
(462,-185,l),
(462,494,l),
(428,501,o),
(391,522,o),
(302,522,cs),
(170,522,o),
(61,428,o),
(61,254,cs),
(61,109,o),
(162,-12,o),
(300,-12,cs),
(374,-12,o),
(421,16,o),
(429,27,c),
(429,-185,l)
);
},
{
closed = 1;
nodes = (
(155,27,o),
(99,139,o),
(99,259,cs),
(99,414,o),
(193,487,o),
(301,487,cs),
(381,487,o),
(412,478,o),
(431,467,c),
(431,89,l),
(409,61,o),
(348,27,o),
(288,27,cs)
);
}
);
};
layerId = "48496069-D3C9-4C2F-94CE-920A20E77C3C";
shapes = (
{
closed = 1;
nodes = (
(470,-185,l),
(470,496,l),
(430,510,o),
(360,522,o),
(314,522,cs),
(147,522,o),
(53,421,o),
(53,253,cs),
(53,88,o),
(142,-10,o),
(279,-10,cs),
(343,-10,o),
(401,13,o),
(437,42,c),
(437,-185,l)
);
},
{
closed = 1;
nodes = (
(159,20,o),
(88,107,o),
(88,253,cs),
(88,402,o),
(162,492,o),
(312,492,cs),
(353,492,o),
(402,486,o),
(437,474,c),
(437,73,l),
(393,40,o),
(339,20,o),
(280,20,cs)
);
}
);
width = 560;
}
);
unicode = 113;
},
{
color = 5;
glyphname = r;
layers = (
{
anchors = (
{
name = bottom;
pos = (279,0);
},
{
name = top;
pos = (279,582);
}
);
background = {
shapes = (
{
closed = 1;
nodes = (
(179,0,l),
(179,482,l),
(234,499,o),
(290,509,o),
(346,509,cs),
(398,509,o),
(390,515,o),
(452,498,c),
(457,519,l),
(405,524,o),
(419,526,o),
(353,526,cs),
(308,526,o),
(224,514,o),
(147,492,c),
(147,0,l)
);
}
);
};
layerId = "48496069-D3C9-4C2F-94CE-920A20E77C3C";
shapes = (
{
closed = 1;
nodes = (
(180,0,l),
(180,468,l),
(223,484,o),
(276,493,o),
(325,493,cs),
(375,493,o),
(429,486,o),
(449,481,c),
(456,509,l),
(433,517,o),
(382,523,o),
(327,523,cs),
(265,523,o),
(203,511,o),
(147,487,c),
(147,0,l)
);
}
);
width = 560;
}
);
unicode = 114;
},
{
color = 5;
glyphname = s;
layers = (
{
anchors = (
{
name = bottom;
pos = (279,0);
},
{
name = top;
pos = (279,582);
}
);
background = {
shapes = (
{
closed = 1;
nodes = (
(390,-12,o),
(469,19,o),
(469,123,cs),
(469,207,o),
(363,253,o),
(266,291,cs),
(198,318,o),
(131,341,o),
(131,393,cs),
(131,470,o),
(194,492,o),
(290,492,cs),
(329,492,o),
(408,491,o),
(432,470,c),
(440,510,l),
(400,515,o),
(332,523,o),
(289,523,cs),
(164,523,o),
(99,474,o),
(99,398,cs),
(99,325,o),
(167,284,o),
(265,247,cs),
(355,213,o),
(431,179,o),
(431,117,cs),
(431,53,o),
(383,18,o),
(282,18,cs),
(210,18,o),
(159,29,o),
(107,58,c),
(94,15,l),
(166,-18,o),
(214,-12,o),
(262,-12,cs)
);
}
);
};
layerId = "48496069-D3C9-4C2F-94CE-920A20E77C3C";
shapes = (
{
closed = 1;
nodes = (
(397,-7,o),
(473,43,o),
(473,131,cs),
(473,199,o),
(427,228,o),
(293,280,cs),
(159,332,o),
(136,345,o),
(136,398,cs),
(136,458,o),
(197,495,o),
(293,495,cs),
(347,495,o),
(407,486,o),
(441,471,c),
(449,499,l),
(419,515,o),
(351,525,o),
(293,525,cs),
(176,525,o),
(101,474,o),
(101,394,cs),
(101,327,o),
(139,302,o),
(270,252,cs),
(401,202,o),
(438,185,o),
(438,127,cs),
(438,62,o),
(378,23,o),
(274,23,cs),
(206,23,o),
(153,32,o),
(100,52,c),
(90,22,l),
(130,5,o),
(209,-7,o),
(264,-7,cs)
);
}
);
width = 560;
}
);
unicode = 115;
},
{
color = 5;
glyphname = t;
layers = (
{
anchors = (
{
name = bottom;
pos = (279,0);
},
{
name = center;
pos = (279,291);
},
{
name = top;
pos = (279,582);
},
{
name = topright;
pos = (532,869);
}
);
background = {
shapes = (
{
closed = 1;
nodes = (
(457,-12,o),
(487,24,o),
(469,17,c),
(462,43,l),
(459,42,o),
(432,24,o),
(380,24,cs),
(266,24,o),
(239,67,o),
(239,201,cs),
(239,480,l),
(454,480,l),
(454,512,l),
(239,512,l),
(239,681,l),
(206,674,l),
(206,512,l),
(112,512,l),
(112,480,l),
(206,480,l),
(206,205,ls),
(206,111,o),
(194,-12,o),
(379,-12,cs)
);
}
);
};
layerId = "48496069-D3C9-4C2F-94CE-920A20E77C3C";
shapes = (
{
closed = 1;
nodes = (
(410,-10,o),
(447,2,o),
(471,13,c),
(463,41,l),
(434,27,o),
(399,20,o),
(369,20,cs),
(280,20,o),
(237,59,o),
(237,181,cs),
(237,484,l),
(452,484,l),
(452,512,l),
(237,512,l),
(237,681,l),
(204,674,l),
(204,512,l),
(85,512,l),
(85,484,l),
(204,484,l),
(204,181,ls),
(204,45,o),
(259,-10,o),
(369,-10,cs)
);
}
);
width = 560;
}
);
unicode = 116;
},
{
color = 5;
glyphname = u;
layers = (
{
anchors = (
{
name = bottom;
pos = (280,0);
},
{
name = ogonek;
pos = (499,11);
},
{
name = top;
pos = (280,582);
},
{
name = topright;
pos = (532,582);
}
);
background = {
shapes = (
{
closed = 1;
nodes = (
(379,-10,o),
(436,4,o),
(463,11,c),
(463,512,l),
(430,512,l),
(430,40,l),
(429,35,o),
(361,24,o),
(295,24,cs),
(180,24,o),
(125,77,o),
(125,244,cs),
(125,512,l),
(92,512,l),
(92,219,ls),
(92,83,o),
(154,-10,o),
(286,-10,cs)
);
}
);
};
layerId = "48496069-D3C9-4C2F-94CE-920A20E77C3C";
shapes = (
{
closed = 1;
nodes = (
(347,-9,o),
(400,-1,o),
(465,20,c),
(465,513,l),
(432,513,l),
(432,41,l),
(387,28,o),
(334,21,o),
(295,21,cs),
(187,21,o),
(126,67,o),
(126,213,cs),
(126,513,l),
(93,513,l),
(93,198,ls),
(93,46,o),
(171,-9,o),
(296,-9,cs)
);
}
);
width = 560;
}
);
unicode = 117;
},
{
color = 5;
glyphname = v;
layers = (
{
anchors = (
{
name = bottom;
pos = (280,0);
},
{
name = top;
pos = (280,582);
}
);
background = {
anchors = (
{
name = bottom;
pos = (280,0);
},
{
name = top;
pos = (280,582);
}
);
shapes = (
{
closed = 1;
nodes = (
(301,0,l),
(380,171,o),
(458,351,o),
(499,512,c),
(459,512,l),
(405,335,o),
(340,148,o),
(282,45,c),
(218,152,o),
(157,341,o),
(104,512,c),
(60,512,l),
(104,338,o),
(194,136,o),
(257,0,c)
);
}
);
};
layerId = "48496069-D3C9-4C2F-94CE-920A20E77C3C";
shapes = (
{
closed = 1;
nodes = (
(299,0,l),
(368,110,o),
(461,345,o),
(501,513,c),
(467,513,l),
(430,372,o),
(353,148,o),
(283,33,c),
(210,164,o),
(132,356,o),
(93,513,c),
(59,513,l),
(103,338,o),
(183,140,o),
(265,0,c)
);
}
);
width = 560;
}
);
unicode = 118;
},
{
color = 5;
glyphname = w;
layers = (
{
anchors = (
{
name = bottom;
pos = (279,0);
},
{
name = top;
pos = (279,582);
}
);
background = {
shapes = (
{
closed = 1;
nodes = (
(149,0,l),
(207,119,o),
(262,249,o),
(292,350,c),
(272,351,l),
(303,249,o),
(355,118,o),
(411,0,c),
(441,0,l),
(480,170,o),
(504,323,o),
(523,513,c),
(489,513,l),
(472,339,o),
(437,116,o),
(411,15,c),
(436,16,l),
(387,121,o),
(332,255,o),
(297,375,c),
(269,375,l),
(233,257,o),
(181,127,o),
(126,15,c),
(151,13,l),
(122,131,o),
(87,356,o),
(71,513,c),
(37,513,l),
(57,328,o),
(81,179,o),
(119,0,c)
);
}
);
};
layerId = "48496069-D3C9-4C2F-94CE-920A20E77C3C";
shapes = (
{
closed = 1;
nodes = (
(149,0,l),
(201,107,o),
(251,223,o),
(282,319,c),
(314,222,o),
(361,106,o),
(411,0,c),
(441,0,l),
(480,170,o),
(504,323,o),
(523,513,c),
(489,513,l),
(474,358,o),
(444,163,o),
(420,52,c),
(375,150,o),
(328,268,o),
(297,375,c),
(269,375,l),
(237,269,o),
(191,153,o),
(143,49,c),
(116,173,o),
(85,371,o),
(71,513,c),
(37,513,l),
(57,328,o),
(81,179,o),
(119,0,c)
);
}
);
width = 560;
}
);
unicode = 119;
},
{
color = 5;
glyphname = x;
layers = (
{
anchors = (
{
name = bottom;
pos = (287,0);
},
{
name = top;
pos = (287,582);
}
);
background = {
shapes = (
{
closed = 1;
nodes = (
(483,513,c),
(443,513,l),
(182,190,o),
(114,100,o),
(52,0,c),
(90,0,l),
(136,74,o),
(226,202,o)
);
},
{
closed = 1;
nodes = (
(110,513,c),
(71,513,l),
(335,191,o),
(418,84,o),
(471,0,c),
(509,0,l),
(461,76,o),
(373,189,o)
);
}
);
};
layerId = "48496069-D3C9-4C2F-94CE-920A20E77C3C";
shapes = (
{
closed = 1;
nodes = (
(90,0,l),
(121,49,o),
(171,123,o),
(278,259,c),
(386,123,o),
(435,56,o),
(471,0,c),
(509,0,l),
(475,54,o),
(420,127,o),
(296,282,c),
(483,513,l),
(443,513,l),
(277,306,l),
(110,513,l),
(71,513,l),
(258,283,l),
(143,136,o),
(96,71,o),
(52,0,c)
);
}
);
width = 560;
},
{
anchors = (
{
name = bottom;
pos = (287,0);
},
{
name = top;
pos = (287,582);
}
);
associatedMasterId = "48496069-D3C9-4C2F-94CE-920A20E77C3C";
layerId = "79DC6EAE-DC3D-470B-A0FB-40398AF40576";
name = "7 Jan 23 23:24";
shapes = (
{
closed = 0;
nodes = (
(277,256,l),
(337,179,o),
(400,84,o),
(447,0,c),
(484,0,l),
(441,76,o),
(374,181,o),
(298,281,c)
);
},
{
closed = 0;
nodes = (
(298,281,l),
(463,513,l),
(426,513,l),
(278,304,l)
);
},
{
closed = 0;
nodes = (
(258,279,l),
(190,190,o),
(132,100,o),
(77,0,c),
(112,0,l),
(153,74,o),
(224,190,o),
(277,256,c)
);
},
{
closed = 0;
nodes = (
(278,304,l),
(129,513,l),
(91,513,l),
(258,279,l)
);
}
);
width = 560;
},
{
associatedMasterId = "48496069-D3C9-4C2F-94CE-920A20E77C3C";
layerId = "D356C591-B464-4FDC-9923-A70E24DFC3F9";
name = "7 Jan 23 23:24.background";
shapes = (
{
closed = 1;
nodes = (
(89,0,l),
(111,37,o),
(218,175,o),
(286,253,c),
(359,164,o),
(443,39,o),
(461,0,c),
(511,0,l),
(446,119,o),
(376,194,o),
(311,287,c),
(482,512,l),
(435,512,l),
(284,308,l),
(117,512,l),
(65,512,l),
(252,276,l),
(182,188,o),
(106,99,o),
(49,0,c)
);
},
{
closed = 0;
nodes = (
(277,256,l),
(337,179,o),
(400,84,o),
(447,0,c),
(484,0,l),
(441,76,o),
(374,181,o),
(298,281,c)
);
},
{
closed = 0;
nodes = (
(298,281,l),
(463,513,l),
(426,513,l),
(278,304,l)
);
},
{
closed = 0;
nodes = (
(258,279,l),
(190,190,o),
(132,100,o),
(77,0,c),
(112,0,l),
(153,74,o),
(224,190,o),
(277,256,c)
);
},
{
closed = 0;
nodes = (
(278,304,l),
(129,513,l),
(91,513,l),
(258,279,l)
);
}
);
width = 0;
}
);
unicode = 120;
},
{
color = 5;
glyphname = y;
layers = (
{
anchors = (
{
name = bottom;
pos = (280,0);
},
{
name = top;
pos = (280,582);
}
);
background = {
shapes = (
{
closed = 1;
nodes = (
(227,-188,o),
(277,-140,o),
(331,-10,cs),
(389,126,o),
(457,332,o),
(495,513,c),
(461,513,l),
(423,323,o),
(355,131,o),
(305,11,c),
(216,179,o),
(150,354,o),
(110,513,c),
(76,513,l),
(115,350,o),
(204,134,o),
(292,-20,c),
(292,-20,o),
(291,-21,o),
(291,-22,c),
(242,-129,o),
(206,-158,o),
(127,-158,cs),
(110,-158,o),
(88,-154,o),
(75,-147,c),
(68,-176,l),
(83,-184,o),
(102,-188,o),
(127,-188,cs)
);
}
);
};
layerId = "48496069-D3C9-4C2F-94CE-920A20E77C3C";
shapes = (
{
closed = 1;
nodes = (
(227,-188,o),
(277,-140,o),
(331,-10,cs),
(389,126,o),
(457,332,o),
(495,513,c),
(461,513,l),
(423,323,o),
(355,131,o),
(305,11,c),
(216,179,o),
(150,354,o),
(110,513,c),
(76,513,l),
(115,350,o),
(204,134,o),
(292,-20,c),
(250,-117,o),
(208,-158,o),
(127,-158,cs),
(110,-158,o),
(88,-154,o),
(75,-147,c),
(68,-176,l),
(83,-184,o),
(102,-188,o),
(127,-188,cs)
);
}
);
width = 560;
},
{
anchors = (
{
name = bottom;
pos = (280,0);
},
{
name = top;
pos = (280,582);
}
);
associatedMasterId = "48496069-D3C9-4C2F-94CE-920A20E77C3C";
layerId = "96EA081F-EEA1-49DA-8C5F-B21887FD9758";
name = "7 Jan 23 23:36";
shapes = (
{
closed = 1;
nodes = (
(230,-188,o),
(280,-140,o),
(334,-10,cs),
(391,125,o),
(453,332,o),
(487,513,c),
(453,513,l),
(412,304,o),
(357,128,o),
(309,12,c),
(220,185,o),
(163,348,o),
(124,513,c),
(90,513,l),
(126,344,o),
(205,132,o),
(294,-22,c),
(245,-129,o),
(209,-158,o),
(130,-158,cs),
(113,-158,o),
(91,-154,o),
(78,-147,c),
(71,-176,l),
(86,-184,o),
(105,-188,o),
(130,-188,cs)
);
}
);
width = 560;
},
{
associatedMasterId = "48496069-D3C9-4C2F-94CE-920A20E77C3C";
layerId = "BA55A8BD-359A-4FC6-8510-E2FC3C3A8FAD";
name = "7 Jan 23 23:36.background";
shapes = (
{
closed = 1;
nodes = (
(216,-188,o),
(286,-136,o),
(332,-15,cs),
(419,214,o),
(469,376,o),
(495,512,c),
(457,512,l),
(397,287,o),
(378,197,o),
(305,15,c),
(216,189,o),
(153,382,o),
(120,512,c),
(74,512,l),
(114,359,o),
(196,155,o),
(302,-41,c),
(249,-146,o),
(209,-160,o),
(118,-160,cs),
(102,-160,o),
(67,-152,o),
(73,-153,c),
(66,-177,l),
(64,-177,o),
(104,-188,o),
(108,-188,cs)
);
}
);
width = 0;
}
);
unicode = 121;
},
{
color = 5;
glyphname = z;
layers = (
{
anchors = (
{
name = bottom;
pos = (280,0);
},
{
name = center;
pos = (280,291);
},
{
name = top;
pos = (280,582);
}
);
background = {
shapes = (
{
closed = 1;
nodes = (
(461,0,l),
(461,32,l),
(136,32,l),
(227,202,o),
(391,403,o),
(457,480,c),
(457,512,l),
(112,512,l),
(112,480,l),
(409,480,l),
(331,396,o),
(147,160,o),
(94,33,c),
(94,0,l)
);
}
);
};
layerId = "48496069-D3C9-4C2F-94CE-920A20E77C3C";
shapes = (
{
closed = 1;
nodes = (
(466,0,l),
(466,28,l),
(133,28,l),
(218,183,o),
(385,403,o),
(462,487,c),
(462,513,l),
(112,513,l),
(112,485,l),
(419,485,l),
(335,389,o),
(170,165,o),
(96,26,c),
(96,0,l)
);
}
);
width = 560;
}
);
unicode = 122;
},
{
color = 5;
glyphname = braceleft;
layers = (
{
background = {
shapes = (
{
closed = 1;
nodes = (
(460,-185,l),
(460,-156,l),
(381,-156,ls),
(300,-156,o),
(264,-134,o),
(264,-44,cs),
(264,144,ls),
(264,236,o),
(229,278,o),
(240,300,c),
(227,314,o),
(264,348,o),
(264,454,cs),
(264,646,ls),
(264,730,o),
(299,756,o),
(377,756,cs),
(460,756,l),
(460,783,l),
(405,783,ls),
(267,783,o),
(232,719,o),
(232,613,cs),
(232,414,ls),
(232,384,o),
(193,313,o),
(138,313,cs),
(112,313,l),
(112,285,l),
(140,285,ls),
(195,285,o),
(232,212,o),
(232,187,cs),
(232,-15,ls),
(232,-122,o),
(266,-185,o),
(405,-185,cs)
);
}
);
};
layerId = "48496069-D3C9-4C2F-94CE-920A20E77C3C";
shapes = (
{
closed = 1;
nodes = (
(455,-185,l),
(455,-155,l),
(374,-155,l),
(295,-152,o),
(270,-124,o),
(270,-42,cs),
(270,151,ls),
(270,254,o),
(238,278,o),
(195,299,c),
(240,318,o),
(270,351,o),
(270,449,cs),
(270,639,ls),
(270,721,o),
(295,749,o),
(371,753,c),
(455,753,l),
(455,783,l),
(373,783,ls),
(275,783,o),
(236,736,o),
(236,620,cs),
(236,412,ls),
(236,363,o),
(203,313,o),
(136,313,c),
(105,313,l),
(105,285,l),
(136,285,l),
(203,285,o),
(236,235,o),
(236,186,cs),
(236,-23,ls),
(236,-139,o),
(275,-185,o),
(373,-185,cs)
);
}
);
width = 560;
}
);
unicode = 123;
},
{
color = 5;
glyphname = bar;
layers = (
{
layerId = "48496069-D3C9-4C2F-94CE-920A20E77C3C";
shapes = (
{
closed = 1;
nodes = (
(297,-185,l),
(297,783,l),
(263,783,l),
(263,-185,l)
);
}
);
width = 560;
}
);
unicode = 124;
},
{
color = 5;
glyphname = braceright;
layers = (
{
layerId = "48496069-D3C9-4C2F-94CE-920A20E77C3C";
shapes = (
{
closed = 1;
nodes = (
(187,-185,ls),
(285,-185,o),
(324,-139,o),
(324,-23,cs),
(324,186,ls),
(324,235,o),
(357,285,o),
(424,285,c),
(455,285,l),
(455,313,l),
(424,313,l),
(357,313,o),
(324,363,o),
(324,412,cs),
(324,620,ls),
(324,736,o),
(285,783,o),
(187,783,cs),
(105,783,l),
(105,753,l),
(189,753,l),
(265,749,o),
(290,721,o),
(290,639,cs),
(290,449,ls),
(290,351,o),
(320,318,o),
(365,299,c),
(322,278,o),
(290,254,o),
(290,151,cs),
(290,-42,ls),
(290,-124,o),
(265,-152,o),
(186,-155,c),
(105,-155,l),
(105,-185,l)
);
}
);
width = 560;
}
);
unicode = 125;
},
{
color = 5;
glyphname = asciitilde;
layers = (
{
background = {
shapes = (
{
closed = 1;
nodes = (
(453,238,o),
(479,306,o),
(481,331,c),
(464,337,l),
(465,344,o),
(457,253,o),
(394,253,cs),
(348,253,o),
(305,292,o),
(271,313,cs),
(234,336,o),
(209,348,o),
(174,348,cs),
(95,348,o),
(75,279,o),
(66,255,c),
(83,253,l),
(85,244,o),
(92,335,o),
(156,335,cs),
(206,335,o),
(245,296,o),
(285,270,cs),
(317,249,o),
(341,238,o),
(375,238,cs)
);
}
);
};
layerId = "48496069-D3C9-4C2F-94CE-920A20E77C3C";
shapes = (
{
closed = 1;
nodes = (
(448,231,o),
(484,263,o),
(503,340,c),
(472,348,l),
(457,288,o),
(433,263,o),
(392,263,cs),
(362,263,o),
(337,277,o),
(292,306,cs),
(247,335,o),
(210,355,o),
(173,355,cs),
(112,355,o),
(78,323,o),
(57,246,c),
(88,238,l),
(111,304,o),
(128,323,o),
(173,323,cs),
(201,323,o),
(226,307,o),
(271,278,cs),
(316,249,o),
(347,231,o),
(384,231,cs)
);
}
);
width = 560;
}
);
unicode = 126;
},
{
color = 5;
glyphname = Euro;
layers = (
{
background = {
shapes = (
{
closed = 1;
nodes = (
(447,-13,o),
(511,9,o),
(502,8,c),
(494,47,l),
(475,37,o),
(448,17,o),
(373,17,cs),
(241,17,o),
(182,66,o),
(161,236,c),
(368,236,l),
(373,281,l),
(160,281,l),
(159,298,o),
(160,301,o),
(160,344,cs),
(160,373,o),
(159,397,o),
(160,421,c),
(400,421,l),
(409,464,l),
(166,464,l),
(178,592,o),
(230,676,o),
(360,676,cs),
(397,676,o),
(441,668,o),
(476,654,c),
(478,687,l),
(462,693,o),
(446,705,o),
(368,705,cs),
(220,705,o),
(148,623,o),
(130,464,c),
(51,464,l),
(51,421,l),
(124,421,l),
(122,396,o),
(122,371,o),
(122,342,cs),
(122,321,o),
(122,298,o),
(124,281,c),
(51,281,l),
(51,236,l),
(128,236,l),
(141,102,o),
(180,-13,o),
(364,-13,cs)
);
}
);
};
layerId = "48496069-D3C9-4C2F-94CE-920A20E77C3C";
shapes = (
{
closed = 1;
nodes = (
(421,-10,o),
(477,0,o),
(512,17,c),
(503,46,l),
(476,33,o),
(421,22,o),
(370,22,cs),
(229,22,o),
(181,112,o),
(165,248,c),
(378,248,l),
(385,280,l),
(163,280,l),
(162,291,o),
(161,302,o),
(161,347,cs),
(161,372,o),
(162,396,o),
(163,419,c),
(413,419,l),
(419,451,l),
(166,451,l),
(182,578,o),
(236,671,o),
(374,671,cs),
(417,671,o),
(461,663,o),
(486,651,c),
(497,681,l),
(464,696,o),
(422,703,o),
(374,703,cs),
(216,703,o),
(149,603,o),
(130,451,c),
(52,451,l),
(52,419,l),
(127,419,l),
(126,396,o),
(125,372,o),
(125,347,cs),
(125,302,o),
(126,291,o),
(127,280,c),
(52,280,l),
(52,248,l),
(129,248,l),
(145,90,o),
(206,-10,o),
(370,-10,cs)
);
}
);
width = 560;
}
);
unicode = 8364;
},
{
color = 5;
glyphname = quotesinglbase;
layers = (
{
layerId = "48496069-D3C9-4C2F-94CE-920A20E77C3C";
shapes = (
{
closed = 1;
nodes = (
(311,-137,o),
(372,-33,o),
(372,35,cs),
(372,84,o),
(350,112,o),
(309,112,cs),
(280,112,o),
(255,85,o),
(255,52,cs),
(255,13,o),
(277,-16,o),
(333,-7,c),
(308,-83,o),
(246,-111,o),
(179,-124,c),
(185,-151,l)
);
}
);
width = 560;
}
);
unicode = 8218;
},
{
color = 5;
glyphname = florin;
layers = (
{
layerId = "48496069-D3C9-4C2F-94CE-920A20E77C3C";
shapes = (
{
closed = 1;
nodes = (
(161,-190,o),
(243,-143,o),
(243,-38,cs),
(243,484,l),
(441,484,l),
(441,512,l),
(243,512,l),
(243,580,ls),
(243,702,o),
(294,746,o),
(400,746,cs),
(435,746,o),
(475,737,o),
(509,720,c),
(517,749,l),
(489,763,o),
(447,776,o),
(400,776,cs),
(273,776,o),
(210,715,o),
(210,580,cs),
(210,512,l),
(112,512,l),
(112,484,l),
(210,484,l),
(210,-26,ls),
(210,-130,o),
(150,-160,o),
(94,-160,cs),
(76,-160,o),
(49,-158,o),
(31,-153,c),
(24,-184,l),
(36,-187,o),
(64,-190,o),
(91,-190,cs)
);
}
);
width = 560;
}
);
unicode = 402;
},
{
color = 5;
glyphname = quotedblbase;
layers = (
{
background = {
shapes = (
{
closed = 1;
nodes = (
(505,-100,o),
(517,-48,o),
(517,35,cs),
(517,115,o),
(471,123,o),
(447,123,cs),
(385,123,o),
(387,72,o),
(387,54,cs),
(387,19,o),
(407,-7,o),
(437,-10,c),
(422,-60,o),
(383,-68,o),
(343,-79,c),
(354,-131,l)
);
},
{
closed = 1;
nodes = (
(256,-100,o),
(269,-48,o),
(269,35,cs),
(269,115,o),
(221,123,o),
(195,123,cs),
(138,123,o),
(135,73,o),
(135,54,cs),
(135,23,o),
(153,-6,o),
(187,-10,c),
(167,-60,o),
(135,-68,o),
(93,-79,c),
(105,-131,l)
);
}
);
};
layerId = "48496069-D3C9-4C2F-94CE-920A20E77C3C";
shapes = (
{
closed = 1;
nodes = (
(418,-128,o),
(472,-29,o),
(472,35,cs),
(472,84,o),
(450,112,o),
(409,112,cs),
(380,112,o),
(355,85,o),
(355,52,cs),
(355,13,o),
(377,-16,o),
(433,-7,c),
(411,-77,o),
(357,-102,o),
(299,-114,c),
(305,-141,l)
);
},
{
closed = 1;
nodes = (
(173,-128,o),
(227,-29,o),
(227,35,cs),
(227,84,o),
(205,112,o),
(164,112,cs),
(135,112,o),
(110,85,o),
(110,52,cs),
(110,13,o),
(132,-16,o),
(188,-7,c),
(166,-77,o),
(112,-102,o),
(54,-114,c),
(60,-141,l)
);
}
);
width = 560;
}
);
unicode = 8222;
},
{
color = 5;
glyphname = ellipsis;
layers = (
{
layerId = "48496069-D3C9-4C2F-94CE-920A20E77C3C";
shapes = (
{
closed = 1;
nodes = (
(125,-13,o),
(147,8,o),
(147,37,cs),
(147,66,o),
(125,87,o),
(95,87,cs),
(66,87,o),
(45,66,o),
(45,37,cs),
(45,8,o),
(66,-13,o),
(95,-13,cs)
);
},
{
closed = 1;
nodes = (
(311,-13,o),
(331,8,o),
(331,37,cs),
(331,66,o),
(311,87,o),
(283,87,cs),
(254,87,o),
(234,66,o),
(234,37,cs),
(234,8,o),
(254,-13,o),
(283,-13,cs)
);
},
{
closed = 1;
nodes = (
(495,-13,o),
(515,8,o),
(515,37,cs),
(515,66,o),
(495,87,o),
(467,87,cs),
(438,87,o),
(418,66,o),
(418,37,cs),
(418,8,o),
(438,-13,o),
(467,-13,cs)
);
}
);
width = 560;
}
);
unicode = 8230;
},
{
color = 5;
glyphname = dagger;
layers = (
{
background = {
shapes = (
{
closed = 1;
nodes = (
(279,-144,l),
(289,-59,o),
(291,35,o),
(291,139,cs),
(291,429,l),
(458,429,l),
(458,458,l),
(291,458,l),
(291,693,l),
(265,693,l),
(265,458,l),
(100,458,l),
(100,429,l),
(265,429,l),
(265,139,ls),
(265,24,o),
(269,-62,o),
(282,-144,c)
);
}
);
};
layerId = "48496069-D3C9-4C2F-94CE-920A20E77C3C";
shapes = (
{
closed = 1;
nodes = (
(290,-145,l),
(298,-18,o),
(297,130,o),
(297,199,cs),
(297,427,l),
(466,427,l),
(466,458,l),
(297,458,l),
(297,693,l),
(263,693,l),
(263,458,l),
(94,458,l),
(94,427,l),
(263,427,l),
(263,199,ls),
(263,126,o),
(262,-16,o),
(270,-145,c)
);
}
);
width = 560;
}
);
unicode = 8224;
},
{
color = 5;
glyphname = daggerdbl;
layers = (
{
background = {
shapes = (
{
closed = 1;
nodes = (
(286,-144,l),
(296,-49,o),
(298,43,o),
(297,164,c),
(462,164,l),
(462,194,l),
(297,194,l),
(297,429,l),
(462,429,l),
(462,458,l),
(297,458,l),
(297,693,l),
(271,693,l),
(271,458,l),
(104,458,l),
(104,429,l),
(271,429,l),
(271,194,l),
(104,194,l),
(104,164,l),
(271,164,l),
(269,35,o),
(273,-51,o),
(286,-144,c)
);
}
);
};
layerId = "48496069-D3C9-4C2F-94CE-920A20E77C3C";
shapes = (
{
closed = 1;
nodes = (
(290,-145,l),
(295,-35,o),
(297,83,o),
(297,162,c),
(466,162,l),
(466,193,l),
(297,193,l),
(297,427,l),
(466,427,l),
(466,458,l),
(297,458,l),
(298,693,l),
(262,693,l),
(263,458,l),
(94,458,l),
(94,427,l),
(263,427,l),
(263,193,l),
(94,193,l),
(94,162,l),
(263,162,l),
(263,79,o),
(266,-48,o),
(270,-145,c)
);
}
);
width = 560;
}
);
unicode = 8225;
},
{
color = 5;
glyphname = quoteleft;
layers = (
{
background = {
shapes = (
{
closed = 1;
nodes = (
(257,517,o),
(298,539,o),
(298,598,cs),
(298,609,o),
(295,639,o),
(256,643,c),
(273,699,o),
(311,717,o),
(370,730,c),
(355,782,l),
(248,770,o),
(176,666,o),
(176,602,cs),
(176,563,o),
(193,517,o),
(238,517,cs)
);
}
);
};
layerId = "48496069-D3C9-4C2F-94CE-920A20E77C3C";
shapes = (
{
closed = 1;
nodes = (
(280,502,o),
(305,529,o),
(305,562,cs),
(305,601,o),
(283,630,o),
(227,621,c),
(252,697,o),
(314,725,o),
(381,738,c),
(375,765,l),
(249,751,o),
(188,647,o),
(188,579,cs),
(188,530,o),
(210,502,o),
(251,502,cs)
);
}
);
width = 560;
}
);
unicode = 8216;
},
{
color = 5;
glyphname = quoteright;
layers = (
{
background = {
shapes = (
{
closed = 1;
nodes = (
(295,500,o),
(369,604,o),
(369,669,cs),
(369,706,o),
(352,753,o),
(306,753,cs),
(287,753,o),
(247,731,o),
(247,672,cs),
(247,663,o),
(249,631,o),
(287,627,c),
(268,567,o),
(227,550,o),
(175,540,c),
(189,488,l)
);
}
);
};
layerId = "48496069-D3C9-4C2F-94CE-920A20E77C3C";
shapes = (
{
closed = 1;
nodes = (
(311,516,o),
(372,620,o),
(372,688,cs),
(372,737,o),
(350,765,o),
(309,765,cs),
(280,765,o),
(255,738,o),
(255,705,cs),
(255,666,o),
(277,637,o),
(333,646,c),
(308,570,o),
(246,542,o),
(179,529,c),
(185,502,l)
);
}
);
width = 560;
}
);
unicode = 8217;
},
{
color = 5;
glyphname = quotedblleft;
layers = (
{
layerId = "48496069-D3C9-4C2F-94CE-920A20E77C3C";
shapes = (
{
closed = 1;
nodes = (
(170,502,o),
(195,529,o),
(195,562,cs),
(195,601,o),
(173,630,o),
(117,621,c),
(139,691,o),
(193,716,o),
(251,728,c),
(245,755,l),
(132,742,o),
(78,643,o),
(78,579,cs),
(78,530,o),
(100,502,o),
(141,502,cs)
);
},
{
closed = 1;
nodes = (
(415,502,o),
(440,529,o),
(440,562,cs),
(440,601,o),
(418,630,o),
(362,621,c),
(384,691,o),
(438,716,o),
(496,728,c),
(490,755,l),
(377,742,o),
(323,643,o),
(323,579,cs),
(323,530,o),
(345,502,o),
(386,502,cs)
);
}
);
width = 560;
}
);
unicode = 8220;
},
{
color = 5;
glyphname = quotedblright;
layers = (
{
background = {
shapes = (
{
closed = 1;
nodes = (
(477,512,o),
(490,561,o),
(490,647,cs),
(490,725,o),
(442,734,o),
(419,734,cs),
(359,734,o),
(356,685,o),
(356,668,cs),
(356,637,o),
(378,607,o),
(410,603,c),
(392,553,o),
(357,546,o),
(316,535,c),
(329,480,l)
);
},
{
closed = 1;
nodes = (
(230,512,o),
(243,563,o),
(243,647,cs),
(243,726,o),
(194,734,o),
(169,734,cs),
(112,734,o),
(109,684,o),
(109,668,cs),
(109,638,o),
(131,607,o),
(161,603,c),
(143,554,o),
(111,546,o),
(70,535,c),
(79,480,l)
);
}
);
};
layerId = "48496069-D3C9-4C2F-94CE-920A20E77C3C";
shapes = (
{
closed = 1;
nodes = (
(428,515,o),
(482,614,o),
(482,678,cs),
(482,727,o),
(460,755,o),
(419,755,cs),
(390,755,o),
(365,728,o),
(365,695,cs),
(365,656,o),
(387,627,o),
(443,636,c),
(421,566,o),
(367,541,o),
(309,529,c),
(315,502,l)
);
},
{
closed = 1;
nodes = (
(183,515,o),
(237,614,o),
(237,678,cs),
(237,727,o),
(215,755,o),
(174,755,cs),
(145,755,o),
(120,728,o),
(120,695,cs),
(120,656,o),
(142,627,o),
(198,636,c),
(176,566,o),
(122,541,o),
(64,529,c),
(70,502,l)
);
}
);
width = 560;
}
);
unicode = 8221;
},
{
color = 5;
glyphname = endash;
layers = (
{
background = {
shapes = (
{
closed = 1;
nodes = (
(457,285,l),
(457,334,l),
(101,334,l),
(101,285,l)
);
}
);
};
layerId = "48496069-D3C9-4C2F-94CE-920A20E77C3C";
shapes = (
{
closed = 1;
nodes = (
(475,292,l),
(475,323,l),
(85,323,l),
(85,292,l)
);
}
);
width = 560;
}
);
unicode = 8211;
},
{
color = 5;
glyphname = emdash;
layers = (
{
background = {
shapes = (
{
closed = 1;
nodes = (
(554,285,l),
(554,334,l),
(5,334,l),
(5,285,l)
);
}
);
};
layerId = "48496069-D3C9-4C2F-94CE-920A20E77C3C";
shapes = (
{
closed = 1;
nodes = (
(560,289,l),
(560,320,l),
(0,320,l),
(0,289,l)
);
}
);
width = 560;
}
);
unicode = 8212;
},
{
color = 5;
glyphname = exclamdown;
layers = (
{
background = {
shapes = (
{
closed = 1;
nodes = (
(290,-185,l),
(290,8,ls),
(290,122,o),
(286,212,o),
(280,294,c),
(281,294,l),
(270,200,o),
(263,113,o),
(263,8,cs),
(263,-185,l)
);
},
{
closed = 1;
nodes = (
(309,412,o),
(328,434,o),
(328,466,cs),
(328,496,o),
(309,521,o),
(278,521,cs),
(248,521,o),
(226,495,o),
(226,466,cs),
(226,434,o),
(248,412,o),
(278,412,cs)
);
}
);
};
layerId = "48496069-D3C9-4C2F-94CE-920A20E77C3C";
shapes = (
{
closed = 1;
nodes = (
(298,-185,l),
(298,14,ls),
(298,160,o),
(297,173,o),
(290,319,c),
(270,319,l),
(264,173,o),
(262,160,o),
(262,14,cs),
(262,-185,l)
);
},
{
closed = 1;
nodes = (
(309,422,o),
(328,443,o),
(328,472,cs),
(328,499,o),
(309,521,o),
(280,521,cs),
(251,521,o),
(232,499,o),
(232,472,cs),
(232,443,o),
(251,422,o),
(280,422,cs)
);
}
);
width = 560;
}
);
unicode = 161;
},
{
glyphname = SF510000;
layers = (
{
layerId = "48496069-D3C9-4C2F-94CE-920A20E77C3C";
shapes = (
{
closed = 1;
nodes = (
(323,-190,l),
(323,235,l),
(554,235,l),
(554,325,l),
(235,325,l),
(235,-190,l)
);
},
{
closed = 1;
nodes = (
(554,414,l),
(554,504,l),
(235,504,l),
(235,414,l)
);
}
);
width = 560;
}
);
unicode = 9554;
},
{
glyphname = SF260000;
layers = (
{
layerId = "48496069-D3C9-4C2F-94CE-920A20E77C3C";
shapes = (
{
closed = 1;
nodes = (
(411,235,l),
(411,930,l),
(324,930,l),
(324,325,l),
(5,325,l),
(5,235,l)
);
},
{
closed = 1;
nodes = (
(235,414,l),
(235,930,l),
(148,930,l),
(148,504,l),
(5,504,l),
(5,414,l)
);
}
);
width = 560;
}
);
unicode = 9565;
},
{
glyphname = SF270000;
layers = (
{
layerId = "48496069-D3C9-4C2F-94CE-920A20E77C3C";
shapes = (
{
closed = 1;
nodes = (
(235,325,l),
(235,930,l),
(148,930,l),
(148,414,l),
(5,414,l),
(5,325,l)
);
},
{
closed = 1;
nodes = (
(411,325,l),
(411,930,l),
(324,930,l),
(324,325,l)
);
}
);
width = 560;
}
);
unicode = 9564;
},
{
glyphname = SF190000;
layers = (
{
layerId = "48496069-D3C9-4C2F-94CE-920A20E77C3C";
shapes = (
{
closed = 1;
nodes = (
(324,414,l),
(324,930,l),
(235,930,l),
(235,504,l),
(5,504,l),
(5,414,l)
);
},
{
closed = 1;
nodes = (
(324,-190,l),
(324,325,l),
(5,325,l),
(5,235,l),
(235,235,l),
(235,-190,l)
);
}
);
width = 560;
}
);
unicode = 9569;
},
{
glyphname = SF500000;
layers = (
{
layerId = "48496069-D3C9-4C2F-94CE-920A20E77C3C";
shapes = (
{
closed = 1;
nodes = (
(554,414,l),
(554,504,l),
(323,504,l),
(323,930,l),
(235,930,l),
(235,414,l)
);
},
{
closed = 1;
nodes = (
(554,235,l),
(554,325,l),
(235,325,l),
(235,235,l)
);
}
);
width = 560;
}
);
unicode = 9560;
},
{
glyphname = SF470000;
layers = (
{
layerId = "48496069-D3C9-4C2F-94CE-920A20E77C3C";
shapes = (
{
closed = 1;
nodes = (
(324,-190,l),
(324,235,l),
(554,235,l),
(554,325,l),
(5,325,l),
(5,235,l),
(235,235,l),
(235,-190,l)
);
},
{
closed = 1;
nodes = (
(554,414,l),
(554,504,l),
(5,504,l),
(5,414,l)
);
}
);
width = 560;
}
);
unicode = 9572;
},
{
glyphname = SF410000;
layers = (
{
layerId = "48496069-D3C9-4C2F-94CE-920A20E77C3C";
shapes = (
{
closed = 1;
nodes = (
(411,-190,l),
(411,235,l),
(554,235,l),
(554,325,l),
(324,325,l),
(324,-190,l)
);
},
{
closed = 1;
nodes = (
(235,-190,l),
(235,325,l),
(5,325,l),
(5,235,l),
(148,235,l),
(148,-190,l)
);
},
{
closed = 1;
nodes = (
(554,414,l),
(554,504,l),
(5,504,l),
(5,414,l)
);
}
);
width = 560;
}
);
unicode = 9574;
},
{
glyphname = SF040000;
layers = (
{
layerId = "48496069-D3C9-4C2F-94CE-920A20E77C3C";
shapes = (
{
closed = 1;
nodes = (
(324,325,l),
(324,930,l),
(235,930,l),
(235,414,l),
(5,414,l),
(5,325,l)
);
}
);
width = 560;
}
);
unicode = 9496;
},
{
glyphname = SF090000;
layers = (
{
layerId = "48496069-D3C9-4C2F-94CE-920A20E77C3C";
shapes = (
{
closed = 1;
nodes = (
(324,-190,l),
(324,930,l),
(235,930,l),
(235,414,l),
(5,414,l),
(5,325,l),
(235,325,l),
(235,-190,l)
);
}
);
width = 560;
}
);
unicode = 9508;
},
{
glyphname = SF400000;
layers = (
{
layerId = "48496069-D3C9-4C2F-94CE-920A20E77C3C";
shapes = (
{
closed = 1;
nodes = (
(554,414,l),
(554,504,l),
(411,504,l),
(411,930,l),
(324,930,l),
(324,414,l)
);
},
{
closed = 1;
nodes = (
(554,235,l),
(554,325,l),
(5,325,l),
(5,235,l)
);
},
{
closed = 1;
nodes = (
(235,414,l),
(235,930,l),
(148,930,l),
(148,504,l),
(5,504,l),
(5,414,l)
);
}
);
width = 560;
}
);
unicode = 9577;
},
{
glyphname = SF460000;
layers = (
{
layerId = "48496069-D3C9-4C2F-94CE-920A20E77C3C";
shapes = (
{
closed = 1;
nodes = (
(554,325,l),
(554,414,l),
(411,414,l),
(411,930,l),
(324,930,l),
(324,414,l),
(235,414,l),
(235,930,l),
(148,930,l),
(148,414,l),
(5,414,l),
(5,325,l)
);
}
);
width = 560;
}
);
unicode = 9576;
},
{
glyphname = SF020000;
layers = (
{
layerId = "48496069-D3C9-4C2F-94CE-920A20E77C3C";
shapes = (
{
closed = 1;
nodes = (
(554,325,l),
(554,414,l),
(323,414,l),
(323,930,l),
(235,930,l),
(235,325,l)
);
}
);
width = 560;
}
);
unicode = 9492;
},
{
glyphname = SF370000;
layers = (
{
layerId = "48496069-D3C9-4C2F-94CE-920A20E77C3C";
shapes = (
{
closed = 1;
nodes = (
(411,-190,l),
(411,325,l),
(554,325,l),
(554,414,l),
(411,414,l),
(411,930,l),
(323,930,l),
(323,-190,l)
);
},
{
closed = 1;
nodes = (
(235,-190,l),
(235,930,l),
(148,930,l),
(148,-190,l)
);
}
);
width = 560;
}
);
unicode = 9567;
},
{
glyphname = SF080000;
layers = (
{
layerId = "48496069-D3C9-4C2F-94CE-920A20E77C3C";
shapes = (
{
closed = 1;
nodes = (
(323,-190,l),
(323,325,l),
(554,325,l),
(554,414,l),
(323,414,l),
(323,930,l),
(235,930,l),
(235,-190,l)
);
}
);
width = 560;
}
);
unicode = 9500;
},
{
glyphname = SF360000;
layers = (
{
layerId = "48496069-D3C9-4C2F-94CE-920A20E77C3C";
shapes = (
{
closed = 1;
nodes = (
(554,414,l),
(554,504,l),
(323,504,l),
(323,930,l),
(235,930,l),
(235,414,l)
);
},
{
closed = 1;
nodes = (
(323,-190,l),
(323,235,l),
(554,235,l),
(554,325,l),
(235,325,l),
(235,-190,l)
);
}
);
width = 560;
}
);
unicode = 9566;
},
{
glyphname = SF030000;
layers = (
{
layerId = "48496069-D3C9-4C2F-94CE-920A20E77C3C";
shapes = (
{
closed = 1;
nodes = (
(324,-190,l),
(324,414,l),
(5,414,l),
(5,325,l),
(235,325,l),
(235,-190,l)
);
}
);
width = 560;
}
);
unicode = 9488;
},
{
glyphname = SF050000;
layers = (
{
layerId = "48496069-D3C9-4C2F-94CE-920A20E77C3C";
shapes = (
{
closed = 1;
nodes = (
(324,-190,l),
(324,325,l),
(554,325,l),
(554,414,l),
(324,414,l),
(324,930,l),
(235,930,l),
(235,414,l),
(5,414,l),
(5,325,l),
(235,325,l),
(235,-190,l)
);
}
);
width = 560;
}
);
unicode = 9532;
},
{
glyphname = block;
layers = (
{
layerId = "48496069-D3C9-4C2F-94CE-920A20E77C3C";
shapes = (
{
closed = 1;
nodes = (
(554,-190,l),
(554,930,l),
(5,930,l),
(5,-190,l)
);
}
);
width = 560;
}
);
unicode = 9608;
},
{
glyphname = SF530000.001;
layers = (
{
layerId = "48496069-D3C9-4C2F-94CE-920A20E77C3C";
shapes = (
{
closed = 1;
nodes = (
(411,-190,l),
(411,325,l),
(554,325,l),
(554,414,l),
(411,414,l),
(411,930,l),
(324,930,l),
(324,-190,l)
);
},
{
closed = 1;
nodes = (
(235,-190,l),
(235,930,l),
(148,930,l),
(148,414,l),
(5,414,l),
(5,325,l),
(148,325,l),
(148,-190,l)
);
}
);
width = 560;
}
);
},
{
glyphname = SF210000;
layers = (
{
layerId = "48496069-D3C9-4C2F-94CE-920A20E77C3C";
shapes = (
{
closed = 1;
nodes = (
(235,-190,l),
(235,414,l),
(5,414,l),
(5,325,l),
(148,325,l),
(148,-190,l)
);
},
{
closed = 1;
nodes = (
(411,-190,l),
(411,414,l),
(324,414,l),
(324,-190,l)
);
}
);
width = 560;
}
);
unicode = 9558;
},
{
glyphname = SF200000;
layers = (
{
layerId = "48496069-D3C9-4C2F-94CE-920A20E77C3C";
shapes = (
{
closed = 1;
nodes = (
(235,-190,l),
(235,930,l),
(148,930,l),
(148,414,l),
(5,414,l),
(5,325,l),
(148,325,l),
(148,-190,l)
);
},
{
closed = 1;
nodes = (
(411,-190,l),
(411,930,l),
(324,930,l),
(324,-190,l)
);
}
);
width = 560;
}
);
unicode = 9570;
},
{
glyphname = SF540000.001;
layers = (
{
layerId = "48496069-D3C9-4C2F-94CE-920A20E77C3C";
shapes = (
{
closed = 1;
nodes = (
(554,414,l),
(554,504,l),
(324,504,l),
(324,930,l),
(235,930,l),
(235,504,l),
(5,504,l),
(5,414,l)
);
},
{
closed = 1;
nodes = (
(324,-190,l),
(324,235,l),
(554,235,l),
(554,325,l),
(5,325,l),
(5,235,l),
(235,235,l),
(235,-190,l)
);
}
);
width = 560;
}
);
},
{
glyphname = SF060000;
layers = (
{
layerId = "48496069-D3C9-4C2F-94CE-920A20E77C3C";
shapes = (
{
closed = 1;
nodes = (
(324,-190,l),
(324,325,l),
(554,325,l),
(554,414,l),
(5,414,l),
(5,325,l),
(235,325,l),
(235,-190,l)
);
}
);
width = 560;
}
);
unicode = 9516;
},
{
glyphname = SF070000;
layers = (
{
layerId = "48496069-D3C9-4C2F-94CE-920A20E77C3C";
shapes = (
{
closed = 1;
nodes = (
(554,325,l),
(554,414,l),
(324,414,l),
(324,930,l),
(235,930,l),
(235,414,l),
(5,414,l),
(5,325,l)
);
}
);
width = 560;
}
);
unicode = 9524;
},
{
glyphname = uniFFFD;
layers = (
{
layerId = "48496069-D3C9-4C2F-94CE-920A20E77C3C";
shapes = (
{
closed = 1;
nodes = (
(550,260,l),
(279,535,l),
(9,260,l),
(279,-15,l)
);
},
{
closed = 1;
nodes = (
(252,66,o),
(233,83,o),
(233,108,cs),
(233,133,o),
(252,150,o),
(276,150,cs),
(296,150,o),
(314,133,o),
(314,108,cs),
(314,83,o),
(296,66,o),
(276,66,cs)
);
},
{
closed = 1;
nodes = (
(240,195,l),
(240,264,o),
(319,284,o),
(319,332,cs),
(319,354,o),
(303,363,o),
(277,363,cs),
(255,363,o),
(233,356,o),
(213,344,c),
(194,395,l),
(221,413,o),
(254,421,o),
(285,421,cs),
(360,421,o),
(383,374,o),
(383,338,cs),
(383,272,o),
(303,251,o),
(301,184,c),
(241,184,l)
);
}
);
width = 560;
}
);
unicode = 65533;
},
{
glyphname = SF390000;
layers = (
{
layerId = "48496069-D3C9-4C2F-94CE-920A20E77C3C";
shapes = (
{
closed = 1;
nodes = (
(235,-190,l),
(235,414,l),
(554,414,l),
(554,504,l),
(148,504,l),
(148,-190,l)
);
},
{
closed = 1;
nodes = (
(411,-190,l),
(411,235,l),
(554,235,l),
(554,325,l),
(323,325,l),
(323,-190,l)
);
}
);
width = 560;
}
);
unicode = 9556;
},
{
glyphname = SF380000;
layers = (
{
layerId = "48496069-D3C9-4C2F-94CE-920A20E77C3C";
shapes = (
{
closed = 1;
nodes = (
(554,235,l),
(554,325,l),
(235,325,l),
(235,930,l),
(148,930,l),
(148,235,l)
);
},
{
closed = 1;
nodes = (
(554,414,l),
(554,504,l),
(411,504,l),
(411,930,l),
(323,930,l),
(323,414,l)
);
}
);
width = 560;
}
);
unicode = 9562;
},
{
glyphname = dkshade;
layers = (
{
layerId = "48496069-D3C9-4C2F-94CE-920A20E77C3C";
shapes = (
{
closed = 1;
nodes = (
(51,-190,l),
(51,-164,l),
(96,-164,l),
(96,-190,l),
(142,-190,l),
(142,-164,l),
(188,-164,l),
(188,-190,l),
(233,-190,l),
(233,-164,l),
(279,-164,l),
(279,-190,l),
(325,-190,l),
(325,-164,l),
(371,-164,l),
(371,-190,l),
(418,-190,l),
(418,-164,l),
(464,-164,l),
(464,-190,l),
(509,-190,l),
(509,-164,l),
(555,-164,l),
(555,-190,l),
(555,-190,l),
(555,930,l),
(5,930,l),
(5,-190,l)
);
},
{
closed = 1;
nodes = (
(51,-76,l),
(96,-76,l),
(96,-120,l),
(51,-120,l)
);
},
{
closed = 1;
nodes = (
(51,11,l),
(96,11,l),
(96,-32,l),
(51,-32,l)
);
},
{
closed = 1;
nodes = (
(142,-76,l),
(188,-76,l),
(188,-120,l),
(142,-120,l)
);
},
{
closed = 1;
nodes = (
(51,99,l),
(96,99,l),
(96,55,l),
(51,55,l)
);
},
{
closed = 1;
nodes = (
(142,11,l),
(188,11,l),
(188,-32,l),
(142,-32,l)
);
},
{
closed = 1;
nodes = (
(233,-76,l),
(279,-76,l),
(279,-120,l),
(233,-120,l)
);
},
{
closed = 1;
nodes = (
(51,186,l),
(96,186,l),
(96,142,l),
(51,142,l)
);
},
{
closed = 1;
nodes = (
(142,99,l),
(188,99,l),
(188,55,l),
(142,55,l)
);
},
{
closed = 1;
nodes = (
(233,11,l),
(279,11,l),
(279,-32,l),
(233,-32,l)
);
},
{
closed = 1;
nodes = (
(325,-76,l),
(371,-76,l),
(371,-120,l),
(325,-120,l)
);
},
{
closed = 1;
nodes = (
(51,273,l),
(96,273,l),
(96,230,l),
(51,230,l)
);
},
{
closed = 1;
nodes = (
(142,186,l),
(188,186,l),
(188,142,l),
(142,142,l)
);
},
{
closed = 1;
nodes = (
(233,99,l),
(279,99,l),
(279,55,l),
(233,55,l)
);
},
{
closed = 1;
nodes = (
(325,11,l),
(371,11,l),
(371,-32,l),
(325,-32,l)
);
},
{
closed = 1;
nodes = (
(418,-76,l),
(464,-76,l),
(464,-120,l),
(418,-120,l)
);
},
{
closed = 1;
nodes = (
(51,361,l),
(96,361,l),
(96,317,l),
(51,317,l)
);
},
{
closed = 1;
nodes = (
(142,273,l),
(188,273,l),
(188,230,l),
(142,230,l)
);
},
{
closed = 1;
nodes = (
(233,186,l),
(279,186,l),
(279,142,l),
(233,142,l)
);
},
{
closed = 1;
nodes = (
(325,99,l),
(371,99,l),
(371,55,l),
(325,55,l)
);
},
{
closed = 1;
nodes = (
(418,11,l),
(464,11,l),
(464,-32,l),
(418,-32,l)
);
},
{
closed = 1;
nodes = (
(509,-76,l),
(555,-76,l),
(555,-120,l),
(509,-120,l)
);
},
{
closed = 1;
nodes = (
(142,361,l),
(188,361,l),
(188,317,l),
(142,317,l)
);
},
{
closed = 1;
nodes = (
(233,273,l),
(279,273,l),
(279,230,l),
(233,230,l)
);
},
{
closed = 1;
nodes = (
(325,186,l),
(371,186,l),
(371,142,l),
(325,142,l)
);
},
{
closed = 1;
nodes = (
(418,99,l),
(464,99,l),
(464,55,l),
(418,55,l)
);
},
{
closed = 1;
nodes = (
(509,11,l),
(555,11,l),
(555,-32,l),
(509,-32,l)
);
},
{
closed = 1;
nodes = (
(51,449,l),
(96,449,l),
(96,404,l),
(51,404,l)
);
},
{
closed = 1;
nodes = (
(233,361,l),
(279,361,l),
(279,317,l),
(233,317,l)
);
},
{
closed = 1;
nodes = (
(325,273,l),
(371,273,l),
(371,230,l),
(325,230,l)
);
},
{
closed = 1;
nodes = (
(418,186,l),
(464,186,l),
(464,142,l),
(418,142,l)
);
},
{
closed = 1;
nodes = (
(509,99,l),
(555,99,l),
(555,55,l),
(509,55,l)
);
},
{
closed = 1;
nodes = (
(142,449,l),
(188,449,l),
(188,404,l),
(142,404,l)
);
},
{
closed = 1;
nodes = (
(51,536,l),
(96,536,l),
(96,493,l),
(51,493,l)
);
},
{
closed = 1;
nodes = (
(325,361,l),
(371,361,l),
(371,317,l),
(325,317,l)
);
},
{
closed = 1;
nodes = (
(418,273,l),
(464,273,l),
(464,230,l),
(418,230,l)
);
},
{
closed = 1;
nodes = (
(509,186,l),
(555,186,l),
(555,142,l),
(509,142,l)
);
},
{
closed = 1;
nodes = (
(233,449,l),
(279,449,l),
(279,404,l),
(233,404,l)
);
},
{
closed = 1;
nodes = (
(51,624,l),
(96,624,l),
(96,580,l),
(51,580,l)
);
},
{
closed = 1;
nodes = (
(142,536,l),
(188,536,l),
(188,493,l),
(142,493,l)
);
},
{
closed = 1;
nodes = (
(418,361,l),
(464,361,l),
(464,317,l),
(418,317,l)
);
},
{
closed = 1;
nodes = (
(509,273,l),
(555,273,l),
(555,230,l),
(509,230,l)
);
},
{
closed = 1;
nodes = (
(325,449,l),
(371,449,l),
(371,404,l),
(325,404,l)
);
},
{
closed = 1;
nodes = (
(51,711,l),
(96,711,l),
(96,668,l),
(51,668,l)
);
},
{
closed = 1;
nodes = (
(142,624,l),
(188,624,l),
(188,580,l),
(142,580,l)
);
},
{
closed = 1;
nodes = (
(233,536,l),
(279,536,l),
(279,493,l),
(233,493,l)
);
},
{
closed = 1;
nodes = (
(509,361,l),
(555,361,l),
(555,317,l),
(509,317,l)
);
},
{
closed = 1;
nodes = (
(418,449,l),
(464,449,l),
(464,404,l),
(418,404,l)
);
},
{
closed = 1;
nodes = (
(51,799,l),
(96,799,l),
(96,755,l),
(51,755,l)
);
},
{
closed = 1;
nodes = (
(142,711,l),
(188,711,l),
(188,668,l),
(142,668,l)
);
},
{
closed = 1;
nodes = (
(233,624,l),
(279,624,l),
(279,580,l),
(233,580,l)
);
},
{
closed = 1;
nodes = (
(325,536,l),
(371,536,l),
(371,493,l),
(325,493,l)
);
},
{
closed = 1;
nodes = (
(509,449,l),
(555,449,l),
(555,404,l),
(509,404,l)
);
},
{
closed = 1;
nodes = (
(51,886,l),
(96,886,l),
(96,842,l),
(51,842,l)
);
},
{
closed = 1;
nodes = (
(142,799,l),
(188,799,l),
(188,755,l),
(142,755,l)
);
},
{
closed = 1;
nodes = (
(233,711,l),
(279,711,l),
(279,668,l),
(233,668,l)
);
},
{
closed = 1;
nodes = (
(325,624,l),
(371,624,l),
(371,580,l),
(325,580,l)
);
},
{
closed = 1;
nodes = (
(418,536,l),
(464,536,l),
(464,493,l),
(418,493,l)
);
},
{
closed = 1;
nodes = (
(142,886,l),
(188,886,l),
(188,842,l),
(142,842,l)
);
},
{
closed = 1;
nodes = (
(233,799,l),
(279,799,l),
(279,755,l),
(233,755,l)
);
},
{
closed = 1;
nodes = (
(325,711,l),
(371,711,l),
(371,668,l),
(325,668,l)
);
},
{
closed = 1;
nodes = (
(418,624,l),
(464,624,l),
(464,580,l),
(418,580,l)
);
},
{
closed = 1;
nodes = (
(509,536,l),
(555,536,l),
(555,493,l),
(509,493,l)
);
},
{
closed = 1;
nodes = (
(233,886,l),
(279,886,l),
(279,842,l),
(233,842,l)
);
},
{
closed = 1;
nodes = (
(325,799,l),
(371,799,l),
(371,755,l),
(325,755,l)
);
},
{
closed = 1;
nodes = (
(418,711,l),
(464,711,l),
(464,668,l),
(418,668,l)
);
},
{
closed = 1;
nodes = (
(509,624,l),
(555,624,l),
(555,580,l),
(509,580,l)
);
},
{
closed = 1;
nodes = (
(325,886,l),
(371,886,l),
(371,842,l),
(325,842,l)
);
},
{
closed = 1;
nodes = (
(418,799,l),
(464,799,l),
(464,755,l),
(418,755,l)
);
},
{
closed = 1;
nodes = (
(509,711,l),
(555,711,l),
(555,668,l),
(509,668,l)
);
},
{
closed = 1;
nodes = (
(418,886,l),
(464,886,l),
(464,842,l),
(418,842,l)
);
},
{
closed = 1;
nodes = (
(509,799,l),
(555,799,l),
(555,755,l),
(509,755,l)
);
},
{
closed = 1;
nodes = (
(509,886,l),
(555,886,l),
(555,842,l),
(509,842,l)
);
}
);
width = 560;
}
);
unicode = 9619;
},
{
glyphname = SF450000;
layers = (
{
layerId = "48496069-D3C9-4C2F-94CE-920A20E77C3C";
shapes = (
{
closed = 1;
nodes = (
(554,414,l),
(554,504,l),
(324,504,l),
(324,930,l),
(235,930,l),
(235,504,l),
(5,504,l),
(5,414,l)
);
},
{
closed = 1;
nodes = (
(554,235,l),
(554,325,l),
(5,325,l),
(5,235,l)
);
}
);
width = 560;
}
);
unicode = 9575;
},
{
glyphname = SF110000;
layers = (
{
layerId = "48496069-D3C9-4C2F-94CE-920A20E77C3C";
shapes = (
{
closed = 1;
nodes = (
(324,-190,l),
(324,930,l),
(236,930,l),
(236,-190,l)
);
}
);
width = 560;
}
);
unicode = 9474;
},
{
glyphname = SF100000;
layers = (
{
layerId = "48496069-D3C9-4C2F-94CE-920A20E77C3C";
shapes = (
{
closed = 1;
nodes = (
(554,325,l),
(554,414,l),
(5,414,l),
(5,325,l)
);
}
);
width = 560;
}
);
unicode = 9472;
},
{
glyphname = SF440000;
layers = (
{
layerId = "48496069-D3C9-4C2F-94CE-920A20E77C3C";
shapes = (
{
closed = 1;
nodes = (
(554,414,l),
(554,504,l),
(411,504,l),
(411,930,l),
(324,930,l),
(324,414,l)
);
},
{
closed = 1;
nodes = (
(235,-190,l),
(235,325,l),
(5,325,l),
(5,235,l),
(148,235,l),
(148,-190,l)
);
},
{
closed = 1;
nodes = (
(411,-190,l),
(411,235,l),
(554,235,l),
(554,325,l),
(324,325,l),
(324,-190,l)
);
},
{
closed = 1;
nodes = (
(235,414,l),
(235,930,l),
(148,930,l),
(148,504,l),
(5,504,l),
(5,414,l)
);
}
);
width = 560;
}
);
unicode = 9580;
},
{
glyphname = SF520000;
layers = (
{
layerId = "48496069-D3C9-4C2F-94CE-920A20E77C3C";
shapes = (
{
closed = 1;
nodes = (
(411,-190,l),
(411,325,l),
(554,325,l),
(554,414,l),
(323,414,l),
(323,-190,l)
);
},
{
closed = 1;
nodes = (
(235,-190,l),
(235,414,l),
(148,414,l),
(148,-190,l)
);
}
);
width = 560;
}
);
unicode = 9555;
},
{
glyphname = brevecomb.cyr;
layers = (
{
anchors = (
{
name = _top;
pos = (279,512);
},
{
name = top;
pos = (279,714);
}
);
layerId = "48496069-D3C9-4C2F-94CE-920A20E77C3C";
shapes = (
{
closed = 1;
nodes = (
(358,612,o),
(382,650,o),
(396,707,c),
(370,715,l),
(353,679,o),
(333,639,o),
(280,639,cs),
(222,639,o),
(204,680,o),
(189,714,c),
(161,704,l),
(177,649,o),
(200,612,o),
(280,612,cs)
);
}
);
userData = {
com.schriftgestaltung.Glyphs.originalWidth = 560;
};
width = 0;
}
);
},
{
glyphname = SF250000;
layers = (
{
layerId = "48496069-D3C9-4C2F-94CE-920A20E77C3C";
shapes = (
{
closed = 1;
nodes = (
(411,-190,l),
(411,504,l),
(5,504,l),
(5,414,l),
(324,414,l),
(324,-190,l)
);
},
{
closed = 1;
nodes = (
(235,-190,l),
(235,325,l),
(5,325,l),
(5,235,l),
(148,235,l),
(148,-190,l)
);
}
);
width = 560;
}
);
unicode = 9559;
},
{
glyphname = SF240000;
layers = (
{
layerId = "48496069-D3C9-4C2F-94CE-920A20E77C3C";
shapes = (
{
closed = 1;
nodes = (
(411,-190,l),
(411,930,l),
(323,930,l),
(323,-190,l)
);
},
{
closed = 1;
nodes = (
(235,-190,l),
(235,930,l),
(148,930,l),
(148,-190,l)
);
}
);
width = 560;
}
);
unicode = 9553;
},
{
glyphname = SF530000;
layers = (
{
layerId = "48496069-D3C9-4C2F-94CE-920A20E77C3C";
shapes = (
{
closed = 1;
nodes = (
(235,-190,l),
(235,325,l),
(324,325,l),
(324,-190,l),
(411,-190,l),
(411,325,l),
(554,325,l),
(554,414,l),
(411,414,l),
(411,930,l),
(324,930,l),
(324,414,l),
(235,414,l),
(235,930,l),
(148,930,l),
(148,414,l),
(5,414,l),
(5,325,l),
(148,325,l),
(148,-190,l)
);
}
);
width = 560;
}
);
unicode = 9579;
},
{
glyphname = ltshade;
layers = (
{
layerId = "48496069-D3C9-4C2F-94CE-920A20E77C3C";
shapes = (
{
closed = 1;
nodes = (
(509,799,l),
(509,842,l),
(464,842,l),
(464,799,l)
);
},
{
closed = 1;
nodes = (
(51,-164,l),
(51,-120,l),
(5,-120,l),
(5,-164,l)
);
},
{
closed = 1;
nodes = (
(51,11,l),
(51,55,l),
(5,55,l),
(5,11,l)
);
},
{
closed = 1;
nodes = (
(142,-76,l),
(142,-32,l),
(96,-32,l),
(96,-76,l)
);
},
{
closed = 1;
nodes = (
(233,-164,l),
(233,-120,l),
(188,-120,l),
(188,-164,l)
);
},
{
closed = 1;
nodes = (
(51,186,l),
(51,230,l),
(5,230,l),
(5,186,l)
);
},
{
closed = 1;
nodes = (
(142,99,l),
(142,142,l),
(96,142,l),
(96,99,l)
);
},
{
closed = 1;
nodes = (
(233,11,l),
(233,55,l),
(188,55,l),
(188,11,l)
);
},
{
closed = 1;
nodes = (
(325,-76,l),
(325,-32,l),
(279,-32,l),
(279,-76,l)
);
},
{
closed = 1;
nodes = (
(418,-164,l),
(418,-120,l),
(371,-120,l),
(371,-164,l)
);
},
{
closed = 1;
nodes = (
(51,361,l),
(51,404,l),
(5,404,l),
(5,361,l)
);
},
{
closed = 1;
nodes = (
(142,273,l),
(142,317,l),
(96,317,l),
(96,273,l)
);
},
{
closed = 1;
nodes = (
(233,186,l),
(233,230,l),
(188,230,l),
(188,186,l)
);
},
{
closed = 1;
nodes = (
(325,99,l),
(325,142,l),
(279,142,l),
(279,99,l)
);
},
{
closed = 1;
nodes = (
(418,11,l),
(418,55,l),
(371,55,l),
(371,11,l)
);
},
{
closed = 1;
nodes = (
(509,-76,l),
(509,-32,l),
(464,-32,l),
(464,-76,l)
);
},
{
closed = 1;
nodes = (
(233,361,l),
(233,404,l),
(188,404,l),
(188,361,l)
);
},
{
closed = 1;
nodes = (
(325,273,l),
(325,317,l),
(279,317,l),
(279,273,l)
);
},
{
closed = 1;
nodes = (
(418,186,l),
(418,230,l),
(371,230,l),
(371,186,l)
);
},
{
closed = 1;
nodes = (
(509,99,l),
(509,142,l),
(464,142,l),
(464,99,l)
);
},
{
closed = 1;
nodes = (
(51,536,l),
(51,580,l),
(5,580,l),
(5,536,l)
);
},
{
closed = 1;
nodes = (
(142,449,l),
(142,493,l),
(96,493,l),
(96,449,l)
);
},
{
closed = 1;
nodes = (
(418,361,l),
(418,404,l),
(371,404,l),
(371,361,l)
);
},
{
closed = 1;
nodes = (
(509,273,l),
(509,317,l),
(464,317,l),
(464,273,l)
);
},
{
closed = 1;
nodes = (
(51,711,l),
(51,755,l),
(5,755,l),
(5,711,l)
);
},
{
closed = 1;
nodes = (
(142,624,l),
(142,668,l),
(96,668,l),
(96,624,l)
);
},
{
closed = 1;
nodes = (
(233,536,l),
(233,580,l),
(188,580,l),
(188,536,l)
);
},
{
closed = 1;
nodes = (
(325,449,l),
(325,493,l),
(279,493,l),
(279,449,l)
);
},
{
closed = 1;
nodes = (
(51,886,l),
(51,930,l),
(5,930,l),
(5,886,l)
);
},
{
closed = 1;
nodes = (
(142,799,l),
(142,842,l),
(96,842,l),
(96,799,l)
);
},
{
closed = 1;
nodes = (
(233,711,l),
(233,755,l),
(188,755,l),
(188,711,l)
);
},
{
closed = 1;
nodes = (
(325,624,l),
(325,668,l),
(279,668,l),
(279,624,l)
);
},
{
closed = 1;
nodes = (
(418,536,l),
(418,580,l),
(371,580,l),
(371,536,l)
);
},
{
closed = 1;
nodes = (
(509,449,l),
(509,493,l),
(464,493,l),
(464,449,l)
);
},
{
closed = 1;
nodes = (
(233,886,l),
(233,930,l),
(188,930,l),
(188,886,l)
);
},
{
closed = 1;
nodes = (
(325,799,l),
(325,842,l),
(279,842,l),
(279,799,l)
);
},
{
closed = 1;
nodes = (
(418,711,l),
(418,755,l),
(371,755,l),
(371,711,l)
);
},
{
closed = 1;
nodes = (
(509,624,l),
(509,668,l),
(464,668,l),
(464,624,l)
);
},
{
closed = 1;
nodes = (
(418,886,l),
(418,930,l),
(371,930,l),
(371,886,l)
);
}
);
width = 560;
}
);
unicode = 9617;
},
{
glyphname = SF540000;
layers = (
{
layerId = "48496069-D3C9-4C2F-94CE-920A20E77C3C";
shapes = (
{
closed = 1;
nodes = (
(324,-190,l),
(324,235,l),
(554,235,l),
(554,325,l),
(324,325,l),
(324,414,l),
(554,414,l),
(554,504,l),
(324,504,l),
(324,930,l),
(235,930,l),
(235,504,l),
(5,504,l),
(5,414,l),
(235,414,l),
(235,325,l),
(5,325,l),
(5,235,l),
(235,235,l),
(235,-190,l)
);
}
);
width = 560;
}
);
unicode = 9578;
},
{
glyphname = SF010000;
layers = (
{
layerId = "48496069-D3C9-4C2F-94CE-920A20E77C3C";
shapes = (
{
closed = 1;
nodes = (
(323,-190,l),
(323,325,l),
(554,325,l),
(554,414,l),
(235,414,l),
(235,-190,l)
);
}
);
width = 560;
}
);
unicode = 9484;
},
{
glyphname = SF230000;
layers = (
{
layerId = "48496069-D3C9-4C2F-94CE-920A20E77C3C";
shapes = (
{
closed = 1;
nodes = (
(235,414,l),
(235,930,l),
(148,930,l),
(148,504,l),
(5,504,l),
(5,414,l)
);
},
{
closed = 1;
nodes = (
(235,-190,l),
(235,325,l),
(5,325,l),
(5,235,l),
(148,235,l),
(148,-190,l)
);
},
{
closed = 1;
nodes = (
(411,-190,l),
(411,930,l),
(324,930,l),
(324,-190,l)
);
}
);
width = 560;
}
);
unicode = 9571;
},
{
glyphname = SF280000;
layers = (
{
layerId = "48496069-D3C9-4C2F-94CE-920A20E77C3C";
shapes = (
{
closed = 1;
nodes = (
(324,414,l),
(324,930,l),
(235,930,l),
(235,504,l),
(5,504,l),
(5,414,l)
);
},
{
closed = 1;
nodes = (
(324,235,l),
(324,325,l),
(5,325,l),
(5,235,l)
);
}
);
width = 560;
}
);
unicode = 9563;
},
{
glyphname = SF480000;
layers = (
{
layerId = "48496069-D3C9-4C2F-94CE-920A20E77C3C";
shapes = (
{
closed = 1;
nodes = (
(235,-190,l),
(235,325,l),
(324,325,l),
(324,-190,l),
(411,-190,l),
(411,325,l),
(554,325,l),
(554,414,l),
(5,414,l),
(5,325,l),
(148,325,l),
(148,-190,l)
);
}
);
width = 560;
}
);
unicode = 9573;
},
{
glyphname = SF490000;
layers = (
{
layerId = "48496069-D3C9-4C2F-94CE-920A20E77C3C";
shapes = (
{
closed = 1;
nodes = (
(554,325,l),
(554,414,l),
(411,414,l),
(411,930,l),
(323,930,l),
(323,325,l)
);
},
{
closed = 1;
nodes = (
(235,325,l),
(235,930,l),
(148,930,l),
(148,325,l)
);
}
);
width = 560;
}
);
unicode = 9561;
},
{
glyphname = SF420000;
layers = (
{
layerId = "48496069-D3C9-4C2F-94CE-920A20E77C3C";
shapes = (
{
closed = 1;
nodes = (
(554,414,l),
(554,504,l),
(411,504,l),
(411,930,l),
(323,930,l),
(323,414,l)
);
},
{
closed = 1;
nodes = (
(411,-190,l),
(411,235,l),
(554,235,l),
(554,325,l),
(323,325,l),
(323,-190,l)
);
},
{
closed = 1;
nodes = (
(235,-190,l),
(235,930,l),
(148,930,l),
(148,-190,l)
);
}
);
width = 560;
}
);
unicode = 9568;
},
{
glyphname = SF220000;
layers = (
{
layerId = "48496069-D3C9-4C2F-94CE-920A20E77C3C";
shapes = (
{
closed = 1;
nodes = (
(324,-190,l),
(324,325,l),
(5,325,l),
(5,235,l),
(235,235,l),
(235,-190,l)
);
},
{
closed = 1;
nodes = (
(324,414,l),
(324,504,l),
(5,504,l),
(5,414,l)
);
}
);
width = 560;
}
);
unicode = 9557;
},
{
glyphname = SF430000;
layers = (
{
layerId = "48496069-D3C9-4C2F-94CE-920A20E77C3C";
shapes = (
{
closed = 1;
nodes = (
(554,414,l),
(554,504,l),
(5,504,l),
(5,414,l)
);
},
{
closed = 1;
nodes = (
(554,235,l),
(554,325,l),
(5,325,l),
(5,235,l)
);
}
);
width = 560;
}
);
unicode = 9552;
},
{
glyphname = shade;
layers = (
{
layerId = "48496069-D3C9-4C2F-94CE-920A20E77C3C";
shapes = (
{
closed = 1;
nodes = (
(509,886,l),
(509,930,l),
(464,930,l),
(464,886,l)
);
},
{
closed = 1;
nodes = (
(51,-164,l),
(51,-120,l),
(5,-120,l),
(5,-164,l)
);
},
{
closed = 1;
nodes = (
(142,-164,l),
(142,-120,l),
(96,-120,l),
(96,-164,l)
);
},
{
closed = 1;
nodes = (
(96,-76,l),
(96,-32,l),
(51,-32,l),
(51,-76,l)
);
},
{
closed = 1;
nodes = (
(51,11,l),
(51,55,l),
(5,55,l),
(5,11,l)
);
},
{
closed = 1;
nodes = (
(233,-164,l),
(233,-120,l),
(188,-120,l),
(188,-164,l)
);
},
{
closed = 1;
nodes = (
(188,-76,l),
(188,-32,l),
(142,-32,l),
(142,-76,l)
);
},
{
closed = 1;
nodes = (
(142,11,l),
(142,55,l),
(96,55,l),
(96,11,l)
);
},
{
closed = 1;
nodes = (
(325,-164,l),
(325,-120,l),
(279,-120,l),
(279,-164,l)
);
},
{
closed = 1;
nodes = (
(96,99,l),
(96,142,l),
(51,142,l),
(51,99,l)
);
},
{
closed = 1;
nodes = (
(279,-76,l),
(279,-32,l),
(233,-32,l),
(233,-76,l)
);
},
{
closed = 1;
nodes = (
(51,186,l),
(51,230,l),
(5,230,l),
(5,186,l)
);
},
{
closed = 1;
nodes = (
(233,11,l),
(233,55,l),
(188,55,l),
(188,11,l)
);
},
{
closed = 1;
nodes = (
(418,-164,l),
(418,-120,l),
(371,-120,l),
(371,-164,l)
);
},
{
closed = 1;
nodes = (
(188,99,l),
(188,142,l),
(142,142,l),
(142,99,l)
);
},
{
closed = 1;
nodes = (
(371,-76,l),
(371,-32,l),
(325,-32,l),
(325,-76,l)
);
},
{
closed = 1;
nodes = (
(142,186,l),
(142,230,l),
(96,230,l),
(96,186,l)
);
},
{
closed = 1;
nodes = (
(325,11,l),
(325,55,l),
(279,55,l),
(279,11,l)
);
},
{
closed = 1;
nodes = (
(509,-164,l),
(509,-120,l),
(464,-120,l),
(464,-164,l)
);
},
{
closed = 1;
nodes = (
(96,273,l),
(96,317,l),
(51,317,l),
(51,273,l)
);
},
{
closed = 1;
nodes = (
(279,99,l),
(279,142,l),
(233,142,l),
(233,99,l)
);
},
{
closed = 1;
nodes = (
(464,-76,l),
(464,-32,l),
(418,-32,l),
(418,-76,l)
);
},
{
closed = 1;
nodes = (
(51,361,l),
(51,404,l),
(5,404,l),
(5,361,l)
);
},
{
closed = 1;
nodes = (
(233,186,l),
(233,230,l),
(188,230,l),
(188,186,l)
);
},
{
closed = 1;
nodes = (
(418,11,l),
(418,55,l),
(371,55,l),
(371,11,l)
);
},
{
closed = 1;
nodes = (
(188,273,l),
(188,317,l),
(142,317,l),
(142,273,l)
);
},
{
closed = 1;
nodes = (
(371,99,l),
(371,142,l),
(325,142,l),
(325,99,l)
);
},
{
closed = 1;
nodes = (
(555,-76,l),
(555,-32,l),
(509,-32,l),
(509,-76,l)
);
},
{
closed = 1;
nodes = (
(142,361,l),
(142,404,l),
(96,404,l),
(96,361,l)
);
},
{
closed = 1;
nodes = (
(325,186,l),
(325,230,l),
(279,230,l),
(279,186,l)
);
},
{
closed = 1;
nodes = (
(509,11,l),
(509,55,l),
(464,55,l),
(464,11,l)
);
},
{
closed = 1;
nodes = (
(279,273,l),
(279,317,l),
(233,317,l),
(233,273,l)
);
},
{
closed = 1;
nodes = (
(464,99,l),
(464,142,l),
(418,142,l),
(418,99,l)
);
},
{
closed = 1;
nodes = (
(96,449,l),
(96,493,l),
(51,493,l),
(51,449,l)
);
},
{
closed = 1;
nodes = (
(233,361,l),
(233,404,l),
(188,404,l),
(188,361,l)
);
},
{
closed = 1;
nodes = (
(418,186,l),
(418,230,l),
(371,230,l),
(371,186,l)
);
},
{
closed = 1;
nodes = (
(51,536,l),
(51,580,l),
(5,580,l),
(5,536,l)
);
},
{
closed = 1;
nodes = (
(371,273,l),
(371,317,l),
(325,317,l),
(325,273,l)
);
},
{
closed = 1;
nodes = (
(555,99,l),
(555,142,l),
(509,142,l),
(509,99,l)
);
},
{
closed = 1;
nodes = (
(188,449,l),
(188,493,l),
(142,493,l),
(142,449,l)
);
},
{
closed = 1;
nodes = (
(325,361,l),
(325,404,l),
(279,404,l),
(279,361,l)
);
},
{
closed = 1;
nodes = (
(509,186,l),
(509,230,l),
(464,230,l),
(464,186,l)
);
},
{
closed = 1;
nodes = (
(142,536,l),
(142,580,l),
(96,580,l),
(96,536,l)
);
},
{
closed = 1;
nodes = (
(464,273,l),
(464,317,l),
(418,317,l),
(418,273,l)
);
},
{
closed = 1;
nodes = (
(96,624,l),
(96,668,l),
(51,668,l),
(51,624,l)
);
},
{
closed = 1;
nodes = (
(279,449,l),
(279,493,l),
(233,493,l),
(233,449,l)
);
},
{
closed = 1;
nodes = (
(418,361,l),
(418,404,l),
(371,404,l),
(371,361,l)
);
},
{
closed = 1;
nodes = (
(51,711,l),
(51,755,l),
(5,755,l),
(5,711,l)
);
},
{
closed = 1;
nodes = (
(233,536,l),
(233,580,l),
(188,580,l),
(188,536,l)
);
},
{
closed = 1;
nodes = (
(555,273,l),
(555,317,l),
(509,317,l),
(509,273,l)
);
},
{
closed = 1;
nodes = (
(188,624,l),
(188,668,l),
(142,668,l),
(142,624,l)
);
},
{
closed = 1;
nodes = (
(371,449,l),
(371,493,l),
(325,493,l),
(325,449,l)
);
},
{
closed = 1;
nodes = (
(509,361,l),
(509,404,l),
(464,404,l),
(464,361,l)
);
},
{
closed = 1;
nodes = (
(142,711,l),
(142,755,l),
(96,755,l),
(96,711,l)
);
},
{
closed = 1;
nodes = (
(325,536,l),
(325,580,l),
(279,580,l),
(279,536,l)
);
},
{
closed = 1;
nodes = (
(96,799,l),
(96,842,l),
(51,842,l),
(51,799,l)
);
},
{
closed = 1;
nodes = (
(279,624,l),
(279,668,l),
(233,668,l),
(233,624,l)
);
},
{
closed = 1;
nodes = (
(464,449,l),
(464,493,l),
(418,493,l),
(418,449,l)
);
},
{
closed = 1;
nodes = (
(51,886,l),
(51,930,l),
(5,930,l),
(5,886,l)
);
},
{
closed = 1;
nodes = (
(233,711,l),
(233,755,l),
(188,755,l),
(188,711,l)
);
},
{
closed = 1;
nodes = (
(418,536,l),
(418,580,l),
(371,580,l),
(371,536,l)
);
},
{
closed = 1;
nodes = (
(188,799,l),
(188,842,l),
(142,842,l),
(142,799,l)
);
},
{
closed = 1;
nodes = (
(371,624,l),
(371,668,l),
(325,668,l),
(325,624,l)
);
},
{
closed = 1;
nodes = (
(555,449,l),
(555,493,l),
(509,493,l),
(509,449,l)
);
},
{
closed = 1;
nodes = (
(142,886,l),
(142,930,l),
(96,930,l),
(96,886,l)
);
},
{
closed = 1;
nodes = (
(325,711,l),
(325,755,l),
(279,755,l),
(279,711,l)
);
},
{
closed = 1;
nodes = (
(509,536,l),
(509,580,l),
(464,580,l),
(464,536,l)
);
},
{
closed = 1;
nodes = (
(279,799,l),
(279,842,l),
(233,842,l),
(233,799,l)
);
},
{
closed = 1;
nodes = (
(464,624,l),
(464,668,l),
(418,668,l),
(418,624,l)
);
},
{
closed = 1;
nodes = (
(233,886,l),
(233,930,l),
(188,930,l),
(188,886,l)
);
},
{
closed = 1;
nodes = (
(418,711,l),
(418,755,l),
(371,755,l),
(371,711,l)
);
},
{
closed = 1;
nodes = (
(371,799,l),
(371,842,l),
(325,842,l),
(325,799,l)
);
},
{
closed = 1;
nodes = (
(555,624,l),
(555,668,l),
(509,668,l),
(509,624,l)
);
},
{
closed = 1;
nodes = (
(325,886,l),
(325,930,l),
(279,930,l),
(279,886,l)
);
},
{
closed = 1;
nodes = (
(509,711,l),
(509,755,l),
(464,755,l),
(464,711,l)
);
},
{
closed = 1;
nodes = (
(464,799,l),
(464,842,l),
(418,842,l),
(418,799,l)
);
},
{
closed = 1;
nodes = (
(418,886,l),
(418,930,l),
(371,930,l),
(371,886,l)
);
},
{
closed = 1;
nodes = (
(555,799,l),
(555,842,l),
(509,842,l),
(509,799,l)
);
}
